<svg xmlns="http://www.w3.org/2000/svg" viewBox="0 0 7.60504 5.65409"><defs><style>.\38 075ca58-e57a-41c5-af8a-9d85753b6957{fill:#ef893a;}.\39 b25b493-ce94-4cf5-b0b7-c9fe170d4e04{fill:#f3aa43;}</style></defs><title>fire</title><g id="1e46af31-44aa-416e-a5a0-5dbc201b821e" data-name="Layer 2"><g id="69687ea0-80a0-4151-a1e2-f3fcb26e6bcc" data-name="Layer 1"><g id="159d2b7b-738c-4005-aea4-cf0943c37697" data-name="fire"><path class="8075ca58-e57a-41c5-af8a-9d85753b6957" d="M6.31232,2.66469c-.16326-.26095-.82646-.16078-1.66089.20365a.51139.51139,0,0,0,.07565-.41843.51093.51093,0,0,0-.40927-.11535C5.011,1.7442,5.39194,1.19193,5.22894.931c-.23371-.37389-1.49407-.00784-2.815.8177a5.86406,5.86406,0,0,0-1.969,2.17168A5.18837,5.18837,0,0,0,1.21823,3.845,6.11033,6.11033,0,0,0,0,5.4037a6.11551,6.11551,0,0,0,1.935-.41155,5.1885,5.1885,0,0,0-.4067.66194,5.86542,5.86542,0,0,0,2.815-.81761C5.66449,4.011,6.54582,3.03853,6.31232,2.66469Z"/><path class="9b25b493-ce94-4cf5-b0b7-c9fe170d4e04" d="M7.56749,1.88037c-.163-.261-.82646-.16078-1.66088.20365a.51128.51128,0,0,0,.07565-.41843A.51122.51122,0,0,0,5.573,1.55015C6.26624.95976,6.64714.40752,6.48412.14663c-.23369-.374-1.49407-.00784-2.815.81758a5.86477,5.86477,0,0,0-1.969,2.17168,5.17644,5.17644,0,0,0,.77332-.0752,6.10062,6.10062,0,0,0-1.218,1.55863,6.11132,6.11132,0,0,0,1.93474-.41161,5.19318,5.19318,0,0,0-.40671.66194,5.86263,5.86263,0,0,0,2.81505-.8176C6.91967,3.22668,7.80121,2.25426,7.56749,1.88037Z"/></g></g></g></svg>