<svg xmlns="http://www.w3.org/2000/svg" viewBox="0 0 11.65917 12.2804"><defs><style>.a6a459cb-bfd6-4ae4-8c3e-568237e37cdd{isolation:isolate;}.\38 7e73df4-16c6-4835-a6c6-1925c8ee1e99{fill:#fced65;}.\32 8bb5146-57c4-414d-b8ca-7dded2e9ab80{fill:#616161;opacity:0.4;mix-blend-mode:color-burn;}.f47151ef-a8a6-4b54-a04d-b2982bd53348{fill:#fc8047;}</style></defs><title>comet</title><g class="a6a459cb-bfd6-4ae4-8c3e-568237e37cdd"><g id="c46615f5-8b5b-4103-b74b-c1ec96973b7f" data-name="Layer 2"><g id="31c91e8b-e674-4c92-8efd-46dacee09b8c" data-name="Layer 1"><g id="ed2a4884-b3bf-4b89-b598-5341441091d5" data-name="comet"><path class="87e73df4-16c6-4835-a6c6-1925c8ee1e99" d="M11.4395.79285c-.02794.02952-.11683.124-.25032.26777l-.00317.0027c-.507.53937-1.64888,1.773-2.61492,2.93063-.979,1.17144-1.77888,2.26588-1.55888,2.48555.50936.51,2.47126-.73365,2.47126-.73365S3.09007,13.86155.55372,12.0041a1.55389,1.55389,0,0,1-.1746-.15081c-2.37864-2.3784,7.20625-9.89585,7.3834-10.03378C7.70474,1.9,6.60776,3.39967,7.01221,3.80379c.34221.34254,3.11506-1.91682,4.09506-2.732.10112-.08444.183-.15365.2408-.20271C11.39315.83079,11.424.80428,11.4395.79285Z"/><path class="28bb5146-57c4-414d-b8ca-7dded2e9ab80" d="M11.65917.49872c-.08284.09985-.18856.22539-.3111.37031-.04921.06048-.10287.124-.15889.19159l-.00317.0027c-.507.53937-1.64888,1.773-2.61492,2.93063-.979,1.17144-1.77888,2.26588-1.55888,2.48555.50936.51,2.47126-.73365,2.47126-.73365S3.09007,13.86155.55372,12.0041L11.10727,1.07174Z"/><path class="f47151ef-a8a6-4b54-a04d-b2982bd53348" d="M2.91872,11.46219c-.0435.03667-.08857.07191-.134.10445a1.74433,1.74433,0,0,1-1.69111.38983L1.09079,11.955a1.30466,1.30466,0,0,1-.245-.141l-.007-.00571c-.01555-.01254-.03078-.02365-.04666-.03523-.014-.01112-.02794-.02222-.04064-.03334-.02127-.01858-.04223-.03826-.06191-.05762C-.071,10.923.2515,10.06109.895,9.32171c.20436-.23825,1.539-1.48062,2.43952-.58015C4.23514,9.64219,3.8015,10.73426,2.91872,11.46219Z"/><path class="87e73df4-16c6-4835-a6c6-1925c8ee1e99" d="M10.6441,0c-.10126.12555-1.7365,2.14063-2.29427,2.71665-.30826.31841-.59017.2916-.72254.14508A.34914.34914,0,0,1,7.699,2.35459C8.09363,2.01666,10.49331.11841,10.64251,0Z"/><path class="87e73df4-16c6-4835-a6c6-1925c8ee1e99" d="M10.35553,3.49268c-.04953.06778-1.64666,2.24317-1.86348,2.45174a.4919.4919,0,0,1-.66763.10112l-.00984-.0127a.50129.50129,0,0,1,.13936-.65032C8.1711,5.17411,10.28918,3.54332,10.35553,3.49268Z"/><path class="28bb5146-57c4-414d-b8ca-7dded2e9ab80" d="M2.93332,9.06093a.5046.5046,0,1,1-.50475-.5046A.505.505,0,0,1,2.93332,9.06093Z"/><path class="28bb5146-57c4-414d-b8ca-7dded2e9ab80" d="M3.29547,10.53029a.64552.64552,0,1,1-.64531-.64523A.64576.64576,0,0,1,3.29547,10.53029Z"/><path class="28bb5146-57c4-414d-b8ca-7dded2e9ab80" d="M1.846,9.82347a.40964.40964,0,1,1-.40952-.4097A.40967.40967,0,0,1,1.846,9.82347Z"/><path class="28bb5146-57c4-414d-b8ca-7dded2e9ab80" d="M2.24381,11.43331a.31969.31969,0,1,1-.31968-.31954A.31965.31965,0,0,1,2.24381,11.43331Z"/><path class="28bb5146-57c4-414d-b8ca-7dded2e9ab80" d="M3.61483,9.56552A.31969.31969,0,1,1,3.29547,9.246.31944.31944,0,0,1,3.61483,9.56552Z"/><path class="28bb5146-57c4-414d-b8ca-7dded2e9ab80" d="M1.43618,10.90917a.52408.52408,0,1,1-.524-.52427A.52434.52434,0,0,1,1.43618,10.90917Z"/><path class="28bb5146-57c4-414d-b8ca-7dded2e9ab80" d="M3.29547,10.53123a.64574.64574,0,0,1-1.21357.30683.64645.64645,0,0,0,.87578-.87586A.64817.64817,0,0,1,3.29547,10.53123Z"/><path class="28bb5146-57c4-414d-b8ca-7dded2e9ab80" d="M1.84666,9.82394a.386.386,0,0,1-.02825.14666V9.972c-.00826.02112-.01842.04064-.02827.06048l-.00126.00159a.41059.41059,0,0,1-.71428-.01683.41062.41062,0,0,0,.60286-.36206.40465.40465,0,0,0-.04794-.19285A.412.412,0,0,1,1.84666,9.82394Z"/><path class="28bb5146-57c4-414d-b8ca-7dded2e9ab80" d="M2.24348,11.43394a.31909.31909,0,0,1-.61269.12524.30379.30379,0,0,0,.12412.02523.3193.3193,0,0,0,.31968-.31952.3104.3104,0,0,0-.02508-.12381A.31685.31685,0,0,1,2.24348,11.43394Z"/><path class="28bb5146-57c4-414d-b8ca-7dded2e9ab80" d="M3.61515,9.56489a.31915.31915,0,0,1-.61238.12666.3.3,0,0,0,.12381.02557.32039.32039,0,0,0,.31968-.31984.31636.31636,0,0,0-.02539-.12508A.3179.3179,0,0,1,3.61515,9.56489Z"/><path class="28bb5146-57c4-414d-b8ca-7dded2e9ab80" d="M1.43682,10.90853a.52471.52471,0,0,1-1.00277.217.5102.5102,0,0,0,.21809.04777.52473.52473,0,0,0,.52405-.52379.5153.5153,0,0,0-.04794-.21857A.52419.52419,0,0,1,1.43682,10.90853Z"/><path class="28bb5146-57c4-414d-b8ca-7dded2e9ab80" d="M2.93364,9.06093a.4687.4687,0,0,1-.00826.0873.49118.49118,0,0,1-.11841.24635.5042.5042,0,0,1-.83936-.131.483.483,0,0,0,.20127.04223A.50717.50717,0,0,0,2.63237,8.599.50424.50424,0,0,1,2.93364,9.06093Z"/><path class="28bb5146-57c4-414d-b8ca-7dded2e9ab80" d="M7.81458,6.03284l2.54095-2.54016c-.04953.06778-1.64666,2.24317-1.86348,2.45174a.4919.4919,0,0,1-.66763.10112Z"/><path class="28bb5146-57c4-414d-b8ca-7dded2e9ab80" d="M7.62729,2.86173,10.64251,0h.00159c-.10126.12555-1.7365,2.14063-2.29427,2.71665C8.04157,3.03506,7.75966,3.00825,7.62729,2.86173Z"/></g></g></g></g></svg>