<svg xmlns="http://www.w3.org/2000/svg" xmlns:xlink="http://www.w3.org/1999/xlink" viewBox="0 0 34.69444 26.34185"><defs><style>.a5087528-1265-4bb1-9c00-f10590bce4cf{isolation:isolate;}.e6d773f7-bd77-4cb3-b992-9f19787bef37{fill:url(#d7ab87c3-6dda-4400-a6ea-677be2e8c14c);}.\36 fabd685-8579-4d2f-a4b3-433af687141f{fill:#576065;opacity:0.2;mix-blend-mode:multiply;}.\37 3ae828c-c651-4d84-8195-6b67645dd09e{fill:url(#4845e7b5-6aa5-4e27-adcc-354baa3f6aa7);}.\31 e5b8091-d513-499d-874f-a18925e7a39b,.e1c88d26-c65c-4ede-b184-a34bad5c6d52{fill:#b3e4fa;}.\31 e5b8091-d513-499d-874f-a18925e7a39b,.c19800d5-928d-4ab5-a743-0955f2a5e255{opacity:0.6;}.\31 e5b8091-d513-499d-874f-a18925e7a39b,.\32 f68c279-6414-4fe9-b1da-fe0373a6715d,.\35 9ba8665-2bc0-4f79-bdcf-63540aed6127,.c19800d5-928d-4ab5-a743-0955f2a5e255{mix-blend-mode:screen;}.\35 9ba8665-2bc0-4f79-bdcf-63540aed6127{fill:#3c3c3b;}.\39 ae579d4-0da2-4414-ac43-b83a021674f0{fill:url(#5097d7fc-a85a-4e72-ac51-cf72583cf915);}.\32 f68c279-6414-4fe9-b1da-fe0373a6715d{fill:#8f9194;opacity:0.5;}.a3e8b6f5-5ae5-4df5-8bf9-cde857e593ba{fill:#22292c;}.\38 3c53fad-f2ac-4848-82d6-b0095227f07e{fill:#323a3d;}.c19800d5-928d-4ab5-a743-0955f2a5e255{fill:#668392;}</style><radialGradient id="d7ab87c3-6dda-4400-a6ea-677be2e8c14c" cx="10.42779" cy="-15.25457" r="42.36834" gradientUnits="userSpaceOnUse"><stop offset="0" stop-color="#e3f3fc"/><stop offset="0.21987" stop-color="#aeb7bd"/><stop offset="0.60595" stop-color="#8ca4af"/><stop offset="1" stop-color="#393b3d"/></radialGradient><radialGradient id="4845e7b5-6aa5-4e27-adcc-354baa3f6aa7" cx="27.55744" cy="19.58266" r="22.0435" xlink:href="#d7ab87c3-6dda-4400-a6ea-677be2e8c14c"/><radialGradient id="5097d7fc-a85a-4e72-ac51-cf72583cf915" cx="9.56067" cy="23.67832" r="7.52457" xlink:href="#d7ab87c3-6dda-4400-a6ea-677be2e8c14c"/></defs><title>rock3</title><g class="a5087528-1265-4bb1-9c00-f10590bce4cf"><g id="8bf0b900-8af0-41c2-be2e-a2b18c57a456" data-name="Layer 2"><g id="d47f82c3-eff9-4f13-801b-c3f5305c7087" data-name="Layer 1"><g id="5f8db275-a388-49b3-a9dc-c036ae97294f" data-name="rock3"><path class="e6d773f7-bd77-4cb3-b992-9f19787bef37" d="M1.59674,14.21721c-.2109.1777-.414.3652-.6084.5596a4.58458,4.58458,0,0,0-.84078,1.457A3.68468,3.68468,0,0,0,.335,18.77971a10.18145,10.18145,0,0,1,.8682,2.5889,6.8527,6.8527,0,0,0,.623,2.8506,4.21562,4.21562,0,0,0,3.8848,1.6835,28.21175,28.21175,0,0,0,4.084-.6738,19.21886,19.21886,0,0,1,4.4902-.2734,39.26761,39.26761,0,0,1,4.7949.6396,29.88547,29.88547,0,0,0,5.0098.7451,7.63972,7.63972,0,0,0,4.8887-1.4414,31.51455,31.51455,0,0,0,3.5908-3.5039,13.969,13.969,0,0,0,1.3164-1.4453c.1416-.2998.2754-.5976.3994-.8896a6.66307,6.66307,0,0,0,.3242-.9844,5.69663,5.69663,0,0,0,.0645-.6738c.0351-.916-.0186-1.8262.0205-2.7344-.0811-.5283-.1934-1.0547-.3223-1.5801-.2939-1.1865-.6738-2.3603-.959-3.5049-.6845-2.7441-1.09958-4.0947-3.8955-5.1582a21.34381,21.34381,0,0,1-4.11708-2.1211A13.06872,13.06872,0,0,0,21.90144.21921a11.99692,11.99692,0,0,0-4.0937-.085,23.89375,23.89375,0,0,0-4.1885.7764,15.79164,15.79164,0,0,0-3.543,1.4355A14.0146,14.0146,0,0,0,7.001,4.89881c-1.288,1.3125-1.3388,3.0752-1.7871,4.752C4.68074,11.64591,3.13684,12.91451,1.59674,14.21721Z"/><path class="6fabd685-8579-4d2f-a4b3-433af687141f" d="M34.69444,14.66741c-.0811-.5283-.1934-1.0547-.3223-1.5801-.2939-1.1865-.6738-2.3603-.959-3.5049-.6845-2.7441-1.09958-4.0947-3.8955-5.1582a21.34381,21.34381,0,0,1-4.11708-2.1211A13.06872,13.06872,0,0,0,21.90144.21921a11.99692,11.99692,0,0,0-4.0937-.085,23.89375,23.89375,0,0,0-4.1885.7764,15.79164,15.79164,0,0,0-3.543,1.4355A14.0146,14.0146,0,0,0,7.001,4.89881c-1.288,1.3125-1.3388,3.0752-1.7871,4.752-.5332,1.9951-2.0771,3.2637-3.6172,4.5664-.2109.1777-.414.3652-.6084.5596a4.58458,4.58458,0,0,0-.84078,1.457A3.68468,3.68468,0,0,0,.335,18.77971a10.18145,10.18145,0,0,1,.8682,2.5889,6.8527,6.8527,0,0,0,.623,2.8506,4.21562,4.21562,0,0,0,3.8848,1.6835,28.21175,28.21175,0,0,0,4.084-.6738,19.21886,19.21886,0,0,1,4.4902-.2734,39.26761,39.26761,0,0,1,4.7949.6396,29.88547,29.88547,0,0,0,5.0098.7451,7.63972,7.63972,0,0,0,4.8887-1.4414,31.51455,31.51455,0,0,0,3.5908-3.5039,13.969,13.969,0,0,0,1.3164-1.4453c.1416-.2998.2754-.5976.3994-.8896a6.66307,6.66307,0,0,0,.3242-.9844,5.69663,5.69663,0,0,0,.0645-.6738C34.709,16.48581,34.65534,15.57561,34.69444,14.66741Zm-2.0771-2.4131c-.25.0313-.9815-.1767-1.05078.2305a3.762,3.762,0,0,0-.03522.7265,12.40816,12.40816,0,0,1-.1719,1.9258.11743.11743,0,0,1-.2168.0586,12.87192,12.87192,0,0,1-.6757-1.1094c.05462.376.2129.7344.2421,1.1231a.11664.11664,0,0,1-.1162.1172,11.63577,11.63577,0,0,0-2.2412-.3623c-.5713.0605-.16208,1.4267-.16308,1.7812-.00482,1.2246-1.35452,1.751-1.832,2.7871-.04882.1075-.21972.0518-.21682-.0586a5.984,5.984,0,0,1,1.0176-2.916,5.2742,5.2742,0,0,0-1.7227,1.5166.1181.1181,0,0,1-.1943-.0517,3.27979,3.27979,0,0,1-.2012-1.1446,8.31183,8.31183,0,0,1-.6699,1.208.11829.11829,0,0,1-.2012,0,2.61028,2.61028,0,0,1-.3496-.7763c-.207.2197-.4062.4668-.624.6562-.2266.1973-.0605.418-.04588.6504.02248.3692-.334.5889-.61432.7735a1.1166,1.1166,0,0,1-1.1962.2089,1.33613,1.33613,0,0,1-.5704-.456c.00392.0517.00492.1015.00392.1494a.1176.1176,0,0,1-.14842.1123,1.85253,1.85253,0,0,0-.26558-.0742,13.90791,13.90791,0,0,1,.23338,1.3721.11529.11529,0,0,1-.1172.1152,11.25188,11.25188,0,0,1-1.4111-.2256c.58.3193,1.3222.7598,1.1132,1.334a5.30576,5.30576,0,0,1-.414.6474,3.20209,3.20209,0,0,1-.3164.6104,1.19209,1.19209,0,0,1-1.0645.29,21.034,21.034,0,0,1-3.8808-.956c-.7373-.2334-1.4727-.4736-2.22458-.6553-.25692-.0615-.67192-.0996-.795-.3877a2.06989,2.06989,0,0,1,.00778-1.3154c.0518-.2832.1446-.6992-.2656-.8106a1.73355,1.73355,0,0,1-.3115-.1005,1.6718,1.6718,0,0,1-.4365-.2862c-.49418-.4697.5586-.9355.6123-1.332.083-.5947-.8526-.9317-.9199-1.5176a1.37168,1.37168,0,0,1-.004-.3896c.02842-.1993.1465-.4004-.0019-.3926-.2061.0107-.4141.0244-.6221.0332-.2119.0078-.7148.1055-.89158-.0723-.206-.206-.13082-.4785-.17092-.7148a1.56833,1.56833,0,0,0-.5644.0254,3.974,3.974,0,0,0-2.6416,1.8545,1.14789,1.14789,0,0,1-1.0498.6699,7.70363,7.70363,0,0,0,.3818,1.7471.11527.11527,0,0,1-.0195.1396c-.1602.1523-.3487.2871-.4951.4521a.39779.39779,0,0,0-.1319.3194c.2149.2256.75.3027,1.0127.4004a1.34674,1.34674,0,0,1,.1719.0849,1.828,1.828,0,0,1,.4307.1524,2.90113,2.90113,0,0,0,.3925-.085.11789.11789,0,0,1,.1475.1123,1.18653,1.18653,0,0,0-.0147.2813,7.29291,7.29291,0,0,0,.9512-.1289.11837.11837,0,0,1,.14362.1435,3.54739,3.54739,0,0,1-.91212,1.8526,8.44614,8.44614,0,0,1-1.3096,1.4687.11668.11668,0,0,1-.1709-.0683,6.53459,6.53459,0,0,0-.9277-2.8643c-.3096-.4219-1.1202-1.3477-1.6612-.7041a5.24632,5.24632,0,0,0-.5234.8975.11755.11755,0,0,1-.2012,0,3.87229,3.87229,0,0,1-.3096-1.2168c-.0791-.626-.2255-1.2227-.3584-1.8379a2.926,2.926,0,0,1,.24712-2.4981,5.1841,5.1841,0,0,1,.47658-.5244,6.05708,6.05708,0,0,1,.9111-.7871c.1026-.0801.2041-.1602.3027-.2373a5.03589,5.03589,0,0,1,.7149-.5244,6.96434,6.96434,0,0,0,1.4521-1.7285,13.89593,13.89593,0,0,0,.7842-2.2666A11.67043,11.67043,0,0,1,6.919,5.97891a6.609,6.609,0,0,1,1.917-1.9668,12.86532,12.86532,0,0,1,3.9326-1.9814,12.96007,12.96007,0,0,1,4.4893-.8506.11675.11675,0,0,1,.0302.2285,19.59324,19.59324,0,0,0-2.3378.9522,5.74829,5.74829,0,0,0-2.0205,1.9707c-.2354.3642-.418.7373-.6211,1.1162-.0606.1133-.1866.4023-.3321.4424a.81315.81315,0,0,0-.61908.3876,3.51078,3.51078,0,0,1-.19732.3047c-.2822.3584-1,1.1123-.165,1.4024.3418.1191.7929.2773.7998.7197a4.15854,4.15854,0,0,1-.14748.9004,3.24794,3.24794,0,0,0-.00492.9824c.0372.4776.04692.9571-.3896,1.2549-.48148.3301-1.1816.4502-1.5781.8965.4707.1894.9638.3008,1.4482.4443.6397.1123,1.2969.1641,1.9375.2881a.11642.11642,0,0,1,.0811.1426c-.1328.376.62982.3447.7656.664a1.07361,1.07361,0,0,1-.0703.7432c.6484-.1435,1.4267-.331,1.5166.5791.0293.3037.0058.6035.0166.9082.0029.0762-.0039.6807.2539.3858a1.02173,1.02173,0,0,0,.1816-.2696,2.25053,2.25053,0,0,1,.503-.9199c.2636-.2158.6962-.1133,1-.0644.2314.0371.5771-.0293.7636.1484.6407.6123.1826,1.8525.2481,2.6719A9.97408,9.97408,0,0,0,19.751,16.099l.0137-.0205a2.18168,2.18168,0,0,1,1.00882-1.1142,7.47023,7.47023,0,0,1,2.01858-1.2041,2.36933,2.36933,0,0,1,1.7617.4804c-.0108-.3046-.0928-.6045-.11328-.9101a.11827.11827,0,0,1,.14838-.1133c.377.1152,1.9873.6572,2.0909.0215.0566-.335.122-.9541-.1622-1.2149-.2089-.1904-.4785-.2793-.6875-.4638-.7255-.6377.3477-2.0537.56642-2.7422a.11846.11846,0,0,1,.11328-.085,1.22042,1.22042,0,0,0,1.22372-.5117c.19718-.3047.372-.6211.59078-.9121a4.61282,4.61282,0,0,0,.331-.417c.1455-.251-.4004-.3125-.5293-.3486a4.9195,4.9195,0,0,1-.9267-.3242c-1.2744-.6582.6445-1.3555,1.3183-1.3174a1.11687,1.11687,0,0,1,.5948.2832,8.32372,8.32372,0,0,0,.9922.7285,5.67811,5.67811,0,0,1,1.6435,1.206c.44242.5596.3037,1.3936.3701,2.0518.1016,1.0078.5449,1.9463.61432,2.9658A.11845.11845,0,0,1,32.61734,12.25431Z"/><path class="73ae828c-c651-4d84-8195-6b67645dd09e" d="M27.20324,7.21331a6.12544,6.12544,0,0,0-1.3731-.7695c-.2695-.127-.5459-.2354-.8203-.3526-.23528-.1015-.3369-.872-.4384-1.0918a2.02411,2.02411,0,0,0-.46588-.4824c-.41012-.3867.09088-1.1631.33208-1.4932a1.706,1.706,0,0,0,.42092-.7421c.00778-.0684-.07232-.0743-.11622-.0567-.5586.2139-1.5313,1.2559-2.1016.9385a5.084,5.084,0,0,0-1.2188-.5117c-.4336-.1172-.875-.1699-.9892-.666-.0821-.3565-.4278-.1348-.5303.0761-.0137.0293-.1377.2823-.165.3506h-.0147a2.51574,2.51574,0,0,1-.1494-.5117c-.0547-.2305.0127-.5527-.2383-.6807a.11311.11311,0,0,0-.1064.0176.89991.89991,0,0,0-.3174.4893,4.8916,4.8916,0,0,0-.1494.5341.31373.31373,0,0,1-.1514.1758,13.05707,13.05707,0,0,0-1.457.2032h-.002c-.37988-.0098-.6406-.1016-.9668.1162-.2275.1523-.3974-.2588-.6435-.3096a.15309.15309,0,0,0-.127.0654,1.69464,1.69464,0,0,0-.2871.7051c-.0664.0273-.1318.0576-.1963.0879-.0781-.0645-.1523-.1289-.2256-.1963a3.03963,3.03963,0,0,0-.4218-.374.0451.0451,0,0,1-.0137-.0098c-.0723-.0586-.1943.0498-.1768.1309a6.61815,6.61815,0,0,0,.2354.7793,4.43171,4.43171,0,0,0-1.7031,1.9023,5.36008,5.36008,0,0,0-.419,1.3682,5.18459,5.18459,0,0,0-1.5615.1152c-.0596.0371.9814.6563,1.418,1.0283.0224.0196.04.0401.0586.0596a6.96434,6.96434,0,0,0,.0878.9658,1.92228,1.92228,0,0,0-.1084.7989c.04792.2294.4463.3339.1026.6201a.83993.83993,0,0,0-.2764.334c-.0908.3027.17872.4804.4365.581-.538.4043-1.3105.6328-1.6611,1.1856-.26268.413,2.4649.5224,2.9746.456.5186-.0693.2979.1934.34572.4443.02438.125.30178.0909.375.0889.16308-.0029-.122.542-.13572.6533a.06971.06971,0,0,0,.04.0713c.2363.1123.5098-.0166.7471-.0869.3799-.1133.39162.0498.4805.417a6.27818,6.27818,0,0,0,.1464.6758c.0264.0752.1182.0459.169.0185a3.38531,3.38531,0,0,0,.915-.7929,5.81933,5.81933,0,0,0,2.0772.0625c.0283.2158.0351.4316.0439.5009.0391.3477.0703.6944.1211,1.0411.01952.1357.2276-.0225.2539-.0713a5.90612,5.90612,0,0,0,.4141-1.2354.93392.93392,0,0,1,.3047-.459c.3203-.082.6357-.1777.9424-.2783a5.86634,5.86634,0,0,0,.81642-.3369c.04488-.0117.08878-.0225.13178-.0342a1.93051,1.93051,0,0,0,.9697-.5166,1.68646,1.68646,0,0,0,.2198-.3301c.0673-.0576.1328-.1152.1972-.1757a2.79805,2.79805,0,0,1,.7383.4755c.0957.0655.2598-.1084.2305-.2021-.0938-.3066-.2159-.6094-.2969-.9199.6807.2597,1.3232.6054,1.9824.9052.0889.0411.2803-.0996.2285-.2021a3.15949,3.15949,0,0,0-.94428-.9697,4.00976,4.00976,0,0,1-.667-.5498.18086.18086,0,0,1-.03812-.0889c.0235-.041.0479-.0811.0703-.123A4.15654,4.15654,0,0,0,24.754,10.6a4.79955,4.79955,0,0,0,.3086-.748c.1836-.3086.54292-.6758.4795-1.0371a1.28926,1.28926,0,0,0-.254-.2383c.002-.0479.0059-.0967.0069-.1446a5.424,5.424,0,0,1,.959-.0869c.0722-.0068.2431-.1513.1582-.2314a4.74363,4.74363,0,0,0-1.0528-.6983c.5537-.0361,1.0948.0127,1.6602.0235C27.09194,7.44081,27.30284,7.29831,27.20324,7.21331Z"/><path class="1e5b8091-d513-499d-874f-a18925e7a39b" d="M24.088,2.61761a6.93681,6.93681,0,0,1-.6416.4101,1.75651,1.75651,0,0,1-.3487.1456.63856.63856,0,0,1-.36518.0068l-.086-.0342L22.56264,3.1l-.168-.0918c-.1133-.0576-.2295-.1113-.3447-.165-.1201-.0459-.2373-.0987-.35938-.1377-.12112-.0371-.24412-.0801-.36622-.1104-.124-.0322-.2471-.0634-.3643-.1064a.88134.88134,0,0,1-.3144-.1836.65054.65054,0,0,1-.1719-.3115.5691.5691,0,0,0-.0313-.0957.2463.2463,0,0,0-.0654-.0918.21868.21868,0,0,0-.2178-.0303.56111.56111,0,0,0-.2968.2754l-.12988.2705a.86367.86367,0,0,1-.03032-.0859c-.0156-.0538-.0312-.1075-.043-.1641l-.039-.1699a1.2168,1.2168,0,0,1-.0235-.166c-.0058-.0567-.0087-.1163-.0175-.1748a.43667.43667,0,0,0-.01568-.0909.38255.38255,0,0,0-.02732-.0898.34951.34951,0,0,0-.0469-.0859.27924.27924,0,0,0-.0674-.0723l-.041-.0283-.0205-.0137-.00288-.002v-.0009c-.00492-.001.00878.0039-.00982-.0039l-.0019-.001-.0049-.001-.0098-.0019a.13538.13538,0,0,0-.0683.0009.1678.1678,0,0,0-.0528.0215c-.0342.0215-.0488.0352-.0752.0547a.76535.76535,0,0,0-.06828.0693.74242.74242,0,0,0-.10162.1543,1.70885,1.70885,0,0,0-.0732.1641c-.0108.0283-.0205.0518-.0323.084l-.0263.084c-.0362.1103-.0684.2216-.0957.3359l-.0225.084-.0049.0215c.003-.0049-.0039.0097-.0068.0146a.27527.27527,0,0,1-.0166.0362.32746.32746,0,0,1-.0957.0888l-.7197.0772-.72168.1191-.16022-.0088-.165-.0137c-.0567-.0048-.1143-.0048-.1729-.0068a1.01208,1.01208,0,0,0-.1767.0195.77381.77381,0,0,0-.1719.0528,1.65327,1.65327,0,0,0-.1514.081l-.0371.0196-.0195.0019a.12541.12541,0,0,1-.0527-.0058.40779.40779,0,0,1-.1192-.0801,1.57947,1.57947,0,0,0-.2715-.2178.20087.20087,0,0,0-.2207-.0088.23989.23989,0,0,0-.0771.0762l-.0469.0693-.0469.0694c-.0136.0263-.0254.0546-.0371.082a1.13777,1.13777,0,0,0-.0674.165c-.0341.0977-.0595.1963-.0839.295l-.12988.0595L14.75014,3.06l.0058.0078-.1025-.1084c-.0352-.0352-.0723-.0645-.1074-.0967-.0362-.0322-.0723-.0625-.1094-.0918l-.0557-.0459-.0381-.0273-.042-.0254.0235.0117-.0127-.0107-.0137-.0098H14.295l-.0029-.002-.0079-.0039-.0175-.0078a.17391.17391,0,0,0-.0391-.0068.15054.15054,0,0,0-.0615.0097.17482.17482,0,0,0-.0449.0225.21961.21961,0,0,0-.0674.0703.1655.1655,0,0,0-.0274.1065.1479.1479,0,0,0,.0088.0439l.0088.0332.0176.0664.0351.1328a2.64235,2.64235,0,0,0,.0782.2657l.0713.2129-.1661.1123c-.0722.0449-.1367.1015-.205.1523a2.405,2.405,0,0,0-.1973.1611c-.0625.0576-.1299.1104-.1885.1719l-.1787.1826-.167.1934c-.0576.0644-.1045.1347-.1553.2031-.04978.0684-.1015.1377-.1445.2109l-.1328.2188-.1172.2266c-.042.0742-.07128.1582-.1045.2334-.0312.0771-.0683.1513-.0937.2343l-.083.2442c-.0264.081-.045.1631-.0674.2451s-.044.1641-.0586.248l-.03908.1905c-.26462,0-.53022-.001-.79782.0097-.1436.0049-.2881.0147-.4326.0332a.74276.74276,0,0,0-.1094.0196.62224.62224,0,0,0-.1123.0283l-.0586.0234-.0147.0078-.0078.003-.0029.0009-.002.001c-.0117.0127.0254-.0273-.0263.0283h0l-.001.0039-.0039.0147a.08348.08348,0,0,0,.0088.0576.14256.14256,0,0,0,.0166.0225.7406.7406,0,0,0,.0918.0771c.2344.1709.4736.3213.708.4824.11812.0801.2344.1602.3486.2432.0567.041.1133.084.169.127l.082.0654c.0156.0127.0351.0332.0547.0527l.0263.4619.0596.4707a2.51512,2.51512,0,0,0-.11808.6944.62057.62057,0,0,0,.00968.0947l.0039.0244c.0039.0186.0049.0166.0069.0254a.2121.2121,0,0,0,.01852.0469.67175.67175,0,0,0,.11328.1592.45953.45953,0,0,1,.0918.123.106.106,0,0,1-.0147.1094.52149.52149,0,0,1-.10738.1123c-.04392.0371-.08792.0791-.13182.123a.63212.63212,0,0,0-.0606.0733.29575.29575,0,0,0-.0527.082.34246.34246,0,0,0-.0381.0996l-.0146.086a1.04119,1.04119,0,0,0,.0107.1093.58993.58993,0,0,0,.03612.0957.54361.54361,0,0,0,.125.1514.41533.41533,0,0,0,.07518.0566.4891.4891,0,0,0,.0801.0489.752.752,0,0,0,.0684.0342c-.0518.0371-.1026.0722-.1563.1054-.084.0488-.165.1016-.2509.1485-.17.0966-.3438.1875-.5108.2939a2.35911,2.35911,0,0,0-.2471.1689,1.97141,1.97141,0,0,0-.2275.1963.75278.75278,0,0,0-.0996.1153c-.0322.0439-.0576.0722-.0967.1289l-.0137.0332a.27292.27292,0,0,0-.0039.0644.17848.17848,0,0,0,.0537.085.45344.45344,0,0,0,.1397.085,2.76489,2.76489,0,0,0,.581.1416c.19542.0302.3917.0507.587.0673q.58875.0498,1.1777.0508a4.26832,4.26832,0,0,0,.5908-.0312c.08692-.0049.2041-.0039.2237.0693a1.86828,1.86828,0,0,1-.003.2842.30579.30579,0,0,0,.0098.081l.0058.0176a.15155.15155,0,0,0,.0147.0225.127.127,0,0,0,.0352.0303.36244.36244,0,0,0,.1542.0361,1.2966,1.2966,0,0,0,.1504-.0039l.0352-.002c-.0039,0,.0273.002.0225.0069a.10988.10988,0,0,1,.0078.0459,3.64332,3.64332,0,0,1-.1778.5546.21521.21521,0,0,0-.0039.0235l.001.0185a.08779.08779,0,0,0,.0195.043.09033.09033,0,0,0,.0381.0264l.0342.0117a.52983.52983,0,0,0,.1484.0293,1.0196,1.0196,0,0,0,.294-.0469l.2803-.0898a.4278.4278,0,0,1,.2802-.0166c.086.0429.1123.1504.1387.2402.0244.0957.0488.1895.0684.2861a4.26617,4.26617,0,0,0,.1298.5733,4.42234,4.42234,0,0,1-.121-.5752c-.0186-.0957-.0401-.1924-.0625-.2861a.37009.37009,0,0,0-.1456-.2549.44892.44892,0,0,0-.2949.0097l-.28028.086a.98951.98951,0,0,1-.28612.041.472.472,0,0,1-.1377-.0293c-.0527-.0156-.07518-.0322-.0644-.082a3.40293,3.40293,0,0,0,.1875-.5596.21927.21927,0,0,0-.003-.043.0648.0648,0,0,0-.02928-.0478c-.02142-.0127-.01852-.0078-.04492-.0127l-.03808.0019c-.04882.002-.09662.003-.14452.001a.31742.31742,0,0,1-.1289-.0312c-.0361-.0166-.0361-.0586-.0381-.1075a1.5846,1.5846,0,0,0,.0059-.3007.15616.15616,0,0,0-.1319-.1065.55738.55738,0,0,0-.1552-.0088,4.33149,4.33149,0,0,1-.584.0225c-.3907-.0039-.78228-.0244-1.1709-.0606-.19438-.0195-.3887-.041-.5811-.0722a2.68646,2.68646,0,0,1-.5576-.1397.41088.41088,0,0,1-.1103-.0664.08883.08883,0,0,1-.0245-.0351c.003-.0049-.00188-.002-.00188-.0098l.01458-.0342c.0205-.0225.0557-.0693.083-.1045a.6875.6875,0,0,1,.0928-.1055,1.81376,1.81376,0,0,1,.2188-.1855,2.5024,2.5024,0,0,1,.2402-.1611c.1641-.1026.3379-.1924.5098-.2871.0859-.0469.1709-.0996.25582-.1495.086-.0507.167-.1103.25-.165a.05084.05084,0,0,0,.02048-.0244.05611.05611,0,0,0-.0293-.0732l-.0048-.002a1.24759,1.24759,0,0,1-.15138-.0723.433.433,0,0,1-.07032-.0429.29907.29907,0,0,1-.0625-.0489.40341.40341,0,0,1-.0967-.1172c-.0068-.0224-.02148-.0449-.0254-.0664-.001-.0224-.0049-.042-.0078-.0644l.0146-.0869c-.00088-.0147.0186-.041.0264-.0625a.22262.22262,0,0,1,.042-.0635.44517.44517,0,0,1,.0518-.0615,1.42147,1.42147,0,0,1,.124-.1153.63275.63275,0,0,0,.1318-.1406.23153.23153,0,0,0,.0235-.2217.56651.56651,0,0,0-.11238-.1591.61586.61586,0,0,1-.09172-.1241.094.094,0,0,1-.0127-.0351.0852.0852,0,0,1-.0049-.0147l-.003-.0205a.5449.5449,0,0,1-.0078-.0791,2.50724,2.50724,0,0,1,.1192-.6689.062.062,0,0,0,.00092-.0235v-.0019l-.05852-.4776-.0264-.4785v-.0029a.07815.07815,0,0,0-.0195-.0439c-.0284-.0254-.0459-.0489-.0801-.0772l-.085-.0684c-.0566-.0449-.1142-.0878-.1728-.1298-.1143-.084-.2325-.167-.3506-.2471-.2344-.1611-.4766-.3154-.7012-.4805l-.0137-.0107c.0225-.0059.0489-.0098.0713-.0156a.80014.80014,0,0,1,.1016-.0176c.1357-.0176.2773-.0254.418-.0313.2832-.0097.5664-.0078.8515-.0068a.07183.07183,0,0,0,.06942-.0566v-.001l.04978-.2442a2.45423,2.45423,0,0,1,.0576-.2412c.0224-.0801.041-.1611.0674-.2392l.0791-.2325c.0234-.0781.0615-.1543.0927-.2314a2.1892,2.1892,0,0,1,.1016-.2266l.1123-.2207.1279-.2109a2.27638,2.27638,0,0,1,.1397-.2051,2.20814,2.20814,0,0,1,.1494-.1963l.1601-.1894.1739-.1758c.0556-.0606.1211-.1113.1816-.168a2.44616,2.44616,0,0,1,.1914-.1572c.06552-.0498.128-.1045.1992-.1484l.2061-.1387h0a.07055.07055,0,0,0,.0264-.0811l-.086-.2568q-.04527-.1275-.0791-.2607l-.03508-.1329-.01762-.0664-.0098-.0332-.0049-.0234a.04067.04067,0,0,1,.0088-.0225.088.088,0,0,1,.0274-.0293c.0078-.0078.0283-.0107.0205-.0107l-.0049-.0049.0146.0059.00692.0049h.001l.00778.0058.0244.0127.0146.0156.0186.0147.0547.0439c.0361.0283.0722.0576.1054.0879.0342.0313.0713.0606.1016.0918l.0928.0957.0068.0078.2295.1983a.06071.06071,0,0,0,.0664.0097l.002-.0019.1943-.0869.001-.001a.06443.06443,0,0,0,.03712-.0449c.02638-.1065.05268-.2139.08688-.3155a1.24152,1.24152,0,0,1,.0576-.1455c.0108-.0244.0196-.0468.0323-.0703l.0458-.0703L15.459,2.56a.14.14,0,0,1,.0401-.0391c.0078-.0049.0058-.0019.0078-.0078l.01762-.002h.00878a.23446.23446,0,0,1,.0595.0225,1.51292,1.51292,0,0,1,.2481.2012.50253.50253,0,0,0,.1582.1025.26363.26363,0,0,0,.1113.0127.40783.40783,0,0,0,.0615-.0166l.0371-.0195a1.53512,1.53512,0,0,1,.1426-.0772.71757.71757,0,0,1,.1475-.0449.88714.88714,0,0,1,.1553-.0176c.0527.002.1064.001.16112.0059l.168.0127.16988.0088.0078-.001.0039-.001.7227-.124.7275-.084h.0059a.052.052,0,0,0,.0185-.0088.43477.43477,0,0,0,.1455-.1416.35188.35188,0,0,0,.0186-.042.1773.1773,0,0,0,.00972-.0273l.00588-.0205.0205-.083c.0254-.1123.05662-.2246.0928-.335l.0244-.083.0293-.0791c.0215-.0527.043-.1055.0674-.1553a.75268.75268,0,0,1,.0879-.1357.56689.56689,0,0,1,.0537-.0547c.0195-.0156.0488-.04.0635-.0488a.17221.17221,0,0,1,.0283-.0127c.0058-.002.0029,0,.0058-.001,0-.002.002-.0039.0118,0l.01072.002h0l.01558.0107.0303.0215c.0225.0117.0342.0351.0508.0537a.20254.20254,0,0,1,.0361.0654.34722.34722,0,0,1,.0244.0762.50562.50562,0,0,1,.0147.0801c.0088.0556.0117.1133.0185.1728a1.38216,1.38216,0,0,0,.0264.1768l.04.1699c.0137.0566.0303.1133.0479.1699a1.53807,1.53807,0,0,0,.0644.1699.03841.03841,0,0,0,.0323.0225h.0048l.01182.001a.04217.04217,0,0,0,.042-.0244l.16208-.3467a.48746.48746,0,0,1,.248-.2344.13913.13913,0,0,1,.1426.0156.17548.17548,0,0,1,.0439.0606c.0118.0215.0196.0605.0293.0849a.70679.70679,0,0,0,.1953.3458.94748.94748,0,0,0,.3409.1943c.122.042.248.0713.3701.1015.126.0293.2441.0694.3662.1036.1221.0361.2373.0879.3564.1298.1153.0528.2315.1026.3448.1602l.1689.0879.085.0439.0927.0362a.66781.66781,0,0,0,.38382-.0117,1.76588,1.76588,0,0,0,.35258-.1534,6.86522,6.86522,0,0,0,.6377-.4218,3.745,3.745,0,0,1,.6465-.4024A3.6372,3.6372,0,0,0,24.088,2.61761Z"/><path class="59ba8665-2bc0-4f79-bdcf-63540aed6127" d="M24.24524,10.41451a13.175,13.175,0,0,0-2.6914-1.0196,16.25811,16.25811,0,0,1-1.77928-.6748,1.02325,1.02325,0,0,0,.06638-.205c1.206.0195,2.4189-.0625,3.6221-.086.038-.001.0996-.083.0459-.084-1.2139-.0185-2.4297-.0468-3.6436-.0527-.002-.0244-.0049-.0479-.00778-.0713.31248-.0908.62688-.166.84568-.2559.6435-.2617,1.2842-.5312,1.9141-.8232.03322-.0146.0546-.085.0019-.0635a24.65628,24.65628,0,0,1-2.666,1.0088c-.0371.0117-.0772.0215-.1192.0322a.682.682,0,0,0-.0546-.1259,30.28951,30.28951,0,0,0,3.6435-3.0352c.0449-.0469-.0166-.0801-.0566-.042-.7061.6592-1.5655,1.2178-2.3233,1.8233-.4043.3232-.85148.6045-1.2783.9101.0547-.0732.1065-.1426.1592-.206.6484-.793,1.3144-1.5713,1.9277-2.3916.0391-.0528-.0234-.0616-.0566-.0264-.7188.7646-1.4522,1.5137-2.1699,2.2793-.0284.0303-.0557.0615-.084.0918.124-.2529.2461-.5068.376-.7568.3623-.7032.8408-1.3457,1.1933-2.0567.0264-.0527-.0478-.039-.0664-.0058-.3682.6357-.8232,1.2236-1.2266,1.8359-.0576.0869-.1132.1758-.16688.2646.12008-.3974.24208-.7949.37008-1.1904.2978-.9228.6884-1.8135.956-2.7451.0186-.0645-.0752-.0225-.0888.0146-.5704,1.4913-1.2891,2.918-1.7735,4.4356-.00678-.2529-.0117-.5049-.00678-.7529.01758-.8174.06438-1.6358.05658-2.4522-.001-.0488-.0752-.0019-.0781.0293-.06048.8389-.1514,1.6729-.208,2.5117-.02148.3213-.0371.6426-.0508.9649a1.15039,1.15039,0,0,0-.1162.0019c-.0654-.2265-.1367-.4482-.18848-.6562-.22172-.8741-.37992-1.7588-.66112-2.6192-.0127-.04-.084.0127-.0742.0469.19632.8106.3047,1.6357.4326,2.46.0254.166.0605.334.09672.5019-.53322-1.0146-1.06942-2.0234-1.67682-3-.0244-.0381-.1133.0322-.0928.0694.5772,1.0683,1.0508,2.206,1.60062,3.2929-.331-.2695-.67192-.5293-.98532-.8095-.6641-.5918-1.2832-1.2354-1.9326-1.8438-.0264-.0254-.0879.0303-.0635.0566.6015.6543,1.1845,1.3213,1.8213,1.9415.0693.0683.5654.4853,1.0175.8544-.0166.0166-.0302.0352-.0478.0528-1.04-.7422-2.2109-1.3477-3.2617-2.044-.0264-.0175-.08788.043-.0615.0645.9697.7441,1.97162,1.4512,2.9785,2.1504a4.11263,4.11263,0,0,1-.4395-.1739,11.84777,11.84777,0,0,1-1.9609-.9794c-.0342-.0245-.10648.038-.0752.0664a7.621,7.621,0,0,0,1.4609.8818c.3272.1699.7266.3086,1.0977.4736a1.41348,1.41348,0,0,0-.042.1807c-1.1924-.2178-2.3897-.4092-3.5713-.6856-.0254-.0048-.0713.0518-.04.0606a32.95887,32.95887,0,0,0,3.5.8506c-.5284.0683-1.0684.208-1.5713.2871-1.0059.1553-2.0039.3418-3.0049.5156-.02638.0039-.0615.0615-.0166.0567,1.5654-.1973,3.1299-.4375,4.69722-.6387-.27342.1103-.54882.2178-.82222.3281-.5313.2129-1.0557.4434-1.5742.6836a3.60314,3.60314,0,0,1-1.2149.5293c-.0283,0-.0801.0605-.0351.0654a1.277,1.277,0,0,0,.6132-.1543c.5586-.2021,1.1153-.4062,1.6758-.5976.5176-.1739,1.0293-.3643,1.5391-.5547a.83082.83082,0,0,0,.0879.0879c-1.4571.9824-2.8418,2.0888-4.3633,2.9697-.0332.0195-.02828.0684.0146.0459,1.5948-.835,3.03812-1.9277,4.5557-2.8877-.1611.1592-.3232.3184-.4785.4805a15.60235,15.60235,0,0,1-1.3096,1.4707c-.0361.0303-.0146.083.0283.0517a11.2674,11.2674,0,0,0,1.28322-1.2812c.13188-.1299.27538-.2539.42088-.3818-.0283.0566-.0498.1015-.0615.123-.25.4795-.4785.9678-.73038,1.4453-.41612.7881-.69242,1.6475-1.126,2.4229-.03322.0586.05078.041.07318.0068.4473-.6846.7637-1.458,1.1719-2.167.3105-.5361.666-1.0781.9814-1.6309-.3789,1.4209-.6298,2.9034-.8779,4.3311-.0098.0537.06542.0225.0733-.0127.3779-1.5928.78712-3.1816,1.20312-4.7666l.041-.0107c.24318,1.5703.51268,3.1396.63568,4.7246.0039.0439.07032.0049.07032-.0264-.02922-1.0908-.14452-2.1719-.27052-3.2549-.0507-.4365-.10248-.872-.1689-1.3076-.0107-.0674-.0195-.1387-.0283-.21.0664.1065.1318.211.1992.3116.3027.4463.5976.8984.8994,1.3466.0195.0274.082-.0234.0684-.0507-.2237-.4366-.4707-.8643-.7032-1.2979-.07908-.1484-.1728-.291-.2685-.4346.0098-.0078.0205-.0136.0303-.0205.1914.209.3925.4112.5712.625a11.23633,11.23633,0,0,0,1.4366,1.5625c.0254.0215.0859-.0302.0605-.0537a13.55507,13.55507,0,0,1-1.1953-1.4863q-.28125-.3531-.5566-.71a19.56943,19.56943,0,0,0,1.9355,1.3428c.0264.0156.0879-.042.0606-.0654-.52738-.4395-1.0606-.8819-1.5987-1.3174a43.05371,43.05371,0,0,1,4.1797,1.3203C24.21494,10.52291,24.293,10.44181,24.24524,10.41451Z"/><path class="9ae579d4-0da2-4414-ac43-b83a021674f0" d="M10.79014,17.44771a2.33206,2.33206,0,0,0-.5234-.293c-.1026-.0488-.208-.0898-.3116-.1348-.0908-.038-.1289-.332-.1679-.416a.77546.77546,0,0,0-.1778-.1845c-.1562-.1465.0342-.4434.127-.5684a.65187.65187,0,0,0,.16012-.2832c.002-.0264-.02732-.0283-.04492-.0215-.2129.0811-.583.4785-.8008.3574a1.90737,1.90737,0,0,0-.4648-.1953c-.165-.0449-.334-.0654-.377-.2539-.0312-.1357-.163-.0508-.2021.0293-.0049.0107-.0527.1074-.0635.1338l-.0058-.001a.98547.98547,0,0,1-.0567-.1943c-.0205-.0879.0059-.211-.0898-.2598a.04668.04668,0,0,0-.041.0069.33813.33813,0,0,0-.1211.1865,1.84257,1.84257,0,0,0-.0567.2031.12346.12346,0,0,1-.0576.0674,5.08458,5.08458,0,0,0-.5557.0771h-.0009c-.1455-.0029-.2451-.0381-.3682.045-.0879.0576-.1523-.0987-.2461-.1172-.0176-.0049-.0381.0107-.0478.0234a.63322.63322,0,0,0-.1094.2695c-.0254.0108-.0508.0215-.0752.0332-.0303-.0234-.0586-.0488-.08588-.0742a1.10845,1.10845,0,0,0-.16122-.1426l-.00578-.0039c-.02742-.0234-.07332.0176-.06642.0489a2.52687,2.52687,0,0,0,.0888.2988,1.69316,1.69316,0,0,0-.64938.7246,2.01688,2.01688,0,0,0-.15922.5215,1.96209,1.96209,0,0,0-.5957.0439c-.0224.0137.374.251.541.3916.0088.0078.0147.0157.0225.0235a2.91514,2.91514,0,0,0,.0322.3681.75076.75076,0,0,0-.04.3037c.0185.0879.1699.1289.0391.2364a.321.321,0,0,0-.1055.1289c-.0342.1142.0683.1826.166.2217-.2041.1533-.499.2412-.6328.4511-.10058.1573.93942.1992,1.1338.1739.1982-.0264.1142.0742.1328.1699.00782.0478.1142.0342.1426.0342.0625-.001-.0469.205-.05278.248a.02614.02614,0,0,0,.01568.0273c.0898.043.19432-.0058.2851-.0341.1445-.042.1494.0205.1836.1601a2.0237,2.0237,0,0,0,.0547.2569c.0107.0302.04592.0185.0654.0078a1.28014,1.28014,0,0,0,.3487-.3018,2.19983,2.19983,0,0,0,.7919.0235c.0108.082.0127.165.0167.1914.0156.1318.0273.2646.0458.3964.0079.0528.087-.0087.0967-.0273a2.14994,2.14994,0,0,0,.1582-.4707.34958.34958,0,0,1,.1162-.1748c.1221-.0313.2422-.0674.3594-.1065a2.252,2.252,0,0,0,.3106-.1289c.0175-.0039.0351-.0078.0517-.0127a.75169.75169,0,0,0,.3692-.1962.63524.63524,0,0,0,.0839-.127c.0254-.0215.0508-.0439.0752-.0664a1.05924,1.05924,0,0,1,.28132.1816c.03608.0245.09858-.042.08788-.0781-.0361-.1162-.083-.2324-.1133-.3506.2598.0987.5049.2315.7559.3457.0341.0147.1064-.0371.0869-.0771a1.18334,1.18334,0,0,0-.36038-.3701,1.44106,1.44106,0,0,1-.25292-.209.06493.06493,0,0,1-.0156-.0342l.0273-.0469a1.58525,1.58525,0,0,0,.07622-.165,1.93894,1.93894,0,0,0,.11718-.2842c.0693-.1182.207-.2588.1816-.3955-.0019-.0146-.0566-.0576-.0967-.0918.001-.0176.003-.0361.003-.0557a2.20891,2.20891,0,0,1,.3662-.0322c.0273-.0029.09272-.0576.0595-.0879a1.77816,1.77816,0,0,0-.4003-.2666c.2109-.0137.4169.0049.6328.0098C10.74814,17.53561,10.82924,17.47991,10.79014,17.44771Z"/><path class="e1c88d26-c65c-4ede-b184-a34bad5c6d52" d="M6.54214,15.71231v0Z"/><path class="1e5b8091-d513-499d-874f-a18925e7a39b" d="M9.838,15.55121a.46835.46835,0,0,0-.06648.0332c-.04292.0244-.08492.0517-.12592.0791-.083.0557-.16508.1123-.251.1621a.48741.48741,0,0,1-.2725.085.38408.38408,0,0,1-.1318-.0557l-.13278-.0684a1.17811,1.17811,0,0,0-.14062-.0537c-.0479-.0176-.0948-.0371-.1426-.0508a.67881.67881,0,0,1-.2637-.1074.21483.21483,0,0,1-.0683-.1113.24464.24464,0,0,0-.0342-.0752.09127.09127,0,0,0-.0987-.0303.22628.22628,0,0,0-.1298.1114l-.0332.0693a.25549.25549,0,0,1-.0157-.0566l-.0146-.0625a.49878.49878,0,0,1-.0088-.0616.51712.51712,0,0,0-.0234-.1406.17423.17423,0,0,0-.0489-.0684c-.0146-.0078-.0166-.0166-.042-.0224a.06041.06041,0,0,0-.0351,0,.067.067,0,0,0-.02438.0107.37109.37109,0,0,0-.05672.0469.34968.34968,0,0,0-.0439.0654c-.0108.0215-.0215.043-.0293.0635a.3491.3491,0,0,0-.0215.0664l-.0371.127a.30685.30685,0,0,1-.02048.0576.09678.09678,0,0,1-.02642.0224l-.541.0713-.05858-.0029-.06452-.0049a.508.508,0,0,0-.1376.0049.37043.37043,0,0,0-.0713.0215.197.197,0,0,0-.0323.0166l-.0156.0088-.0078.0039-.0273.0107v-.0029a.04252.04252,0,0,0-.01658-.0098l-.02062-.0175a.66891.66891,0,0,0-.10838-.086.09667.09667,0,0,0-.10742-.0019.11558.11558,0,0,0-.0371.0351l-.0176.0274a.29916.29916,0,0,0-.0332.0586.61928.61928,0,0,0-.0273.0664c-.0117.0351-.0205.0683-.0283.1025l-.0254.0117-.0625-.0537.00582.0059-.083-.0801a.51107.51107,0,0,0-.10642-.0791l.0215.0098-.0059-.0059-.0107-.0059v-.0009l-.0039-.001-.0069-.0039a.0773.0773,0,0,0-.0224-.0039.08624.08624,0,0,0-.0577.0166.10941.10941,0,0,0-.0322.0342.08359.08359,0,0,0-.0136.0556.132.132,0,0,0,.0039.0215l.0039.0127.0068.0254.01562.0498.04978.166-.1289.0928a1.22584,1.22584,0,0,0-.1474.1289l-.0723.0683c-.0215.0245-.041.0508-.0615.0762a1.66776,1.66776,0,0,0-.1182.1592l-.0967.1728-.0127.0206c-.0068.0146-.0058.0175-.0107.0263l-.0166.044-.0342.0908-.0342.0889c-.0097.0302-.0156.0644-.02338.0966l-.03522.1494c-.0947,0-.1894,0-.2851.0049a1.659,1.659,0,0,0-.168.0127.49414.49414,0,0,0-.0898.0196l-.0254.0107-.0069.0029-.0019.001-.002.001h-.0019c-.0069.0097.0195-.0205-.0176.0215l-.001.0009c-.0009.003.002-.0068-.0029.0108a.05955.05955,0,0,0,.0049.041l.0097.0117a.19977.19977,0,0,0,.03812.0332c.09178.0664.18258.1231.27148.1846l.1328.0918.0635.0478.0303.0245a.11934.11934,0,0,1,.0146.0127l.03232.3417c-.01082.0411-.02152.0821-.03032.1241a.43187.43187,0,0,0-.0108.0713.23363.23363,0,0,0-.00188.0742l.00188.039.002.0088c.0039.0166.0029.0098.0039.0157l.0068.0156a.27414.27414,0,0,0,.0469.0674.14947.14947,0,0,1,.0303.04c.0049.0068-.002.0068.0019.0098,0,.0029-.0048.0078-.0048.0127a.41886.41886,0,0,1-.0362.0381.4335.4335,0,0,0-.05168.0478.26517.26517,0,0,0-.04692.0645.146.146,0,0,0-.0176.0449l-.0049.0322a.191.191,0,0,0,.0205.0918.23014.23014,0,0,0,.0528.0645.48043.48043,0,0,0,.0566.038c-.04.0264-.0791.0528-.1221.0772-.06438.0371-.1298.0723-.1953.1133a.979.979,0,0,0-.1826.1435.76057.76057,0,0,0-.0752.0928l-.0088.0186a.08956.08956,0,0,0-.0019.0332.07549.07549,0,0,0,.02442.0429.18393.18393,0,0,0,.05858.0362,1.06834,1.06834,0,0,0,.2265.0546c.0743.0108.1495.0186.2247.0245.1494.0117.2998.0175.44922.0175a2.15788,2.15788,0,0,0,.22558-.0117c.04-.0058.0673,0,.0752.0166a.61882.61882,0,0,1,0,.1045c-.002.1309.1923.0547.1679.0899a1.49739,1.49739,0,0,1-.0664.2089l-.001.0079.001.0117c.002.0039,0,.0078.0068.0146a.03982.03982,0,0,0,.0186.0156l.0127.004a.14956.14956,0,0,0,.05962.0117.40326.40326,0,0,0,.11328-.0186l.1054-.0342a.16726.16726,0,0,1,.1055-.0088c.0303.0157.041.0557.05082.0909a.79635.79635,0,0,1,.02628.1084c.01372.0722.0332.1455.0518.2168-.0156-.0723-.0332-.1446-.0449-.2188a1.095,1.095,0,0,0-.0225-.1094c-.01068-.0351-.0166-.0791-.0566-.0996-.08108-.0254-.1504.0205-.2217.0352a.36831.36831,0,0,1-.10738.0146.1708.1708,0,0,1-.05082-.0117L5.878,20.141l-.0039-.0019-.0039-.0098s-.001-.0088-.001-.001l.002-.0068a1.25274,1.25274,0,0,0,.0732-.2139c-.00288-.0117.0068-.0244-.0186-.0429-.0107-.0059-.0048-.0039-.0205-.0059l-.0146.001a.45454.45454,0,0,1-.0527-.001.10722.10722,0,0,1-.043-.0098c-.002.002-.0078-.0039-.0117-.0136v-.0205a.42839.42839,0,0,0,.0009-.1182c-.0224-.0557-.0908-.0518-.1201-.0508a1.6894,1.6894,0,0,1-.22258.0068c-.14852-.0029-.29692-.0107-.44442-.0253-.0742-.0079-.1474-.0166-.2197-.0293a.88679.88679,0,0,1-.209-.0528.10163.10163,0,0,1-.0361-.0215l-.0029-.0029c.0019-.0039.0029-.0068,0-.0019a.85469.85469,0,0,1,.0673-.0801.888.888,0,0,1,.1709-.1279c.125-.0762.2637-.1377.3907-.2295a.04832.04832,0,0,0,.0146-.0186.04208.04208,0,0,0-.02338-.0547l-.001-.001a.36709.36709,0,0,1-.10252-.0586.10813.10813,0,0,1-.0313-.04.11755.11755,0,0,1-.0107-.0351l.0058-.0333.0078-.0166a.19637.19637,0,0,1,.0323-.0429c.0127-.0127.0273-.0264.0459-.042a.37314.37314,0,0,0,.05372-.0596.17059.17059,0,0,0,.01948-.0478.12455.12455,0,0,0-.0078-.0557.27564.27564,0,0,0-.0459-.0684.15114.15114,0,0,1-.0303-.041l-.0058-.0146-.002-.001v-.0059l-.001-.0293a.19273.19273,0,0,1,.002-.0576.34143.34143,0,0,1,.0098-.0615c.0097-.041.02052-.084.0322-.1269l.001-.0157-.001-.0039-.0313-.3613-.0009-.0039a.04869.04869,0,0,0-.0137-.0303c-.0117-.0107-.0166-.0176-.0322-.0312l-.0323-.0264-.0664-.0498-.1347-.0957c-.07518-.0518-.1524-.1026-.2237-.1533l.0069-.001c.0507-.0059.1035-.0098.1562-.0108.10742-.0048.2149-.0039.3233-.0029a.05146.05146,0,0,0,.0517-.04l.001-.0039.043-.1797a.73783.73783,0,0,1,.02242-.0889l.03418-.0898.0342-.0889.01762-.0459.00678-.0176.0117-.0205.0908-.1621a1.46856,1.46856,0,0,1,.1094-.1494c.0195-.0244.0371-.0488.0576-.0732l.0674-.0635a.9833.9833,0,0,1,.1387-.1231l.1513-.1103.003-.001a.05357.05357,0,0,0,.0185-.0566l-.0615-.2002-.0156-.0498-.0069-.0254-.0029-.0078.0098.0048c.0195.0215.0342.0303.0605.0557l.0733.0684.0049.0049.0878.0761a.048.048,0,0,0,.0508.0078l.001-.0009.0732-.0332.001-.001a.05379.05379,0,0,0,.0283-.0332,1.04573,1.04573,0,0,1,.0313-.1182.32193.32193,0,0,1,.0205-.0517.18287.18287,0,0,1,.02832-.0518l.01758-.0264.0078-.0068.0127.0039a.62314.62314,0,0,1,.0898.0742l.0284.0225a.38807.38807,0,0,0,.04.0205.2.2,0,0,0,.0635.0039l.0303-.0117.0214-.0117.0127-.0069a.11168.11168,0,0,1,.0235-.0127.23481.23481,0,0,1,.0508-.0156.38068.38068,0,0,1,.1162-.0039l.0634.0039.0664.0039.0049-.001h.0039l.5498-.081.00592-.001a.02139.02139,0,0,0,.01268-.0059.17979.17979,0,0,0,.0625-.0625.26559.26559,0,0,0,.0225-.0683l.0351-.128a.33756.33756,0,0,1,.0195-.0595.31822.31822,0,0,1,.0254-.0576.3784.3784,0,0,1,.0274-.0459.5036.5036,0,0,1,.04292-.0401l.00488-.001.0127.0079a.0943.0943,0,0,1,.0283.038.45558.45558,0,0,1,.0206.1202.42979.42979,0,0,0,.0117.0703l.0156.0644a1.05062,1.05062,0,0,0,.0439.1319.02775.02775,0,0,0,.0235.0185h0l.0107.001a.02965.02965,0,0,0,.0283-.0176l.002-.0019.0615-.1338a.1682.1682,0,0,1,.0889-.0821.03695.03695,0,0,1,.0371.0069c.0098.0049.0205.0439.0264.0586a.27135.27135,0,0,0,.08792.1357.6965.6965,0,0,0,.28708.1094c.0478.0127.0937.0293.1396.0439a1.404,1.404,0,0,1,.1387.0498l.1357.0635a.38751.38751,0,0,0,.1426.0547.51531.51531,0,0,0,.2852-.0957c.0849-.0527.164-.1133.24612-.1709.04-.0293.081-.0576.123-.083a.47673.47673,0,0,1,.06538-.0352c.01862-.0127.05862-.0166.05762.0147C9.89856,15.53651,9.85656,15.53851,9.838,15.55121Zm-5.3116,3.9746.002-.0029Zm1.3164-3.749v0Zm-.0117.0019h0l-.0049-.0019Zm.501-.0996.0059-.001.0009.001Zm.23142.0293Zm.00978-.0049h0Zm1.20022-.5068.00288.0019C7.77356,15.19771,7.76764,15.19571,7.77356,15.19671Zm.00288.0019v0Z"/><path class="2f68c279-6414-4fe9-b1da-fe0373a6715d" d="M9.78624,18.69281a5.6778,5.6778,0,0,0-1.165-.4414,6.98863,6.98863,0,0,1-.7706-.293.42719.42719,0,0,0,.0293-.0889c.5215.0098,1.0469-.0263,1.5674-.0361.0166-.001.044-.0361.0196-.0361-.52538-.0088-1.0508-.0215-1.5772-.0244,0-.0098-.0019-.0205-.0029-.0303.13572-.0391.2715-.0723.3662-.1104.2783-.1142.5557-.2304.8281-.3564.0147-.0068.02442-.0371.002-.0283a11.01361,11.01361,0,0,1-1.1553.4375c-.0156.0049-.0332.0097-.0518.0146a.24875.24875,0,0,0-.0224-.0556,13.13409,13.13409,0,0,0,1.5762-1.3135c.0195-.0205-.0069-.0352-.0245-.0186-.3047.2862-.6777.5283-1.00478.7901-.17492.1396-.36922.2617-.55382.3935.0235-.0322.0459-.0615.0694-.0888.2793-.3438.5683-.6807.834-1.0362.0166-.0224-.0098-.0263-.0254-.0117-.3096.332-.628.6563-.9385.9873-.01268.0137-.0244.0264-.0361.04.0537-.1093.10542-.2197.1621-.3281.1572-.3047.3642-.583.5166-.8906.01172-.0215-.0205-.0166-.02828-.001-.15922.2735-.35652.5283-.53032.794-.0254.0381-.0498.0752-.0733.1142.0528-.1719.1055-.3437.1612-.5146.1289-.4004.2978-.7862.4131-1.1895.0078-.0273-.0323-.0097-.0381.0069-.2471.6455-.55858,1.2627-.76858,1.9209-.00192-.1094-.00492-.2188-.00192-.3262.0068-.3545.0263-.708.0244-1.0625-.001-.0215-.0332-.001-.0342.0137-.0264.3623-.0654.7236-.0898,1.0869-.0098.1386-.0166.2773-.02248.417H7.39074c-.0293-.0967-.0596-.1914-.082-.2832-.0967-.378-.1641-.7618-.28618-1.1329-.00582-.0175-.03612.0049-.03222.0196.085.3515.1318.709.1875,1.0654.01172.0723.0264.1445.041.2178-.2295-.4395-.4619-.876-.7256-1.2988-.00968-.0176-.0478.0126-.04.0293.25.4628.4551.955.6924,1.4248-.1426-.1153-.29008-.2276-.4258-.3497-.2871-.2568-.5557-.5351-.8359-.7988-.0118-.0107-.0401.0137-.02838.0254.26078.2832.51268.5713.78808.8399.0303.0302.2461.2109.4414.3701l-.02048.0224c-.45122-.3213-.958-.583-1.41212-.8847-.0117-.0078-.0391.0185-.0273.0283.4199.3223.8545.6279,1.289.9316a1.782,1.782,0,0,1-.1894-.0761,5.3387,5.3387,0,0,1-.8496-.4229c-.0147-.0107-.0459.0156-.0313.0273a3.3155,3.3155,0,0,0,.6328.3829c.1407.0732.3135.1337.4737.205a.63682.63682,0,0,0-.0176.0782c-.5166-.0957-1.03518-.1778-1.5469-.2979-.0107-.0019-.03028.0234-.0166.0274a14.37626,14.37626,0,0,0,1.5147.3681c-.2276.0283-.4629.0899-.6807.124-.4346.0674-.8662.1475-1.3008.2227-.0117.002-.0254.0273-.00588.0244.67778-.0849,1.35448-.1894,2.03328-.2754-.1192.0479-.2374.0938-.3565.1416-.2305.0918-.457.1914-.6816.2959a1.56229,1.56229,0,0,1-.5254.2295c-.0117,0-.0342.0254-.0166.0283a.55819.55819,0,0,0,.2676-.0673c.24122-.087.4814-.1758.7246-.2588.22462-.0762.4453-.1573.666-.2403a.36881.36881,0,0,0,.039.0391c-.6318.4248-1.23138.9033-1.8896,1.2851-.0137.0088-.0127.0303.0068.0206.6895-.3633,1.3155-.836,1.9717-1.251-.06928.0693-.1396.1377-.206.208a6.97888,6.97888,0,0,1-.5684.6377c-.0147.0107-.0068.0351.0127.0205a4.88234,4.88234,0,0,0,.5557-.5537c.0566-.0557.1191-.1104.1816-.1651l-.0264.0537c-.1074.2071-.208.418-.3164.625-.1797.3409-.2998.7139-.4873,1.0489-.0146.0254.0215.0185.0313.0029.1943-.2959.331-.6309.5078-.9385.1338-.2324.289-.4658.4248-.706-.1641.6152-.2725,1.2578-.3799,1.875-.0039.0234.0273.0097.03222-.0049.16308-.6904.34078-1.3779.52048-2.0635l.0176-.0049c.1055.6807.2227,1.3584.2754,2.045.001.0195.0313.0019.0303-.0118-.0127-.4716-.0625-.9394-.1172-1.4082-.0215-.1894-.0449-.3779-.0733-.5664-.0039-.0293-.0087-.0605-.0127-.0908.0293.0459.0577.0908.087.1348.1308.1933.2588.3886.3896.583.00782.0117.0352-.0098.0293-.0225-.0967-.1885-.2041-.374-.3037-.5615-.0342-.0635-.0752-.126-.1162-.1875l.0127-.0098c.083.0909.1699.1787.2471.2715a4.8099,4.8099,0,0,0,.622.6758c.0108.0098.0371-.0127.0254-.0225a6.20293,6.20293,0,0,1-.5166-.6425c-.082-.1026-.1621-.2051-.24118-.3086a8.40633,8.40633,0,0,0,.83788.581c.0107.0069.03712-.0195.0264-.0283-.2276-.1904-.459-.3818-.6924-.5703a18.68105,18.68105,0,0,1,1.8086.5713C9.77256,18.73871,9.80674,18.70451,9.78624,18.69281Z"/><path class="a3e8b6f5-5ae5-4df5-8bf9-cde857e593ba" d="M26.545,17.32171c.043-.0498-.0186-.084-.0606-.044a3.48546,3.48546,0,0,0-1.0713,2.0489,1.46746,1.46746,0,0,0-.622-.1865.06563.06563,0,0,0,.0156-.0362,1.35208,1.35208,0,0,0-.0078-.2168,4.30118,4.30118,0,0,1,.3721-1.373c.0107-.0244-.0196-.0215-.0303-.0069-.0156.0215-.0313.044-.0469.0674a.0617.0617,0,0,0-.043.0235,3.55209,3.55209,0,0,0-.3574.6728c-.00488.0225-.0117.044-.0156.0674l-.002.0156a2.49045,2.49045,0,0,0-.122.5.54593.54593,0,0,1-.0225.0547l-.00778.0108a1.93211,1.93211,0,0,0-.01172.2109h-.0586c-.001-.082-.0078-.166-.01268-.2481a2.7103,2.7103,0,0,1,.04388-.6152c.0069-.0391-.0566-.0068-.0654.0107a2.26285,2.26285,0,0,0-.2119.6749c-.0078.0644-.0205.1318-.0283.1982-.1074.0127-.2129.0283-.3145.0459-.0351-.1143-.084-.2236-.125-.3359a1.975,1.975,0,0,1-.123-.6543c-.001-.0645-.1026-.0049-.1045.04a2.22064,2.22064,0,0,0,.1826.9824l-.0303.0059a3.58363,3.58363,0,0,0-1.8115,1.0351c-.0645-.0595-.127-.1201-.1855-.1836a7.75764,7.75764,0,0,1-.5557-.6484c-.0274-.0361-.1074.0332-.082.0713.15912.2383.3496.4521.5293.6728.0566.0704.1171.1426.1787.2129a3.67089,3.67089,0,0,0-.2803.3594c-.0645.0967-.1289.1973-.1895.3008a7.29,7.29,0,0,0-1.1796-.3897c-.0372-.0097-.0987.0606-.0586.0733a7.7087,7.7087,0,0,1,1.1748.4287,3.387,3.387,0,0,0-.2735.6299c-.0351-.0049-.0703-.0088-.1025-.0156a.9933.9933,0,0,1-.2705-.086c-.03318-.0166-.0977.0508-.0586.0733a1.06445,1.06445,0,0,0,.4053.125c-.0137.0537-.0293.1093-.0401.164a2.383,2.383,0,0,0-1.1299.125c-.042.0147-.0644.0918-.00188.0742a2.34421,2.34421,0,0,1,1.11518-.0791,1.19956,1.19956,0,0,0,.124.7286,2.51293,2.51293,0,0,0-1.0058.5371c-.0479.039-.0069.083.04.0459a2.596,2.596,0,0,1,1.0332-.4727,1.419,1.419,0,0,0,.5869.4541c1.4219.6504,3.6133-.6103,4.10552-1.9971a1.9098,1.9098,0,0,0-.11132-1.9834c.082-.332.11232-.6718.2217-1.0019A3.47831,3.47831,0,0,1,26.545,17.32171Zm-.89448,3.3799a3.19856,3.19856,0,0,1-3.37022,2.624,1.34336,1.34336,0,0,1-1.1845-.8164.13459.13459,0,0,0,.0468-.0615c.00492-.0323.0118-.0625.0166-.0948.3399.1866.8877-.1201,1.1827-.2763a4.61588,4.61588,0,0,0,1.8164-1.7627,1.75278,1.75278,0,0,0,.2031-.9092A1.15167,1.15167,0,0,1,25.65056,20.70161Z"/><path class="a3e8b6f5-5ae5-4df5-8bf9-cde857e593ba" d="M33.60556,16.87151a.91044.91044,0,0,1-.40622.0352l-.0029-.003a1.47053,1.47053,0,0,0-.084-1.0703,2.4536,2.4536,0,0,1,.1455-.2734,2.08713,2.08713,0,0,1,.3252-.3311c.0615-.0547.0078-.1103-.0547-.0615a2.46314,2.46314,0,0,0-.4092.3779,1.30715,1.30715,0,0,0-.1103.1475.9025.9025,0,0,0-.3721-.2373,1.29492,1.29492,0,0,1,.0283-.1533,1.82526,1.82526,0,0,0,.10642-.2823l.10838-.997c.0049-.0537-.0849-.0098-.0908.0254a4.72063,4.72063,0,0,1-.2549,1.165,1.69539,1.69539,0,0,0-.0781.1943c-.01458-.0029-.0273-.0078-.041-.0097a1.05932,1.05932,0,0,0-.38958.0068c-.00982-.0322-.01962-.0645-.02742-.0937a4.13648,4.13648,0,0,1-.1885-.8594c-.0039-.0752-.122-.0078-.12008.0469a2.81608,2.81608,0,0,0,.11718.6835,2.67843,2.67843,0,0,1,.05182.2676,1.81578,1.81578,0,0,0-.88192.8565c-.0312-.0254-.0635-.0469-.0937-.0694a.75419.75419,0,0,1-.1426-.1474c-.0176-.0254-.0684.0205-.0537.0468a.75041.75041,0,0,0,.12692.1612c.03518.0332.07038.0722.11138.1045a3.31527,3.31527,0,0,0-.1651.3603c-.0342.0635-.0664.1299-.0976.1944-.1114-.0186-.2578-.042-.3184-.1329-.0224-.0351-.1035.0293-.0859.0635a.38181.38181,0,0,0,.2344.1524.74177.74177,0,0,0,.1171.0361,2.9891,2.9891,0,0,0-.122.334c-.0684.0029-.1358.0068-.2041.0127-.1934.0156-.375.1025-.5703.1201-.0313.0029-.0831.0801-.0332.0801.205.001.4033-.0674.6093-.0655.0547.001.1065.0069.1563.0088a1.80284,1.80284,0,0,0-.0381.7061.67063.67063,0,0,0,.0234.1006,1.0005,1.0005,0,0,1-.3086.0644c-.0302.002-.0761.0723-.0312.0733a1.02093,1.02093,0,0,0,.3691-.0645.66961.66961,0,0,0,.0948.1533,1.96179,1.96179,0,0,0-.4424.1651,4.29679,4.29679,0,0,0-.6953.5781c-.042.041-.0069.0811.039.0449.208-.1572.4248-.2861.6387-.4355.1816-.125.418-.1162.6035-.2207a.80107.80107,0,0,0,.1328.0732,1.55782,1.55782,0,0,0-.7461.6299c-.02148.0381.0313.0381.0469.0137a2.02869,2.02869,0,0,1,.8955-.584.86313.86313,0,0,0,.4365-.0322,2.77123,2.77123,0,0,0,1.0469-.6836c.05272.0615.1152.1191.167.1718a2.111,2.111,0,0,1,.22272.2334c.04678.0635.10148.1612.18938.1739.0488.0068.1348-.0791.0781-.1172-.0429-.0303-.0722-.1807-.0918-.2305a1.10941,1.10941,0,0,0-.1162-.2012c-.06248-.0927-.1377-.1748-.2021-.2666l-.0166-.0302c.0459-.0596.0869-.1202.1269-.1827a2.85037,2.85037,0,0,0,.2666-.5781,1.28374,1.28374,0,0,0,.4854-.1367C33.668,16.94861,33.69734,16.82761,33.60556,16.87151Zm-.80072.0439a2.15617,2.15617,0,0,1-.1817.5528c-.0303-.0274-.05758-.0567-.0879-.0889-.0312-.0332-.1084.0371-.0781.0684a.78123.78123,0,0,0,.1201.1142,2.20982,2.20982,0,0,1-.459.6026.61294.61294,0,0,1-.1123-.2217c-.0097-.041-.0879.0117-.0791.0488a.64881.64881,0,0,0,.1231.2324,1.56158,1.56158,0,0,1-.2637.1778c-.0205-.0469-.043-.0918-.0635-.1377-.0469-.1045-.0879-.2149-.1445-.3155-.01168-.0224-.0488.0176-.0469.0342a2.43775,2.43775,0,0,0,.0986.3389c.0147.042.0284.0898.0411.1357a1.19734,1.19734,0,0,1-.4366.0957.489.489,0,0,1-.5146-.4111c.0508-.0371.0996-.0752.1475-.1133a2.12415,2.12415,0,0,0,1.2617-2.0263.2286.2286,0,0,0,.0722-.1055.27918.27918,0,0,0,.0157-.0752.78844.78844,0,0,1,.4492.2187A1.01247,1.01247,0,0,1,32.80484,16.91541Z"/><path class="83c53fad-f2ac-4848-82d6-b0095227f07e" d="M4.06944,21.85781a1.91815,1.91815,0,0,0-.2451-.3789c-.3076-.376-.8994-.7549-1.2901-.2832-.3808.458.11232,1.0889.4258,1.4238.2686.2852.7998.5987,1.128.2217A.81374.81374,0,0,0,4.06944,21.85781Z"/><path class="1e5b8091-d513-499d-874f-a18925e7a39b" d="M9.93956,3.71041a8.95257,8.95257,0,0,0-2.789,2.5039A14.62406,14.62406,0,0,0,5.86044,10.766a4.3742,4.3742,0,0,1-1.2295,2.4024c-.5781.5273-1.2051.9765-1.8203,1.4629a7.991,7.991,0,0,0-.71.6172,2.78452,2.78452,0,0,0-.8994,1.1015,4.37358,4.37358,0,0,0,.292,3.0674c.0196.0449.0938-.0107.0908-.0459a10.02052,10.02052,0,0,1,.0362-2.3516,2.91761,2.91761,0,0,1,1.1201-1.7675c1.2764-1.1133,2.7666-2.1172,3.3447-3.7901.4893-1.4101.5156-2.9355,1.0098-4.3476A7.88551,7.88551,0,0,1,9.96,3.74361C9.98256,3.725,9.96984,3.68991,9.93956,3.71041Z"/><path class="c19800d5-928d-4ab5-a743-0955f2a5e255" d="M28.585,10.41841a.596.596,0,0,0,.043-.1211l.0068-.0176c.0274-.0928.0664-.2969-.0195-.375a.12174.12174,0,0,0-.0361-.0273.26734.26734,0,0,0-.26368-.1172.50331.50331,0,0,0-.40822.4511.70336.70336,0,0,0,.0918.4502c.1201.2032.3779.0557.4873-.0732a.62667.62667,0,0,0,.0664-.0986c.0049-.0088.0068-.0166.01172-.0254A.38759.38759,0,0,0,28.585,10.41841Z"/><path class="c19800d5-928d-4ab5-a743-0955f2a5e255" d="M29.05484,11.35981a.10168.10168,0,0,0-.0987-.0254.41222.41222,0,0,0-.2138.1299.30326.30326,0,0,0-.1309.124.24968.24968,0,0,0,.1543.3506c.1523.0361.2773-.1055.3281-.2305A.393.393,0,0,0,29.05484,11.35981Z"/><path class="c19800d5-928d-4ab5-a743-0955f2a5e255" d="M30.21694,9.97891a.0726.0726,0,0,0-.0235-.0185h-.00388a.21356.21356,0,0,1,0-.0254c-.00392-.0469-.04492-.0567-.084-.0401a.13855.13855,0,0,0-.08592.0928.31757.31757,0,0,0-.083.1113c-.0049.0137-.0108.0264-.0156.0391-.0362.0938.0654.1426.1416.1064a.32643.32643,0,0,0,.12692-.0996C30.22474,10.099,30.25794,10.03171,30.21694,9.97891Z"/><path class="c19800d5-928d-4ab5-a743-0955f2a5e255" d="M7.93764,11.45061c-.1416-.3477-.5596-.1514-.7373.0488a1.10362,1.10362,0,0,0-.17578,1.0703.26863.26863,0,0,0,.376.0938.838.838,0,0,0,.42178-.3408A1.05031,1.05031,0,0,0,7.93764,11.45061Z"/><path class="c19800d5-928d-4ab5-a743-0955f2a5e255" d="M8.95424,11.268l-.043-.002a.06905.06905,0,0,0-.0625.0479.52463.52463,0,0,1-.0166.0947c-.0459.0693.0488.083.0898.044a.18529.18529,0,0,0,.0704-.1407A.04022.04022,0,0,0,8.95424,11.268Z"/><path class="c19800d5-928d-4ab5-a743-0955f2a5e255" d="M8.84874,12.88321a.08584.08584,0,0,0-.0996-.0469.35463.35463,0,0,0-.2617.1846c-.1768.1963-.2666.5527-.0586.668.1816.0996.3369-.1797.3828-.3086A.7465.7465,0,0,0,8.84874,12.88321Z"/><path class="a3e8b6f5-5ae5-4df5-8bf9-cde857e593ba" d="M8.64174,23.32361a1.001,1.001,0,0,0-.5938.8174.3311.3311,0,0,0,.2803.3106.54887.54887,0,0,0,.2744-.0362.31205.31205,0,0,0,.0527-.0048.89439.89439,0,0,0,.6446-.7168C9.337,23.28751,8.963,23.17031,8.64174,23.32361Z"/><path class="a3e8b6f5-5ae5-4df5-8bf9-cde857e593ba" d="M10.13094,22.54731a.05843.05843,0,0,0-.0146-.0401c-.0977-.0976-.2832.0811-.333.1553-.0547.085-.1065.2647.041.2871.0947.0147.1631-.0674.2158-.1328a.46675.46675,0,0,0,.1055-.1865A.1.1,0,0,0,10.13094,22.54731Z"/><path class="a3e8b6f5-5ae5-4df5-8bf9-cde857e593ba" d="M9.47174,21.73971c-.165-.1807-.4365-.0157-.5605.124a.941.941,0,0,0-.2314.5547.20722.20722,0,0,0,.0859.1972.11938.11938,0,0,0,.124.0528.59557.59557,0,0,0,.2959-.1514,1.35247,1.35247,0,0,0,.1895-.209C9.48444,22.15961,9.62314,21.90571,9.47174,21.73971Z"/><path class="a3e8b6f5-5ae5-4df5-8bf9-cde857e593ba" d="M27.22964,24.18891c-.1436-.4219-.9073-.2324-1.1729-.0791-.2246.1289-.6055.5205-.5098.8086a.37765.37765,0,0,0,.0254.1367c.168.418.7325.2461,1.0137.0879C26.88584,24.97311,27.36634,24.59021,27.22964,24.18891Z"/><path class="a3e8b6f5-5ae5-4df5-8bf9-cde857e593ba" d="M28.38784,22.87741l-.03128.0068a.08314.08314,0,0,0-.08012-.0693.54918.54918,0,0,0-.4697.3291c-.03118.0566-.0478.1523.0264.1855a.38746.38746,0,0,0,.4687-.206.2002.2002,0,0,0,.0254-.1084l.0391-.0118C28.41714,22.98481,28.48056,22.86171,28.38784,22.87741Z"/></g></g></g></g></svg>