<svg xmlns="http://www.w3.org/2000/svg" xmlns:xlink="http://www.w3.org/1999/xlink" viewBox="0 0 82.15427 73.14264"><defs><style>.ee5db947-dafa-44e6-aafa-38e66ef3e946{isolation:isolate;}.\38 b295abe-9a51-44df-8533-1ab101942bba{fill:url(#805610eb-151f-4c08-9a21-144177edcb2c);}.\38 24b934f-722b-4636-a310-77901c368f0a{fill:#a898ab;mix-blend-mode:multiply;}.\38 24b934f-722b-4636-a310-77901c368f0a,.e6df56b5-2bce-4b73-a948-910ecca5b6c6{opacity:0.6;}.e6df56b5-2bce-4b73-a948-910ecca5b6c6{fill:#4a5ca9;mix-blend-mode:color-dodge;}.\39 f0e42a5-9b2a-48bb-bc25-257b785964eb{fill:url(#6a72378c-909d-4342-be4a-40c7ccb81c2a);}.\31 8859116-4ab1-41e6-aa97-333561310629{fill:url(#6932911f-08e5-4093-8410-588e19eeb5a9);}.\32 6f37983-addf-43af-a36b-2017897df30b{fill:url(#c2a555f3-3f7b-45eb-beab-5588616d902a);}.\32 ffed8b3-4342-4af6-ad85-abbccd42e6d0{fill:url(#aee99c42-1270-4a78-8b5c-b22b05fc4314);}.fbe53547-9ad0-4aad-aad4-735aa2399213{fill:url(#ac441b9b-9a80-49bc-a079-02a9917c28a3);}.\30 9170278-7c22-427f-809c-0e1faf8198ce{fill:url(#1d3f4578-68d2-4e3a-a1a8-795b95575818);}.f02ac1b0-b480-4485-bf42-fb77d283f694{fill:url(#75037dea-97d8-4c48-b8d1-03b5be933c83);}.\34 1d06457-63d3-4856-90cf-85c576bc3b00{fill:url(#7685d935-d154-4fc8-8c52-b994a647ad0f);}.\36 277c50d-c924-4f47-87e2-2f7c4432c71c{fill:url(#a381f981-9dcb-453f-8a86-d51e0e991dea);}.\39 acd9b68-7a73-459d-9b02-450e87eaa1d6{fill:url(#58928b78-8ec4-4ede-8181-84e1539258d7);}.\37 3316926-acb1-4895-a11c-b17bdd1d52ed{fill:url(#235f8f7f-90e4-448a-a8e9-02d56f27efc6);}.\36 8f3478a-1940-490c-b175-49e87d2ee341{fill:url(#295f7e86-e966-4a54-97b5-809333c4f1d1);}.\38 750be5b-9367-4b33-a85f-0e63def69f80{fill:url(#9620e61d-2dee-45ff-abbc-e888234831c3);}.\33 8c24c53-b624-4171-9a10-6cc215d1c9fc{fill:url(#8062be51-d853-455b-98c0-8d1356957fd9);}</style><radialGradient id="805610eb-151f-4c08-9a21-144177edcb2c" cx="13.01233" cy="-7.56046" r="89.69104" gradientUnits="userSpaceOnUse"><stop offset="0.40964" stop-color="#6487a9"/><stop offset="0.90525" stop-color="#a06d7e"/></radialGradient><radialGradient id="6a72378c-909d-4342-be4a-40c7ccb81c2a" cx="88.14667" cy="36.14452" r="118.1884" gradientUnits="userSpaceOnUse"><stop offset="0.40832" stop-color="#32485d"/><stop offset="0.90525" stop-color="#a06d7e"/></radialGradient><radialGradient id="6932911f-08e5-4093-8410-588e19eeb5a9" cx="88.14834" cy="36.14492" r="118.19145" xlink:href="#6a72378c-909d-4342-be4a-40c7ccb81c2a"/><radialGradient id="c2a555f3-3f7b-45eb-beab-5588616d902a" cx="88.14854" cy="36.14547" r="118.1899" xlink:href="#6a72378c-909d-4342-be4a-40c7ccb81c2a"/><radialGradient id="aee99c42-1270-4a78-8b5c-b22b05fc4314" cx="88.14877" cy="36.14474" r="118.19009" xlink:href="#6a72378c-909d-4342-be4a-40c7ccb81c2a"/><radialGradient id="ac441b9b-9a80-49bc-a079-02a9917c28a3" cx="88.14867" cy="36.14659" r="118.19438" xlink:href="#6a72378c-909d-4342-be4a-40c7ccb81c2a"/><radialGradient id="1d3f4578-68d2-4e3a-a1a8-795b95575818" cx="88.14941" cy="36.14618" r="118.19084" xlink:href="#6a72378c-909d-4342-be4a-40c7ccb81c2a"/><radialGradient id="75037dea-97d8-4c48-b8d1-03b5be933c83" cx="88.14969" cy="36.14494" r="118.19288" xlink:href="#6a72378c-909d-4342-be4a-40c7ccb81c2a"/><radialGradient id="7685d935-d154-4fc8-8c52-b994a647ad0f" cx="88.12676" cy="36.14557" r="118.16067" xlink:href="#6a72378c-909d-4342-be4a-40c7ccb81c2a"/><radialGradient id="a381f981-9dcb-453f-8a86-d51e0e991dea" cx="88.14337" cy="36.14994" r="118.17828" xlink:href="#6a72378c-909d-4342-be4a-40c7ccb81c2a"/><radialGradient id="58928b78-8ec4-4ede-8181-84e1539258d7" cx="88.14499" cy="36.14464" r="118.18676" xlink:href="#6a72378c-909d-4342-be4a-40c7ccb81c2a"/><radialGradient id="235f8f7f-90e4-448a-a8e9-02d56f27efc6" cx="88.14335" cy="36.15235" r="118.14512" xlink:href="#6a72378c-909d-4342-be4a-40c7ccb81c2a"/><radialGradient id="295f7e86-e966-4a54-97b5-809333c4f1d1" cx="88.15059" cy="36.14501" r="118.20394" xlink:href="#6a72378c-909d-4342-be4a-40c7ccb81c2a"/><radialGradient id="9620e61d-2dee-45ff-abbc-e888234831c3" cx="88.14935" cy="36.14967" r="118.20783" xlink:href="#6a72378c-909d-4342-be4a-40c7ccb81c2a"/><radialGradient id="8062be51-d853-455b-98c0-8d1356957fd9" cx="88.14749" cy="36.1587" r="118.21473" xlink:href="#6a72378c-909d-4342-be4a-40c7ccb81c2a"/></defs><title>rock2</title><g class="ee5db947-dafa-44e6-aafa-38e66ef3e946"><g id="720f4376-f499-4196-94a7-725daef77e2c" data-name="Layer 2"><g id="f8d87fdf-0bf4-48af-88a5-d6acf431aaf1" data-name="Layer 1"><g id="f742bfa3-7b7b-4566-99bf-a334f36b85ab" data-name="rock2"><path class="8b295abe-9a51-44df-8533-1ab101942bba" d="M81.15673,37.17047c.1318-5.1465,1.9023-10.4102.3896-15.4805-1.2705-4.2578-4.8105-7.6699-8.5732-9.8242-4.3926-2.5117-9.5606-2.1348-14.0068-4.4101-2.1123-1.0801-3.6788-2.9688-5.6026-4.3184a16.83707,16.83707,0,0,0-6.3789-2.8164,20.01217,20.01217,0,0,0-12.1035,1.7207c-2.125.9902-4.1846,2.0918-6.3906,2.9004-2.1778.8008-4.502,1.1348-6.6924,1.918a20.57827,20.57827,0,0,0-9.0723,6.7207c-1.0693,1.3593-1.2822,3.1816-1.51458,4.8359-.04492.3164-.10552.6309-.17972.9375-2.3291,3.5117-5.6328,6.2266-8.0449,9.7539C.11763,33.29747-.33155,38.56107.186,43.47707c.5283,5.0372,3.9951,9.4668,7.3769,13.0293,1.8496,1.9454,3.4922,4.0469,5.4522,5.8907,1.8564,1.75,2.8096,4.207,4.1787,6.3164,2.6387,4.0625,6.9658,5.1816,11.51762,3.9629,2.35938-.6329,4.582-1.6895,6.90228-2.4434,3.1338-1.0215,6.2305-.5898,9.377.082a35.92543,35.92543,0,0,0,16.041-.0332,41.36335,41.36335,0,0,0,13.0332-5.0508C83.24363,59.26617,80.91945,46.399,81.15673,37.17047Z"/><path class="824b934f-722b-4636-a310-77901c368f0a" d="M81.15673,37.17047c.1318-5.1465,1.9023-10.4102.3896-15.4805-1.2705-4.2578-4.8105-7.6699-8.5732-9.8242-4.3926-2.5117-9.5606-2.1348-14.0068-4.4101-2.1123-1.0801-3.6788-2.9688-5.6026-4.3184a16.83707,16.83707,0,0,0-6.3789-2.8164,20.01217,20.01217,0,0,0-12.1035,1.7207c-2.125.9902-4.1846,2.0918-6.3906,2.9004-2.1778.8008-4.502,1.1348-6.6924,1.918a20.57827,20.57827,0,0,0-9.0723,6.7207c-1.0693,1.3593-1.2822,3.1816-1.51458,4.8359-.04492.3164-.10552.6309-.17972.9375-2.3291,3.5117-5.6328,6.2266-8.0449,9.7539C.11763,33.29747-.33155,38.56107.186,43.47707c.5283,5.0372,3.9951,9.4668,7.3769,13.0293,1.8496,1.9454,3.4922,4.0469,5.4522,5.8907,1.8564,1.75,2.8096,4.207,4.1787,6.3164,2.6387,4.0625,6.9658,5.1816,11.51762,3.9629,2.35938-.6329,4.582-1.6895,6.90228-2.4434,3.1338-1.0215,6.2305-.5898,9.377.082a35.92543,35.92543,0,0,0,16.041-.0332,41.36335,41.36335,0,0,0,13.0332-5.0508C83.24363,59.26617,80.91945,46.399,81.15673,37.17047Zm-18.043-16.6816a6.36969,6.36969,0,0,1-3.1621,2.1738,8.809,8.809,0,0,0-4.168,3.291c-1.07518,1.6367-1.8964,3.4238-2.83,5.1426a10.4186,10.4186,0,0,1-2.6993,3.7558c-.7793.543-1.66788.8555-2.4482,1.375-1.123.7481-1.1709,1.7344-1.4326,2.918a2.67964,2.67964,0,0,1-2.374,2.2285c-3.7373.8282-7.33208,3.0313-8.7979,6.6758,2.4961-1.125,5.1777-2.4746,7.92582-1.5918a.302.302,0,0,1,0,.5781c-3.34382,1.0547-6.57522,4.9844-7.416,8.3457-.36622,1.4668-.44242,5.7305-2.88092,5.543-1.4512-.1113-2.70308-1.0254-4.0722-1.4492a8.48421,8.48421,0,0,0-5.8125-.0781c-.9307.3906-1.879,1.4472-2.9356,1.291-1.3789-.2051-1.4453-2.3125-3.041-2.2598-1.1621.0391-2.2246.3594-3.2402-.4199a28.63714,28.63714,0,0,1-2.709-2.6016c-2.26758-2.2656-4.9395-4.3847-6.8565-6.9629-2.499-3.3613-3.0918-7.9882-2.5185-12.0468a19.08055,19.08055,0,0,1,.81642-3.4727A18.51367,18.51367,0,0,1,7.25833,25.899a26.40855,26.40855,0,0,1,3.623-2.5722c1.8428-1.2774,1.5762-2.9336,1.5527-4.9434-.0029-.2422.3418-.4199.5108-.2109a9.15365,9.15365,0,0,1,1.5049,3.7441c.4609-2.4746,1.0078-5.3789,3.3945-6.543.668-.3261,2.1133-1.2148,2.873-.9043a8.47049,8.47049,0,0,1,2.3711,2.0313c-.4121-1.3262-.9472-2.6133-1.3144-3.9571a.30707.30707,0,0,1,.2099-.3691c1.3037-.4648,1.7813-2.1191,3.1045-2.4805a4.96789,4.96789,0,0,1,1.5528-.1445,8.68559,8.68559,0,0,0-.8223-.8418.30272.30272,0,0,1,.1328-.5,12.6244,12.6244,0,0,0,2.5567-1.1055c-.5352-.0273-1.0684.0059-1.6094.0196-.3653.0097-.3711-.4668-.0801-.5879,4.7871-1.9883,9.1172-5.0039,14.4424-5.3125,1.8037-.1035,4.1006.0722,5.1728,1.7558.7422,1.1661.0528,3.6895-.4004,4.8555-.0957.2461-.5195.3223-.5781,0a23.71436,23.71436,0,0,1-.2832-2.6719,12.22341,12.22341,0,0,1-.8418,2.6192.30315.30315,0,0,1-.41008.1074q-1.53678-.87015-3.04892-1.7832c.0996.2305.1963.4609.29692.6914.10448.2402-.13872.6094-.41012.4102-1.0342-.7598-3.8243-1.8457-4.8653-.5411-.9492,1.1895.9629,2.9434,1.39942,4.0157a.295.295,0,0,1-.13772.3379c-1.8115.8886-4.52728,1.1269-5.5918,3.0195,1.9844.6758,4.4219.2187,6.4082-.127.94732-.166,1.8946-.3398,2.8379-.5273.461-.0899,1.1075-.3027,1.5528-.041,1.1562.6758.2402,2.6133-.2422,3.3965a34.941,34.941,0,0,0-2.0528,3.4804,1.7876,1.7876,0,0,0-.02138.2754c2.20018-.8027,3.40818-3.084,5.26948-4.414a.30092.30092,0,0,1,.4394.1777,6.45586,6.45586,0,0,1,.1797,1.5508,7.51869,7.51869,0,0,0,.1035,1.1289c.125.584.6417.4551.8145-.0508a19.93825,19.93825,0,0,1,1.0059-3.2832c.2832-.5137.72652-1.0469,1.373-.752,1.02152.4649,1.5918,1.3243,2.7168,1.4493a5.05632,5.05632,0,0,0-1.0215-1.6114.29987.29987,0,0,1,.4238-.4238,18.33139,18.33139,0,0,0,6.459,3.7617,17.56551,17.56551,0,0,1,5.1973,2.0508A.30484.30484,0,0,1,63.11373,20.48887Z"/><path class="e6df56b5-2bce-4b73-a948-910ecca5b6c6" d="M12.6,22.47517c-1.375,1.0351-2.4414,2.3808-3.8457,3.416a19.61816,19.61816,0,0,0-3.1376,2.8906,14.983,14.983,0,0,0-3.5245,8.7754,15.62853,15.62853,0,0,0,2.5137,9.7656,29.14172,29.14172,0,0,0,3.6377,4.3067,19.104,19.104,0,0,0,3.1846,3.1406c.0937.0625.2968-.1328.2138-.2226-4.2529-4.6329-8.5127-9.3165-8.7744-15.9278a14.42159,14.42159,0,0,1,3.2539-9.6054A22.3295,22.3295,0,0,1,9.46533,25.86c1.1992-1,2.041-2.293,3.2158-3.2911C12.77493,22.48887,12.69383,22.40487,12.6,22.47517Z"/><path class="9f0e42a5-9b2a-48bb-bc25-257b785964eb" d="M26.91845,7.16067c-.29882.1036-1.27252.002-1.94922.1426-.21678-.4531-1.30078-.0605-1.6582.0723a29.30785,29.30785,0,0,0-5.7188,2.6113,10.494,10.494,0,0,0-2.1601,1.8047c-1.0254.875-2.1231,2.0234-2.1582,3.1191v.0078a2.88995,2.88995,0,0,0,.0273.7247,9.95585,9.95585,0,0,0-.0127,1.039c.0332.1504.2686-.0449.2744-.1387a4.4099,4.4099,0,0,1,.2598-.9902,1.05722,1.05722,0,0,0,.0361-.2812,4.87709,4.87709,0,0,0,1.2198-.3047q.0234.1581.0644.334a9.34571,9.34571,0,0,1,.1416,1.0546,3.81691,3.81691,0,0,1,.09082,1.17c-.05462.1992.22858.0976.27928-.0117a5.15177,5.15177,0,0,0,.22272-1.6211,4.31548,4.31548,0,0,0,.001-.959,1.65049,1.65049,0,0,1-.003-.2871,19.02381,19.02381,0,0,0,3.55078-2.0528c.0254.0391.0518.0782.07622.1172.17578.2871.35058.5645.50188.8653.0625.123.2813-.0411.2432-.1485a7.30429,7.30429,0,0,0-.3623-.875c-.0352-.0683-.0664-.1426-.0977-.2187.0665-.0489.1338-.0957.2012-.1446.13872.25.3086.4942.418.7188a11.05646,11.05646,0,0,0,.9551,1.7637c.0742.0996.2695-.0821.2382-.1778-.206-.6582-.3037-1.334-.5498-1.9804-.08878-.2325-.208-.5586-.3544-.8536.2597-.1972.5185-.3945.7714-.5898.2266-.1758.4473-.3574.6661-.5449a20.60409,20.60409,0,0,0,1.8359-1.5137.76261.76261,0,0,0,.1191-.1406c.166.0293.3496.0273.502.0547.3847.0703.7578.1972,1.1367.291.1035.0254.3047-.1953.1709-.2559a5.76233,5.76233,0,0,0-1.43648-.6191c.02338-.0235.04688-.0489.07218-.0723a.89525.89525,0,0,0,.1641-.0137,3.26072,3.26072,0,0,1,.8301.1094c.0537.0059.167-.1133.0918-.1367-.24418-.0801-.4844-.1953-.7344-.252a7.22764,7.22764,0,0,0,2.0586-.6113C27.04345,7.30327,27.09223,7.09817,26.91845,7.16067Zm-2.76562.8301c-.0557.0039-.1309.0703-.1055.1192-.1601-.3008-5.6582,2.8261-6.0293,3.0859a23.37627,23.37627,0,0,0-3.6689,2.8301,3.44822,3.44822,0,0,1,.0166-.5352c.01172-.0156.0234-.0312.0342-.0469a16.20049,16.20049,0,0,1,6.4189-4.6211c.8887-.3574,1.7891-.6875,2.6875-1.0195C24.23483,7.53377,24.34033,7.68027,24.15283,7.99077Z"/><path class="18859116-4ab1-41e6-aa97-333561310629" d="M29.26023,66.649c-.46478-2.1347-3.3457-4.289-5.5-3.7168a.28246.28246,0,0,0-.0312.0137c-1.0567-.1074-2.0938.0723-2.1778,1.0664-.1836,2.1621,3.3008,3.9082,4.9844,4.3789C28.16253,68.84817,29.67823,68.57277,29.26023,66.649Z"/><path class="26f37983-addf-43af-a36b-2017897df30b" d="M69.41453,29.66847c-3.1162,1.2715-6.5527,4.0958-6.8984,7.67a2.69388,2.69388,0,0,0-.3653-.4766,11.69532,11.69532,0,0,1,.3672-2.8223c.0352-.1171-.1367-.041-.1621.0274a9.88445,9.88445,0,0,0-.5664,2.4765,3.63036,3.63036,0,0,0-2.334-.5253,6.77751,6.77751,0,0,0-1.9219.1347,7.4551,7.4551,0,0,1-.24018-1.7832,6.20085,6.20085,0,0,1,.84958-3.4433c.0996-.1114-.0371-.1719-.1299-.0957-.8838.7285-1.1054,2.2734-1.2685,3.3378a8.07772,8.07772,0,0,0-.0215,2.1973,14.13136,14.13136,0,0,0-2.8799,1.3516,26.65814,26.65814,0,0,0-3.5576,2.498c-.0674-.0664-.1406-.1289-.2051-.1992-.2129-.2246-.4277-.4394-.6308-.6738a4.2492,4.2492,0,0,0-.6622-.6289,5.98864,5.98864,0,0,1-.664-.4707c-.082-.0801-.2715.0859-.2012.1757a4.95629,4.95629,0,0,0,.4824.4454,7.53965,7.53965,0,0,1,.7032.7812c.207.2676.4218.5274.6367.791.0429.0528.081.0996.1181.1426-.1132.0996-.2197.207-.331.3086a2.50056,2.50056,0,0,1-.2109-.1953,4.14883,4.14883,0,0,0-.5752-.543c-.0674-.0469-.2256.1035-.15918.1641a4.45338,4.45338,0,0,1,.52438.6465c.0459.0605.0967.123.1504.1816-.4365.416-.8643.8457-1.2627,1.3027a7.16239,7.16239,0,0,0-2.5957-.1836,10.99883,10.99883,0,0,0-4.791,1.3594c-.06638.0332-.086.168.01662.127a12.01475,12.01475,0,0,1,5.07318-.959,7.09483,7.09483,0,0,1,1.7754.2851c-.0254.0313-.0537.0606-.0791.0938a11.03779,11.03779,0,0,0-2.2549,4.7637,6.52235,6.52235,0,0,0-2.5459,1.2246,10.03652,10.03652,0,0,0-1.6006,1.6875c-.37108.4922-.5293,1.414-.9609,1.8144-.043.043-.0527.1407.0352.1055.6367-.2598,1.1289-1.5332,1.5478-2.0195a7.35886,7.35886,0,0,1,3.4414-2.1446,6.49946,6.49946,0,0,0-.0185.7168,2.883,2.883,0,0,0,.3164,1.2539,2.15053,2.15053,0,0,0-.6807.5079c-.34078.3613-.59378.7929-.92578,1.1621-.11032.123.04588.207.14748.1093.2578-.248.47852-.5273.7148-.7949a3.8622,3.8622,0,0,1,.4434-.4238,2.44759,2.44759,0,0,1,.48832-.2481,3.01254,3.01254,0,0,0,.832.7832,1.28653,1.28653,0,0,0-.49412.5313,1.51657,1.51657,0,0,1-.1602.2637c-.0371.0488-.1104.1113-.0703.1797l.0029.0039c.01272.0214.0498.0234.0693.0195.1465-.0313.25-.2012.3321-.3164a3.78662,3.78662,0,0,1,.5469-.5449,6.5076,6.5076,0,0,0,3.0693.6875,22.04889,22.04889,0,0,0,6.1113-.8047,2.20985,2.20985,0,0,0,.3037.7539,4.49636,4.49636,0,0,0,.6133,1.0527c.0781.0801.2813-.0762.2305-.1699a3.57053,3.57053,0,0,1-.2998-1.0781,6.16174,6.16174,0,0,0-.2012-.6075c-.0146-.0488-.0264-.0976-.04-.1425a9.3257,9.3257,0,0,0,5.9355-4.9356,12.25086,12.25086,0,0,0,.957-4.2734,2.11253,2.11253,0,0,1,.3457-.1641c.1758-.0605.3624-.0937.54112-.1445.09368-.0254.24118-.2481.06638-.2227a2.72253,2.72253,0,0,0-.9395.2207c.0117-.4765.002-.9511-.0332-1.4257h.001a2.94027,2.94027,0,0,1,.9961-.5625c.24122-.0957.4736-.2149.7099-.3243.1211-.0547.2461-.1035.375-.1484-.0976.0371.8409-.2715.3848-.041-.0254.0137-.0322.0644.0059.0469a1.8355,1.8355,0,0,0,.3398-.168c.0283-.0156.0684-.0703.0293-.0957-.5859-.3594-1.5937.1797-2.1582.4023a4.94827,4.94827,0,0,0-.7324.3614c-.0488-.4336-.1143-.8653-.2002-1.2911-.0205-.1035-.0449-.1972-.0693-.2929a15.33142,15.33142,0,0,1,1.9628-4.9239c1.1934-1.6484,2.8789-2.5566,4.5313-3.6445C69.53173,29.80717,69.58053,29.60017,69.41453,29.66847Zm-7.748,16.4083c-1.459,4.5625-7.0215,5.2246-11.125,5.5898-2.1719.1914-4.4463-.4531-4.7276-2.834.0313.0254.0674.0488.1006.0742.8848,1.0332,3.33792,1.168,4.4238,1.2246,1.9043.0977,3.7686-1.0156,5.3457-1.9589,1.5127-.9063,3.7188-2.1094,4.69342-3.6329a9.81,9.81,0,0,0,1.16408-3.2656c.2031-.8965.1562-1.9199.29492-2.8398.10938.3047.19528.6035.26268.8554A12.24744,12.24744,0,0,1,61.66653,46.07677Z"/><path class="2ffed8b3-4342-4af6-ad85-abbccd42e6d0" d="M77.436,19.84427c.0293-.8691-.8301-1.9804-1.1895-2.5937a11.15029,11.15029,0,0,0-4.49508-4.3848,4.59308,4.59308,0,0,0-3.15532-.5234,15.28983,15.28983,0,0,0-2.2089.3906,16.7762,16.7762,0,0,1-3.3536-.1387c-.0429-.0019-.1621.084-.1035.1289,1.2305.9649,3.2442.6485,4.836.1953a1.26216,1.26216,0,0,0-.0762,1.0098,19.516,19.516,0,0,1-2.2559.709c-.05558.0078-.1572.1484-.0625.1484a10.39713,10.39713,0,0,0,2.4532-.4648,9.37423,9.37423,0,0,0,1.0009,1.6621,10.18429,10.18429,0,0,0,.9112,1.123c-.0606.0528-.1211.1094-.1836.1583a.4356.4356,0,0,1-.0957.0644c-.0059.002-.0899.0488-.045.0273-.0312.0157-.0683.0489-.0595.0879.0263.1133.2783-.039.5088-.207.05662.0586.1152.1172.1728.1758a2.57869,2.57869,0,0,1-.4346.2734c-.09958.0449-.1601.2559-.0058.1875a3.56843,3.56843,0,0,0,.5723-.3281c.1445.1426.291.2852.4433.4219-.3398.1992-.668.4238-.9863.6328a8.3446,8.3446,0,0,0-.8545.6836c-.249.2168-.51658.6211-.8145.7734-.0283.0156-.0849.1074-.0185.1074.1318.0039.14842-.0312.2539-.1289.3603-.33.749-.6328,1.1289-.9394a9.44989,9.44989,0,0,1,1.5469-.9102c.3222.2754.6582.5391,1.0019.7871-.0488.0508-.0967.1036-.1406.1524a15.1139,15.1139,0,0,0-1.3047,1.7422c-.0742.1074.0547.1367.1172.0547.3877-.502.7793-1,1.21292-1.4649a4.62565,4.62565,0,0,1,.34078-.3262c.3994.2754.8076.5293,1.2178.7637-.2744.4414-.4453.9844-.6797,1.4102-.0723.1308.1123.0937.16212.0156.18848-.293.34958-.6035.51758-.9102a3.69022,3.69022,0,0,1,.2441-.3789c.2354.1289.4707.2539.7071.3672a6.34156,6.34156,0,0,0,1.2148.4512,5.36124,5.36124,0,0,0-1.0664,2.7402c-.0195.1348.2021.0117.2246-.0625a8.51107,8.51107,0,0,1,.6338-1.4922,5.18585,5.18585,0,0,0,.5635-1.1191,2.044,2.044,0,0,0,.664-.0039,10.34743,10.34743,0,0,0-.3242,3.7012c.0098.1543.2315.0078.2393-.0918a30.02063,30.02063,0,0,1,1.0273-4.5547A.21265.21265,0,0,0,77.436,19.84427Zm-1.31058.3672a1.16113,1.16113,0,0,1,.045-.1738.10849.10849,0,0,0-.045-.1367.1336.1336,0,0,0-.04492-.0137c.0684-.9258-2.9424-3.9434-3.2402-4.1836-.4785-.3887-3.4512-2.5293-4.209-2.0625-.0137-.457.209-.791,1.0293-.6445a7.31593,7.31593,0,0,1,3.2529,1.5605,13.54016,13.54016,0,0,1,3.58892,4.793C76.83445,20.03957,76.57663,20.23687,76.12545,20.21147Z"/><path class="fbe53547-9ad0-4aad-aad4-735aa2399213" d="M55.35493,14.00837c-1.7744-.6563-3.498-1.3828-5.2822-1.9629a1.21084,1.21084,0,0,0-.4785-1.0684c.1113-.0312.2148-.0605.3066-.082,1.3535-.3164,2.7481-.4805,4.0703-.9199.086-.0293.1807-.2442.0352-.207-1.1553.2988-2.3672.3945-3.54388.58-.44242.0684-.88192.1563-1.32132.2403a11.39753,11.39753,0,0,0-1.0918-.7149c.1679-.125.3242-.2656.4326-.3379a8.49576,8.49576,0,0,0,1.3506-.9589c.0898-.0899.0117-.1836-.086-.0977A20.07238,20.07238,0,0,1,47.71245,9.692c-.11822-.0547-.24322-.0977-.36632-.1406.0235-.0332.0469-.0664.07232-.0977.166-.2031.34178-.4004.499-.6113.10648-.1426-.07322-.1817-.16012-.0723-.1944.2442-.4151.4688-.6172.709-.1572-.0469-.3174-.0879-.4815-.1211a7.15073,7.15073,0,0,0-1.3291-.4238c.0176-.4844-.0752-1.0059-.0986-1.4258a13.69336,13.69336,0,0,0-.1894-2.9414c-.0264-.0957-.1875.0312-.1739.1074a11.20832,11.20832,0,0,1-.0761,2.6563c-.0352.4941-.0157.9961-.0332,1.4941-.3262-.0508-.6563-.0859-.9805-.1074a6.57336,6.57336,0,0,0-.4785-1.0957c-.04688-.1172-.25388.0371-.2227.1367.0596.1973.13482.3887.21.5781.0459.1172.083.2403.122.3613a8.06015,8.06015,0,0,0-1.8593.1329c-.127-.0938-.252-.1875-.38088-.2774-.48922-.3398-1.27442-.6426-1.543-1.2109-.05462-.1153-.25392.0371-.22262.1367.1758.543.8232,1.0019,1.25,1.3477.0762.0625.1543.1367.2314.2128a2.06965,2.06965,0,0,0-.4629.2696c-.29588-.084-.6181-.1172-.913-.1739-.6495-.123-1.29688-.1718-1.9395-.3496-.0645-.0175-.1836.1075-.10738.1328a10.5381,10.5381,0,0,0,1.48528.3887c.3994.0781.8106.2403,1.22172.3184-.19532.4609.26368.9726.85938,1.4023-.0742.0293-.1485.0567-.2207.0879a2.139,2.139,0,0,0-.80668.4473c-.07912.0898.002.1582.09568.1094a5.74308,5.74308,0,0,1,1.2608-.4219c.0869.0547.1767.1094.2627.1601-.5293.2168-1.0528.4551-1.5781.6524a25.47284,25.47284,0,0,1-3.4747,1.3457c-.0859.0176-.1992.2031-.0556.1855a15.05316,15.05316,0,0,0,2.626-.8359c1.0117-.3262,2.0293-.6621,3.0175-1.0625.125.0605.2422.1152.34572.1601a10.7911,10.7911,0,0,0,2.01958.6426c-.0752.2305-.1358.4649-.1953.7051a18.27667,18.27667,0,0,0-.4444,2.0293c-.0224.1641.2598.0273.2832-.0801a21.8965,21.8965,0,0,1,.83992-2.5586,12.77444,12.77444,0,0,0,1.94818.1758c.0977.168.2305.3262.3291.4863.0498.0821.2276-.0625.1934-.1425q-.0762-.1758-.1553-.3457c.0527-.002.1035,0,.1543-.002.0684-.0019.1504,0,.23732,0,.085.0801.17288.1543.24708.2266.2675.2597.54492.5117.8271.7558.1026.0899.3369-.1074.2442-.2148-.2149-.25-.4229-.5039-.628-.7637a3.50308,3.50308,0,0,0,1.0713-.1523c.6797.1504,1.3662.2793,2.0274.4629,1.248.3476,2.4658.8164,3.7197,1.1289C55.30323,14.231,55.45945,14.04747,55.35493,14.00837Z"/><path class="09170278-7c22-427f-809c-0e1faf8198ce" d="M69.90863,61.66657c-1.1943.459-2.36518.9902-3.5117,1.5586a25.21012,25.21012,0,0,0-3.5722,2.0039A4.73075,4.73075,0,0,0,60.604,67.065c-.6934,1.2735,1.4101,1.166,2.1289,1.084a18.98281,18.98281,0,0,0,6.6289-2.3613c1.5175-.8184,3.8193-2.1953,4.6894-3.7305C75.46923,59.55327,70.644,61.38137,69.90863,61.66657Z"/><path class="f02ac1b0-b480-4485-bf42-fb77d283f694" d="M19.92233,33.56307a18.16789,18.16789,0,0,1-4.87788.7695c-1.083-.0351-2.09282-.1445-3.16992-.1094a8.79737,8.79737,0,0,0-.7334-3.2812,7.79137,7.79137,0,0,1,1.2402-.2031,14.27954,14.27954,0,0,0,1.5254-.3575c.0996-.0234.2363-.25.0664-.2226-.55268.0918-1.1074.2129-1.666.2734a2.9686,2.9686,0,0,0-1.2832.2774c-.0274-.0528-.0547-.1036-.0801-.1563.1289-.0195.2588-.0332.3887-.0644a2.11252,2.11252,0,0,0,.58792-.2266c.122-.0723.10448-.25-.05282-.168a1.7538,1.7538,0,0,1-.8017.1817.92635.92635,0,0,0-.2598.0332,2.4756,2.4756,0,0,0-.2939-.3809,2.03043,2.03043,0,0,0,.32522-.0234,5.93314,5.93314,0,0,0,1.46578-.6602,3.56622,3.56622,0,0,0,1.8105-1.6367c.041-.0977-.1074-.0605-.1396-.0156a4.82132,4.82132,0,0,1-3.3155,1.4336,1.67409,1.67409,0,0,0-1.3886.3789,1.265,1.265,0,0,0-.7735.4472,6.64906,6.64906,0,0,0-1.3222,2.3614,17.07038,17.07038,0,0,0-1.7637,10.5976c.1504.7852.5557,2.4688,1.6211,2.4981a6.422,6.422,0,0,0,1.2685.5625,18.53913,18.53913,0,0,1,1.78522.8652c.85448.459,1.16108,1.1543,1.76368,1.8399.0674.0761.2177-.0625.19332-.1426a6.74286,6.74286,0,0,0-.69042-1.5977c-.2598-.4238-1.0478-.7031-1.4629-.9101a15.78958,15.78958,0,0,0-1.8525-.7403c-.03618-.0117-.11618-.0312-.2198-.0566a4.20747,4.20747,0,0,0,1.6485-1.75c.2422.0781.4883.1504.7226.2285a9.51669,9.51669,0,0,1,1.43752.7598c.09378.0488.27148-.1348.16508-.2032a10.02072,10.02072,0,0,0-1.3526-.8671c-.248-.1094-.4961-.2188-.748-.3204.1768-.33.332-.6523.4668-.9277.0498-.1035.0986-.2109.1484-.3184.3106.0704.6211.1368.9336.2032.9375.1972,1.918.4941,2.8613.6035.1211.0137.31742-.2246.1436-.2637-.4893-.1074-.94818-.373-1.4268-.5273-.4238-.1348-.8671-.2168-1.2968-.3282-.2852-.0722-.6153-.205-.9492-.2988a18.21728,18.21728,0,0,0,.97262-3.1836c.05958-.0468.16208-.164.06448-.1933a.08076.08076,0,0,1-.02348-.0157,15.98259,15.98259,0,0,0,.24608-1.7773c.2617.0078.5244.0117.7852.0391.5019.0507.9931.1894,1.498.2011.09672.002.26172-.1992.1172-.2148-.4844-.0547-.9492-.2363-1.4307-.3242a4.79864,4.79864,0,0,0-.9394-.0742c.0127-.2227.0225-.4454.0244-.6661.1777.0293.3818.0235.6484.0411.8555.0585,1.7344.1855,2.5899.1679a15.21777,15.21777,0,0,0,4.7656-1.3613C19.96333,33.72907,20.06493,33.524,19.92233,33.56307Zm-9.2617-2.1934c-.90718,2.0488-2.0703,3.8633-2.5703,6.084a14.8745,14.8745,0,0,0,.3418,6.3125c-.6231.6231-1.3321.8223-1.8594-.3652a6.93511,6.93511,0,0,1-.4238-2.75.14105.14105,0,0,0,.082-.043l.0059-.002a2.55223,2.55223,0,0,0,.6787-.08.30305.30305,0,0,0,.2217-.1934.09593.09593,0,0,0-.0479-.125l.0049-.0058c-.293-.0821-.6611-.0079-.92578-.1915a.1535.1535,0,0,0-.02152-.0078c-.0029-.3261.0039-.6679.0156-1.0117a3.25085,3.25085,0,0,0,.6602-.2265c.1289-.0586.2236-.3204.0078-.2481a2.155,2.155,0,0,1-.6523.1328,22.39539,22.39539,0,0,1,.3916-3.3633c.0088.0625.1299-.0039.14262-.0527a30.44416,30.44416,0,0,1,1.40908-3.959c.8028-1.875,1.9414-1.0508,2.6104.0176A.2119.2119,0,0,0,10.66063,31.36967Z"/><path class="41d06457-63d3-4856-90cf-85c576bc3b00" d="M7.21723,36.983c-.1191,0-.2363.0117-.3554.0059a.68733.68733,0,0,1-.3223-.1289c-.07808-.0391-.1777.0566-.2002.125-.1211.3808.5889.2519.7764.2402C7.21433,37.22127,7.36673,36.985,7.21723,36.983Z"/><path class="6277c50d-c924-4f47-87e2-2f7c4432c71c" d="M36.14893,65.34427l-.003-.0019a1.3722,1.3722,0,0,0-2.3759-.7031.7397.7397,0,0,0,.1406,1.0292,1.83427,1.83427,0,0,0,.832.7422,1.03464,1.03464,0,0,0,1.3487-.6504,1.02279,1.02279,0,0,0,.0537-.291C36.184,65.42437,36.20263,65.36967,36.14893,65.34427Z"/><path class="9acd9b68-7a73-459d-9b02-450e87eaa1d6" d="M18.87745,62.04747c-.55862-.5821-1.09182-1.3243-1.99712-1.0665a.91088.91088,0,0,0-.6328,1.1875.51077.51077,0,0,0,.0674.3379c.459.7735,1.998,1.7793,2.8369,1.084C19.73873,63.106,19.27973,62.46537,18.87745,62.04747Z"/><path class="73316926-acb1-4895-a11c-b17bdd1d52ed" d="M71.05513,47.776a1.59518,1.59518,0,0,0-.8984.4902,1.47363,1.47363,0,0,0-.5078.8906.22765.22765,0,0,0,.1299.2305,1.00192,1.00192,0,0,0,.84662-.1543c.22068-.1406.62888-.5176.57038-.8281a1.5185,1.5185,0,0,0,.1259-.3262C71.37353,47.87357,71.25633,47.76227,71.05513,47.776Z"/><path class="68f3478a-1940-490c-b175-49e87d2ee341" d="M78.14113,37.01817a1.23256,1.23256,0,0,0-1.9102-.1036,4.10419,4.10419,0,0,0-.97848,1.5157,5.59629,5.59629,0,0,0-.834,2.1015,3.37149,3.37149,0,0,0,.12888,1.3086c.0098.0703.0176.1406.0313.211a1.21735,1.21735,0,0,0,1.8164.8808,2.62914,2.62914,0,0,0,1.5175-.9629A4.59887,4.59887,0,0,0,78.14113,37.01817Z"/><path class="8750be5b-9367-4b33-a85f-0e63def69f80" d="M76.31293,32.29547a.30587.30587,0,0,0-.3457-.0879.51011.51011,0,0,0-.4179.4746,1.33522,1.33522,0,0,0-.04788.2246c-.01662.1172.10738.168.20118.1524a.49283.49283,0,0,0,.3183-.2383c.0108-.0156.0186-.0332.0274-.0488.0264-.0137.0517-.0254.07912-.0411C76.25833,32.649,76.42045,32.45367,76.31293,32.29547Z"/><path class="38c24c53-b624-4171-9a10-6cc215d1c9fc" d="M60.66453,14.942a.98114.98114,0,0,0-1.3848-.0899c-.0605-.0078-.1582.084-.1425.1485a.09043.09043,0,0,0,.0058.0215.344.344,0,0,0,.1016.5117.99027.99027,0,0,0,.2324.1055.99379.99379,0,0,0,.7148.3242A.61765.61765,0,0,0,60.66453,14.942Z"/><path class="e6df56b5-2bce-4b73-a948-910ecca5b6c6" d="M44.73683,2.274c-5.2627-1.248-10.6797,1.1836-15.2608,3.6582-.0957.0528-.1279.2324.0235.1836,2.3964-.793,4.6797-1.918,7.0947-2.7051a19.47817,19.47817,0,0,1,8.0508-.9668C44.72213,2.44977,44.84813,2.30137,44.73683,2.274Z"/></g></g></g></g></svg>