<svg xmlns="http://www.w3.org/2000/svg" xmlns:xlink="http://www.w3.org/1999/xlink" viewBox="0 0 82.15431 73.14258"><defs><style>.\30 d813b04-462d-434d-9f08-c08bf1b97a26{isolation:isolate;}.c7e65dbb-9307-4954-8c24-d7516670906d{fill:url(#6c5a2015-9be3-486a-a7aa-7d91c8d63a77);}.af44b9ca-330c-44ac-99cf-2801c50dd83d{fill:#a898ab;mix-blend-mode:multiply;}.af44b9ca-330c-44ac-99cf-2801c50dd83d,.cbe7d5ec-d9e4-4ffb-9e6e-996eec44a8dc{opacity:0.6;}.cbe7d5ec-d9e4-4ffb-9e6e-996eec44a8dc{fill:#4a5ca9;mix-blend-mode:color-dodge;}.\38 4fd3ddc-fbf2-4693-a739-a5717bfcf568{fill:url(#9ff83724-8255-40e6-8a4c-f1bca770e5ca);}.\32 aa74083-8d3d-498e-873c-07f90a0e2d45{fill:url(#df187d41-2da6-4ddb-8c5f-49908bb8e2ff);}.\39 3487031-8642-45c0-9f94-c9a38f87afe5{fill:url(#fbf8bbc4-1aac-4792-877a-f5f015ee19f8);}.\30 ecf74b6-39a5-4b42-a06f-ae6564a6accc{fill:url(#4a679f80-dd05-4238-bd30-95d0c9e66e17);}.\37 360ae05-427b-48c3-a3c1-9667c93fcf6c{fill:url(#e9fb1d0c-b04e-414f-81f6-91fc583734f7);}.\33 9471826-118b-4fdf-8122-dc30d3a03396{fill:url(#d3ac97d7-2e4f-40d8-a59f-aba1dcb7038a);}.\34 df2849d-ab16-454f-8fc1-8922382bdba4{fill:url(#a922c674-ddfb-4446-9d4c-b2352121793b);}.\35 1b8144c-8517-4d66-81b4-d16a51f95f9c{fill:url(#b72eee4f-d357-421d-9a8f-34ec43c2b7a8);}.\37 6583460-3062-4830-804c-5ec74539b52b{fill:url(#4789903f-dfaf-4b2f-9817-b28494401b17);}.ac2827b7-e981-409d-9c89-1e93f3ead76e{fill:url(#5bea89f4-4f2e-41b9-ba5f-284d61a2f462);}.\39 21a8e5c-b407-43c2-a38e-79d5be7f98e0{fill:url(#651ac161-9fbf-46cc-afec-9fe01a365d81);}.af7af9a4-a685-4366-ad08-a7b662a96252{fill:url(#175f483d-b9d3-4d89-8b1c-af870a9ed96b);}.\31 8e190a2-6aca-4fa0-8de7-ea2a69bef9e4{fill:url(#bd474891-22ed-4824-a44b-222fd635a1e0);}.b3b5540b-6fe2-4c09-85e9-be73652840a9{fill:url(#5557175c-41a1-4111-a4bc-3375572e061a);}</style><radialGradient id="6c5a2015-9be3-486a-a7aa-7d91c8d63a77" cx="13.01234" cy="-7.56046" r="89.69102" gradientUnits="userSpaceOnUse"><stop offset="0.40964" stop-color="#00add4"/><stop offset="0.90525" stop-color="#205"/></radialGradient><radialGradient id="9ff83724-8255-40e6-8a4c-f1bca770e5ca" cx="88.14662" cy="36.1445" r="118.18832" gradientUnits="userSpaceOnUse"><stop offset="0.40832" stop-color="#020202"/><stop offset="0.90525" stop-color="#a06d7e"/></radialGradient><radialGradient id="df187d41-2da6-4ddb-8c5f-49908bb8e2ff" cx="88.14835" cy="36.14475" r="118.19159" gradientUnits="userSpaceOnUse"><stop offset="0.40832" stop-color="#32485d"/><stop offset="0.90525" stop-color="#a06d7e"/></radialGradient><radialGradient id="fbf8bbc4-1aac-4792-877a-f5f015ee19f8" cx="88.1486" cy="36.14547" r="118.18997" gradientUnits="userSpaceOnUse"><stop offset="0.40832" stop-color="#070707"/><stop offset="0.90525" stop-color="#a06d7e"/></radialGradient><radialGradient id="4a679f80-dd05-4238-bd30-95d0c9e66e17" cx="88.1488" cy="36.1446" r="118.18987" xlink:href="#df187d41-2da6-4ddb-8c5f-49908bb8e2ff"/><radialGradient id="e9fb1d0c-b04e-414f-81f6-91fc583734f7" cx="88.14873" cy="36.14646" r="118.19432" xlink:href="#df187d41-2da6-4ddb-8c5f-49908bb8e2ff"/><radialGradient id="d3ac97d7-2e4f-40d8-a59f-aba1dcb7038a" cx="88.14951" cy="36.14623" r="118.19073" xlink:href="#df187d41-2da6-4ddb-8c5f-49908bb8e2ff"/><radialGradient id="a922c674-ddfb-4446-9d4c-b2352121793b" cx="88.14971" cy="36.14489" r="118.19288" xlink:href="#9ff83724-8255-40e6-8a4c-f1bca770e5ca"/><radialGradient id="b72eee4f-d357-421d-9a8f-34ec43c2b7a8" cx="88.12298" cy="36.14542" r="118.15521" xlink:href="#df187d41-2da6-4ddb-8c5f-49908bb8e2ff"/><radialGradient id="4789903f-dfaf-4b2f-9817-b28494401b17" cx="88.14356" cy="36.14952" r="118.17901" xlink:href="#df187d41-2da6-4ddb-8c5f-49908bb8e2ff"/><radialGradient id="5bea89f4-4f2e-41b9-ba5f-284d61a2f462" cx="88.14494" cy="36.14475" r="118.18661" xlink:href="#df187d41-2da6-4ddb-8c5f-49908bb8e2ff"/><radialGradient id="651ac161-9fbf-46cc-afec-9fe01a365d81" cx="88.14339" cy="36.1518" r="118.14696" xlink:href="#df187d41-2da6-4ddb-8c5f-49908bb8e2ff"/><radialGradient id="175f483d-b9d3-4d89-8b1c-af870a9ed96b" cx="88.15064" cy="36.14495" r="118.2044" xlink:href="#df187d41-2da6-4ddb-8c5f-49908bb8e2ff"/><radialGradient id="bd474891-22ed-4824-a44b-222fd635a1e0" cx="88.14932" cy="36.1496" r="118.20743" xlink:href="#df187d41-2da6-4ddb-8c5f-49908bb8e2ff"/><radialGradient id="5557175c-41a1-4111-a4bc-3375572e061a" cx="88.14753" cy="36.1576" r="118.21267" xlink:href="#df187d41-2da6-4ddb-8c5f-49908bb8e2ff"/></defs><title>rock1</title><g class="0d813b04-462d-434d-9f08-c08bf1b97a26"><g id="0c9a282e-e3f8-4364-a7d7-de23546045b6" data-name="Layer 2"><g id="04090e8b-5975-471b-8e86-b71d7b636cb8" data-name="Layer 1"><g id="d0b77338-daa5-4f30-a80c-34c4b63b7935" data-name="rock 1"><path class="c7e65dbb-9307-4954-8c24-d7516670906d" d="M81.15677,37.17047c.1318-5.1465,1.9023-10.4102.3896-15.4805-1.2705-4.2578-4.8105-7.6699-8.5732-9.8242-4.3926-2.5117-9.5606-2.1348-14.0069-4.4102-2.1123-1.0801-3.6787-2.9687-5.6025-4.3183a16.83721,16.83721,0,0,0-6.3789-2.8164,20.01226,20.01226,0,0,0-12.10353,1.7207c-2.125.9902-4.1846,2.0918-6.3906,2.9004-2.1778.8007-4.502,1.1347-6.6924,1.9179a20.579,20.579,0,0,0-9.0723,6.7207c-1.0693,1.3594-1.2822,3.1817-1.5146,4.836-.045.3164-.1055.6308-.1797.9375-2.3291,3.5117-5.6328,6.2265-8.0449,9.7539-2.8692,4.1894-3.3184,9.4531-2.8008,14.3691.5283,5.0371,3.99513,9.4668,7.3769,13.0293,1.8496,1.9453,3.49223,4.0469,5.45223,5.8906,1.85637,1.75,2.80947,4.2071,4.17867,6.3164,2.6387,4.0625,6.9658,5.1817,11.5176,3.9629,2.3593-.6328,4.582-1.6894,6.9023-2.4433,3.1338-1.0215,6.2305-.5899,9.377.082a35.92543,35.92543,0,0,0,16.041-.0332A41.36335,41.36335,0,0,0,74.065,65.231C83.24367,59.26617,80.91947,46.399,81.15677,37.17047Z"/><path class="af44b9ca-330c-44ac-99cf-2801c50dd83d" d="M81.15677,37.17047c.1318-5.1465,1.9023-10.4102.3896-15.4805-1.2705-4.2578-4.8105-7.6699-8.5732-9.8242-4.3926-2.5117-9.5606-2.1348-14.0069-4.4102-2.1123-1.0801-3.6787-2.9687-5.6025-4.3183a16.83721,16.83721,0,0,0-6.3789-2.8164,20.01226,20.01226,0,0,0-12.10353,1.7207c-2.125.9902-4.1846,2.0918-6.3906,2.9004-2.1778.8007-4.502,1.1347-6.6924,1.9179a20.579,20.579,0,0,0-9.0723,6.7207c-1.0693,1.3594-1.2822,3.1817-1.5146,4.836-.045.3164-.1055.6308-.1797.9375-2.3291,3.5117-5.6328,6.2265-8.0449,9.7539-2.8692,4.1894-3.3184,9.4531-2.8008,14.3691.5283,5.0371,3.99513,9.4668,7.3769,13.0293,1.8496,1.9453,3.49223,4.0469,5.45223,5.8906,1.85637,1.75,2.80947,4.2071,4.17867,6.3164,2.6387,4.0625,6.9658,5.1817,11.5176,3.9629,2.3593-.6328,4.582-1.6894,6.9023-2.4433,3.1338-1.0215,6.2305-.5899,9.377.082a35.92543,35.92543,0,0,0,16.041-.0332A41.36335,41.36335,0,0,0,74.065,65.231C83.24367,59.26617,80.91947,46.399,81.15677,37.17047Zm-18.043-16.6817a6.36924,6.36924,0,0,1-3.1621,2.1739,8.80778,8.80778,0,0,0-4.168,3.291c-1.0752,1.6367-1.8965,3.4238-2.83,5.1426a10.41979,10.41979,0,0,1-2.6993,3.7558c-.7793.543-1.6679.8555-2.4482,1.375-1.1231.7481-1.1709,1.7344-1.4326,2.918a2.67975,2.67975,0,0,1-2.374,2.2285c-3.7374.8281-7.33213,3.0312-8.79793,6.6758,2.4961-1.125,5.1777-2.4746,7.92583-1.5918a.302.302,0,0,1,0,.5781c-3.34383,1.0547-6.57523,4.9844-7.416,8.3457-.3662,1.4668-.4424,5.7305-2.8809,5.543-1.4512-.1114-2.7031-1.0254-4.0723-1.4492a8.48479,8.48479,0,0,0-5.8125-.0782c-.93057.3907-1.8789,1.4473-2.9355,1.291-1.3789-.205-1.4453-2.3125-3.041-2.2597-1.16207.039-2.2246.3594-3.2403-.4199a28.636,28.636,0,0,1-2.7089-2.6016c-2.2676-2.2656-4.9395-4.3848-6.8565-6.9629-2.499-3.3613-3.0918-7.9883-2.5185-12.0469a19.08307,19.08307,0,0,1,.8164-3.4726,18.51329,18.51329,0,0,1,4.7968-7.0254,26.4249,26.4249,0,0,1,3.6231-2.5723c1.84283-1.2773,1.5762-2.9336,1.5527-4.9433-.00287-.2422.3418-.42.5108-.211a9.152,9.152,0,0,1,1.5048,3.7442c.461-2.4746,1.0079-5.3789,3.3946-6.543.66793-.3262,2.1133-1.2148,2.873-.9043a8.47152,8.47152,0,0,1,2.3711,2.0312c-.4121-1.3261-.94717-2.6132-1.3144-3.957a.307.307,0,0,1,.2099-.3691c1.3037-.4649,1.78133-2.1192,3.1045-2.4805a4.965,4.965,0,0,1,1.55283-.1445,8.68942,8.68942,0,0,0-.82233-.8418.30268.30268,0,0,1,.1328-.5,12.62675,12.62675,0,0,0,2.5566-1.1055c-.53507-.0273-1.0683.0059-1.6093.0195-.3653.0098-.3711-.4668-.0801-.5878,4.7871-1.9883,9.1172-5.004,14.4424-5.3125,1.80373-.1036,4.10063.0722,5.17283,1.7558.7422,1.166.0528,3.6895-.4004,4.8555-.0957.2461-.5195.3222-.5781,0a23.6912,23.6912,0,0,1-.2832-2.6719,12.22636,12.22636,0,0,1-.8418,2.6191.30313.30313,0,0,1-.4101.1075q-1.53675-.87015-3.04893-1.7832c.09963.2304.1963.4609.2969.6914.1045.2402-.1387.6093-.4102.4101-1.03407-.7597-3.8242-1.8457-4.8652-.541-.9492,1.1895.9629,2.9434,1.3994,4.0156a.29487.29487,0,0,1-.1377.3379c-1.8115.8887-4.5273,1.127-5.5918,3.0196,1.9844.6757,4.4219.2187,6.40823-.127.94727-.166,1.89457-.3398,2.83787-.5273.461-.0899,1.1074-.3028,1.5528-.0411,1.15623.6758.2402,2.6133-.2422,3.3965a34.94982,34.94982,0,0,0-2.0528,3.4805,1.78576,1.78576,0,0,0-.0214.2754c2.2001-.8027,3.40823-3.084,5.26953-4.4141a.30092.30092,0,0,1,.4394.1778,6.45563,6.45563,0,0,1,.1797,1.5507,7.51487,7.51487,0,0,0,.1035,1.1289c.125.584.6416.4551.8145-.0507a19.93825,19.93825,0,0,1,1.0059-3.2832c.2832-.5137.7265-1.0469,1.373-.752,1.0215.4649,1.5918,1.3242,2.7168,1.4492a5.057,5.057,0,0,0-1.0215-1.6113.29987.29987,0,0,1,.4238-.4238,18.33424,18.33424,0,0,0,6.459,3.7617,17.56551,17.56551,0,0,1,5.1973,2.0508A.30469.30469,0,0,1,63.11377,20.48877Z"/><path class="cbe7d5ec-d9e4-4ffb-9e6e-996eec44a8dc" d="M12.6,22.47517c-1.375,1.0351-2.4414,2.3808-3.8457,3.416a19.61975,19.61975,0,0,0-3.1377,2.8906,14.98318,14.98318,0,0,0-3.5244,8.7754,15.62853,15.62853,0,0,0,2.5137,9.7656,29.14564,29.14564,0,0,0,3.6377,4.3067,19.10711,19.10711,0,0,0,3.1846,3.1406c.0937.0625.2968-.1328.2138-.2227-4.25287-4.6328-8.5127-9.3164-8.7744-15.9277a14.42185,14.42185,0,0,1,3.2539-9.6055,22.3295,22.3295,0,0,1,3.3438-3.1543c1.1992-1,2.041-2.2929,3.21583-3.291C12.77484,22.48877,12.69384,22.40477,12.6,22.47517Z"/><path class="84fd3ddc-fbf2-4693-a739-a5717bfcf568" d="M26.91844,7.16067c-.2988.1035-1.2725.002-1.9492.1426-.2168-.4531-1.3008-.0606-1.6582.0722a29.30824,29.30824,0,0,0-5.7188,2.6114,10.49247,10.49247,0,0,0-2.16007,1.8047c-1.02543.875-2.12313,2.0234-2.15823,3.1191v.0078a2.889,2.889,0,0,0,.0273.7246,9.95227,9.95227,0,0,0-.0127,1.0391c.0332.1504.26863-.0449.2744-.1387a4.41043,4.41043,0,0,1,.2598-.9902,1.05851,1.05851,0,0,0,.0361-.2813,4.86813,4.86813,0,0,0,1.2198-.3047q.0234.15825.0644.334a9.33752,9.33752,0,0,1,.1416,1.0547,3.81625,3.81625,0,0,1,.0908,1.1699c-.0547.1993.2285.0977.2793-.0117a5.15136,5.15136,0,0,0,.2227-1.6211,4.31909,4.31909,0,0,0,.001-.959,1.65422,1.65422,0,0,1-.003-.2871,19.01725,19.01725,0,0,0,3.5508-2.0527c.0254.0391.0518.0781.0762.1172.1758.2871.3506.5644.5019.8652.0625.1231.2813-.041.2432-.1484a7.29258,7.29258,0,0,0-.3623-.875c-.0352-.0684-.0664-.1426-.0977-.2188.0664-.0488.1338-.0957.2012-.1445.1387.25.3086.4941.418.7188a11.04322,11.04322,0,0,0,.9551,1.7636c.0742.0996.2695-.082.2382-.1777-.206-.6582-.3037-1.334-.5498-1.9805-.0888-.2324-.208-.5586-.3545-.8535.2598-.1973.5186-.3945.7715-.5898.2266-.1758.4473-.3575.666-.545a20.59022,20.59022,0,0,0,1.836-1.5136.75873.75873,0,0,0,.1191-.1407c.166.0293.3496.0274.502.0547.3847.0703.75783.1973,1.1367.291.1035.0254.3047-.1953.1709-.2558a5.76634,5.76634,0,0,0-1.4365-.6192c.0234-.0234.0468-.0488.0722-.0722a.91409.91409,0,0,0,.1641-.0137,3.26054,3.26054,0,0,1,.8301.1094c.0537.0058.167-.1133.0918-.1367-.2442-.0801-.4844-.1953-.7344-.252a7.2318,7.2318,0,0,0,2.0586-.6113C27.04344,7.30327,27.09224,7.09817,26.91844,7.16067Zm-2.7656.8301c-.05567.0039-.1309.0703-.1055.1191-.16017-.3008-5.65817,2.8262-6.0293,3.086a23.374,23.374,0,0,0-3.66887,2.83,3.43046,3.43046,0,0,1,.01657-.5351c.0117-.0156.02343-.0313.0341-.0469a16.20152,16.20152,0,0,1,6.419-4.6211c.8887-.3574,1.7891-.6875,2.6875-1.0195C24.23484,7.53377,24.34034,7.68017,24.15284,7.99077Z"/><path class="2aa74083-8d3d-498e-873c-07f90a0e2d45" d="M29.26024,66.649c-.4648-2.1348-3.3457-4.2891-5.5-3.7168a.27177.27177,0,0,0-.0313.0137c-1.0566-.1075-2.0937.0722-2.1777,1.0664-.1836,2.1621,3.3008,3.9082,4.9844,4.3789C28.16254,68.84817,29.67824,68.57277,29.26024,66.649Z"/><path class="93487031-8642-45c0-9f94-c9a38f87afe5" d="M69.41457,29.66847c-3.1162,1.2715-6.5527,4.0957-6.8984,7.6699a2.69305,2.69305,0,0,0-.3653-.4765,11.69532,11.69532,0,0,1,.3672-2.8223c.0352-.1172-.1367-.041-.1621.0274a9.88445,9.88445,0,0,0-.5664,2.4765,3.631,3.631,0,0,0-2.334-.5254,6.77388,6.77388,0,0,0-1.9219.1348,7.45648,7.45648,0,0,1-.2402-1.7832,6.20141,6.20141,0,0,1,.8496-3.4434c.0996-.1113-.0371-.1718-.1299-.0957-.8838.7285-1.1054,2.2735-1.2685,3.3379a8.07772,8.07772,0,0,0-.0215,2.1973,14.12838,14.12838,0,0,0-2.8799,1.3515,26.6667,26.6667,0,0,0-3.5576,2.4981c-.0674-.0664-.1406-.1289-.2051-.1992-.2129-.2246-.4277-.4395-.6309-.6739a4.24875,4.24875,0,0,0-.6621-.6289,5.98864,5.98864,0,0,1-.664-.4707c-.0821-.08-.2715.086-.2012.1758a4.95526,4.95526,0,0,0,.4824.4453,7.54189,7.54189,0,0,1,.7032.7813c.207.2676.4218.5273.6367.791.0429.0527.081.0996.1181.1426-.1132.0996-.2197.207-.331.3086a2.5186,2.5186,0,0,1-.211-.1953,4.13169,4.13169,0,0,0-.5752-.543c-.0673-.0469-.2255.1035-.1591.164a4.45351,4.45351,0,0,1,.5244.6465c.0459.0606.0967.1231.1504.1817-.4366.416-.8643.8457-1.2627,1.3027a7.1602,7.1602,0,0,0-2.5957-.1836,10.99586,10.99586,0,0,0-4.791,1.3594c-.0664.0332-.086.168.0166.1269a12.01649,12.01649,0,0,1,5.07323-.9589,7.09483,7.09483,0,0,1,1.7754.2851c-.0254.0313-.0537.0606-.0791.0938a11.038,11.038,0,0,0-2.2549,4.7636,6.52512,6.52512,0,0,0-2.5459,1.2246,10.04051,10.04051,0,0,0-1.60063,1.6875c-.3711.4922-.5293,1.4141-.9609,1.8145-.043.043-.0527.1406.0351.1055.6368-.2598,1.1289-1.5332,1.5479-2.0196a7.35905,7.35905,0,0,1,3.44143-2.1445,6.4989,6.4989,0,0,0-.0186.7168,2.8848,2.8848,0,0,0,.3165,1.2539,2.15069,2.15069,0,0,0-.6807.5078c-.3408.3613-.5938.793-.9258,1.1621-.1103.1231.0459.2071.1475.1094.2578-.248.4785-.5273.7148-.7949a3.86056,3.86056,0,0,1,.4434-.4238,2.44,2.44,0,0,1,.4883-.2481,3.0131,3.0131,0,0,0,.832.7832,1.28627,1.28627,0,0,0-.4942.5313,1.50542,1.50542,0,0,1-.1601.2636c-.0371.0489-.1104.1114-.0703.1797l.0029.0039c.0127.0215.0498.0235.0693.0196.1465-.0313.25-.2012.3321-.3164a3.79164,3.79164,0,0,1,.5468-.545,6.50794,6.50794,0,0,0,3.0694.6875,22.04514,22.04514,0,0,0,6.1113-.8047,2.20824,2.20824,0,0,0,.3037.7539,4.497,4.497,0,0,0,.6133,1.0528c.0781.0801.2813-.0762.2305-.1699a3.572,3.572,0,0,1-.2998-1.0782,6.16867,6.16867,0,0,0-.2012-.6074c-.0147-.0488-.0264-.0976-.04-.1426a9.32585,9.32585,0,0,0,5.9355-4.9355,12.25136,12.25136,0,0,0,.957-4.2734,2.10864,2.10864,0,0,1,.3457-.1641c.1758-.0606.3623-.0938.5411-.1445.0937-.0254.2412-.2481.0664-.2227a2.71972,2.71972,0,0,0-.9395.2207c.0117-.4766.002-.9512-.0332-1.4258h.001a2.94344,2.94344,0,0,1,.9961-.5625c.2412-.0957.4736-.2148.7099-.3242.1211-.0547.2461-.1035.375-.1484-.0976.0371.8409-.2715.3848-.041-.0254.0136-.0322.0644.0059.0468a1.83493,1.83493,0,0,0,.3398-.1679c.0283-.0157.0684-.0704.0293-.0957-.5859-.3594-1.5938.1796-2.1582.4023a4.95621,4.95621,0,0,0-.7324.3613c-.0489-.4336-.1143-.8652-.2002-1.291-.0205-.1035-.0449-.1973-.0694-.293a15.3343,15.3343,0,0,1,1.9629-4.9238c1.1934-1.6484,2.8789-2.5566,4.5313-3.6445C69.53177,29.80717,69.58057,29.60017,69.41457,29.66847Zm-7.7481,16.4082c-1.4589,4.5625-7.0214,5.2246-11.125,5.5899-2.1718.1914-4.4462-.4532-4.7275-2.834.0313.0254.0674.0488.1006.0742.8848,1.0332,3.3379,1.168,4.4238,1.2246,1.9043.0977,3.7686-1.0156,5.3457-1.959,1.5127-.9062,3.7188-2.1094,4.6934-3.6328a9.808,9.808,0,0,0,1.164-3.2656c.2032-.8965.1563-1.9199.295-2.8399.1093.3047.1953.6036.2627.8555A12.24614,12.24614,0,0,1,61.66647,46.07667Z"/><path class="0ecf74b6-39a5-4b42-a06f-ae6564a6accc" d="M77.43607,19.84427c.0293-.8691-.8301-1.9805-1.1895-2.5938a11.15,11.15,0,0,0-4.4951-4.3847,4.59306,4.59306,0,0,0-3.1553-.5235,15.30744,15.30744,0,0,0-2.209.3907,16.77521,16.77521,0,0,1-3.3535-.1387c-.0429-.002-.1621.084-.1035.1289,1.2305.9648,3.2442.6484,4.836.1953a1.26175,1.26175,0,0,0-.0762,1.0098,19.516,19.516,0,0,1-2.2559.709c-.0556.0078-.1572.1484-.0625.1484a10.39536,10.39536,0,0,0,2.4531-.4648,9.37995,9.37995,0,0,0,1.001,1.6621,10.203,10.203,0,0,0,.9112,1.123c-.0606.0528-.1211.1094-.1836.1582a.43609.43609,0,0,1-.0957.0645c-.0059.0019-.0899.0488-.045.0273-.0312.0156-.0683.0488-.0595.0879.0263.1133.2783-.0391.5088-.207.0566.0586.1152.1172.1728.1758a2.58909,2.58909,0,0,1-.4346.2734c-.0996.0449-.1601.2559-.0058.1875a3.57513,3.57513,0,0,0,.5722-.3281c.1446.1425.2911.2851.4434.4218-.3398.1993-.668.4239-.9863.6329a8.32888,8.32888,0,0,0-.8545.6836c-.249.2167-.5166.621-.8145.7734-.0283.0156-.0849.1074-.0185.1074.1318.0039.1484-.0312.2539-.1289.3603-.3301.749-.6328,1.1289-.9394a9.43567,9.43567,0,0,1,1.5469-.9102c.3222.2754.6582.5391,1.0019.7871-.0488.0508-.0967.1035-.1406.1523a15.12255,15.12255,0,0,0-1.3047,1.7422c-.0742.1075.0547.1368.1172.0547.3877-.5019.7793-1,1.2129-1.4648a4.60909,4.60909,0,0,1,.3408-.3262c.3994.2754.8076.5293,1.2178.7637-.2744.4414-.4453.9844-.6797,1.4101-.0723.1309.1123.0938.1621.0157.1885-.293.3496-.6036.5176-.9102a3.66271,3.66271,0,0,1,.2441-.3789c.2354.1289.4707.2539.707.3672a6.35858,6.35858,0,0,0,1.2149.4512,5.36,5.36,0,0,0-1.0664,2.7402c-.0195.1348.2021.0117.2246-.0625a8.50956,8.50956,0,0,1,.6338-1.4922,5.19043,5.19043,0,0,0,.5635-1.1191,2.044,2.044,0,0,0,.664-.0039,10.34462,10.34462,0,0,0-.3242,3.7011c.0098.1543.2314.0078.2393-.0918a30.02607,30.02607,0,0,1,1.0273-4.5547A.2123.2123,0,0,0,77.43607,19.84427Zm-1.3106.3672a1.166,1.166,0,0,1,.045-.1738.10858.10858,0,0,0-.045-.1368.13089.13089,0,0,0-.0449-.0136c.0684-.9258-2.9424-3.9434-3.2402-4.1836-.4785-.3887-3.4512-2.5293-4.209-2.0625-.0137-.4571.209-.791,1.0293-.6446a7.31611,7.31611,0,0,1,3.2529,1.5606,13.53987,13.53987,0,0,1,3.5889,4.793C76.83447,20.03957,76.57667,20.23687,76.12547,20.21147Z"/><path class="7360ae05-427b-48c3-a3c1-9667c93fcf6c" d="M55.355,14.00837c-1.7744-.6563-3.498-1.3829-5.2822-1.9629a1.21075,1.21075,0,0,0-.4785-1.0684c.1113-.0312.2148-.0605.3066-.082,1.3535-.3164,2.7481-.4805,4.0703-.9199.086-.0293.1807-.2442.0352-.2071-1.1553.2989-2.3672.3946-3.544.5801-.4423.0684-.8818.1563-1.3212.2402a11.39568,11.39568,0,0,0-1.0918-.7148c.1679-.125.3242-.2656.4326-.3379a8.49,8.49,0,0,0,1.3506-.959c.0898-.0898.0117-.1836-.086-.0976a20.07943,20.07943,0,0,1-2.0342,1.2129c-.1181-.0547-.2431-.0977-.3662-.1407.0235-.0332.0469-.0664.0723-.0976.166-.2032.3418-.4004.499-.6114.1065-.1425-.0732-.1816-.1601-.0722-.1944.2441-.4151.4687-.6172.709-.1572-.0469-.3174-.0879-.4815-.1211a7.15079,7.15079,0,0,0-1.3291-.4239c.0176-.4843-.0752-1.0058-.0986-1.4257a13.68658,13.68658,0,0,0-.1895-2.9414c-.0263-.0957-.1875.0312-.1738.1074a11.2021,11.2021,0,0,1-.0762,2.6562c-.0351.4942-.0156.9961-.0332,1.4942-.3261-.0508-.6562-.086-.9804-.1075a6.58058,6.58058,0,0,0-.4785-1.0957c-.0469-.1171-.2539.0372-.2227.1368.0596.1972.1348.3886.21.5781.0459.1172.083.2402.122.3613a8.06074,8.06074,0,0,0-1.85933.1328c-.127-.0937-.252-.1875-.3809-.2773-.48927-.3399-1.2744-.6426-1.543-1.211-.0547-.1152-.2539.0372-.2226.1368.1758.5429.8232,1.0019,1.25,1.3476.0761.0625.15433.1367.2314.2129a2.06972,2.06972,0,0,0-.4629.2695c-.2959-.0839-.6181-.1171-.9131-.1738-.6494-.123-1.2968-.1719-1.9394-.3496-.0645-.0176-.1836.1074-.1074.1328a10.53908,10.53908,0,0,0,1.4853.3887c.39943.0781.8106.2402,1.2217.3183-.19527.461.26373.9727.8594,1.4024-.0742.0293-.1485.0566-.22067.0879a2.1403,2.1403,0,0,0-.80673.4472c-.0791.0899.002.1583.09573.1094a5.75283,5.75283,0,0,1,1.26077-.4219c.0869.0547.1767.1094.2627.1602-.5293.2168-1.0528.4551-1.5782.6523a25.46814,25.46814,0,0,1-3.4746,1.3458c-.0859.0175-.1992.2031-.0556.1855a15.05056,15.05056,0,0,0,2.62593-.8359c1.01177-.3262,2.02927-.6621,3.01757-1.0625.125.0605.2422.1152.3457.1601a10.80012,10.80012,0,0,0,2.01963.6426c-.0752.2305-.1358.4648-.1954.7051a18.29894,18.29894,0,0,0-.4443,2.0293c-.0224.164.2598.0273.2832-.0801a21.89024,21.89024,0,0,1,.8399-2.5586,12.77493,12.77493,0,0,0,1.9482.1758c.0977.1679.2305.3262.3291.4863.0498.082.2275-.0625.1934-.1426q-.0762-.1758-.1553-.3457c.0527-.0019.1035,0,.1543-.0019.0683-.002.1504,0,.2373,0,.085.0801.1728.1543.2471.2265.2675.2598.5449.5118.8271.7559.1025.0898.3369-.1074.2441-.2148-.2148-.25-.4228-.504-.6279-.7637a3.50307,3.50307,0,0,0,1.0713-.1524c.6797.1504,1.3662.2793,2.0274.4629,1.248.3477,2.4658.8164,3.7197,1.1289C55.30327,14.231,55.45947,14.04737,55.355,14.00837Z"/><path class="39471826-118b-4fdf-8122-dc30d3a03396" d="M69.90867,61.66657c-1.1943.4589-2.3652.9902-3.5117,1.5586a25.20676,25.20676,0,0,0-3.5723,2.0039A4.73163,4.73163,0,0,0,60.604,67.065c-.6933,1.2734,1.4102,1.166,2.129,1.084a18.98682,18.98682,0,0,0,6.6289-2.3613c1.5175-.8184,3.8193-2.1954,4.6894-3.7305C75.46927,59.55327,70.64407,61.38137,69.90867,61.66657Z"/><path class="4df2849d-ab16-454f-8fc1-8922382bdba4" d="M19.92234,33.563a18.164,18.164,0,0,1-4.8779.7696c-1.083-.0352-2.0928-.1446-3.1699-.1094a8.79691,8.79691,0,0,0-.73337-3.2812,7.802,7.802,0,0,1,1.24017-.2032,14.25321,14.25321,0,0,0,1.5254-.3574c.0996-.0234.2363-.25.06643-.2226-.55273.0917-1.10743.2128-1.666.2734a2.96993,2.96993,0,0,0-1.28323.2773c-.0274-.0527-.0547-.1035-.0801-.1562.1289-.0195.2588-.0332.3887-.0645a2.10883,2.10883,0,0,0,.5879-.2265c.122-.0723.1044-.25-.0528-.168a1.75255,1.75255,0,0,1-.8017.1816.92948.92948,0,0,0-.25977.0332,2.47279,2.47279,0,0,0-.294-.3808,2.02924,2.02924,0,0,0,.32517-.0235,5.9296,5.9296,0,0,0,1.4659-.6601,3.56611,3.56611,0,0,0,1.8105-1.6367c.041-.0977-.1074-.0606-.13957-.0157a4.821,4.821,0,0,1-3.31553,1.4336,1.67443,1.67443,0,0,0-1.3886.3789,1.26508,1.26508,0,0,0-.7735.4473,6.6478,6.6478,0,0,0-1.3222,2.3613,17.07079,17.07079,0,0,0-1.7637,10.5977c.1504.7852.5556,2.4687,1.6211,2.498a6.416,6.416,0,0,0,1.2685.5625,18.5609,18.5609,0,0,1,1.7852.8653c.8545.459,1.1611,1.1543,1.76373,1.8398.06727.0762.21767-.0625.19327-.1426a6.73952,6.73952,0,0,0-.6904-1.5976c-.2598-.4238-1.04787-.7031-1.46287-.9102a15.79152,15.79152,0,0,0-1.85253-.7402c-.0362-.0117-.1162-.0313-.2198-.0566a4.20819,4.20819,0,0,0,1.6485-1.75c.2422.0781.4883.1503.7226.2285a9.52883,9.52883,0,0,1,1.4375.7597c.0938.0489.2715-.1347.1651-.2031a10.0191,10.0191,0,0,0-1.3526-.8672c-.248-.1094-.4961-.2187-.748-.3203.1767-.3301.332-.6523.4668-.9277.0498-.1035.0986-.211.14843-.3184.31057.0703.62107.1367.93357.2031.9375.1973,1.918.4942,2.8613.6036.12113.0136.3174-.2247.1436-.2637-.4893-.1074-.9482-.3731-1.4268-.5274-.4238-.1347-.8672-.2168-1.2968-.3281-.2852-.0722-.6153-.2051-.9493-.2988a18.21234,18.21234,0,0,0,.9727-3.1836c.0596-.0469.1621-.1641.0645-.1934a.07867.07867,0,0,1-.0235-.0156,16.00147,16.00147,0,0,0,.2461-1.7773c.2617.0078.5244.0117.7852.039.5019.0508.9931.1895,1.498.2012.0967.002.2617-.1992.1172-.2148-.4844-.0547-.9492-.2364-1.4307-.3243a4.81409,4.81409,0,0,0-.9394-.0742c.0127-.2226.0224-.4453.0244-.666.1777.0293.3818.0234.6484.041.85553.0586,1.7344.1856,2.5899.168a15.22084,15.22084,0,0,0,4.76563-1.3613C19.96334,33.72907,20.06494,33.524,19.92234,33.563Zm-9.2617-2.1933c-.9072,2.0488-2.0703,3.8633-2.5703,6.084a14.874,14.874,0,0,0,.34183,6.3125c-.62313.623-1.33213.8222-1.85943-.3653a6.93332,6.93332,0,0,1-.4238-2.75.14085.14085,0,0,0,.082-.0429l.0059-.002a2.54815,2.54815,0,0,0,.6787-.0801.30246.30246,0,0,0,.22163-.1933.09585.09585,0,0,0-.04783-.125l.0049-.0059c-.293-.082-.6612-.0078-.9258-.1914a.15244.15244,0,0,0-.0215-.0078c-.0029-.3262.0039-.668.0156-1.0117a3.24494,3.24494,0,0,0,.6602-.2266c.1289-.0586.2236-.3203.0078-.248a2.155,2.155,0,0,1-.6523.1328,22.39389,22.39389,0,0,1,.3916-3.3633c.0088.0625.1298-.0039.1425-.0527a30.46252,30.46252,0,0,1,1.4092-3.959c.8028-1.875,1.9414-1.0508,2.6104.0176A.21028.21028,0,0,0,10.66064,31.36967Z"/><path class="51b8144c-8517-4d66-81b4-d16a51f95f9c" d="M7.21724,36.983c-.11907,0-.2363.0117-.3554.0058a.68526.68526,0,0,1-.3223-.1289c-.0781-.039-.1777.0567-.2002.125-.1211.3809.5889.252.7764.2403C7.21434,37.22127,7.36664,36.98487,7.21724,36.983Z"/><path class="76583460-3062-4830-804c-5ec74539b52b" d="M36.14894,65.34427l-.003-.002a1.37226,1.37226,0,0,0-2.3759-.7031.73979.73979,0,0,0,.1406,1.0293,1.835,1.835,0,0,0,.832.7422,1.0345,1.0345,0,0,0,1.3486-.6504,1.01986,1.01986,0,0,0,.0538-.291C36.184,65.42437,36.20264,65.36967,36.14894,65.34427Z"/><path class="ac2827b7-e981-409d-9c89-1e93f3ead76e" d="M18.87744,62.04737c-.5586-.582-1.0918-1.3242-1.9971-1.0664a.91081.91081,0,0,0-.6328,1.1875.51088.51088,0,0,0,.0674.3379c.459.7734,1.998,1.7793,2.8369,1.084C19.73874,63.106,19.27974,62.46537,18.87744,62.04737Z"/><path class="921a8e5c-b407-43c2-a38e-79d5be7f98e0" d="M71.05517,47.77587a1.59592,1.59592,0,0,0-.8984.4903,1.47363,1.47363,0,0,0-.5078.8906.22772.22772,0,0,0,.1298.2305,1.00237,1.00237,0,0,0,.8467-.1543c.2207-.1407.6289-.5176.5703-.8282a1.51517,1.51517,0,0,0,.126-.3261C71.37357,47.87357,71.25637,47.76227,71.05517,47.77587Z"/><path class="af7af9a4-a685-4366-ad08-a7b662a96252" d="M78.14117,37.01807a1.23256,1.23256,0,0,0-1.9102-.1035,4.10388,4.10388,0,0,0-.9785,1.5156,5.59733,5.59733,0,0,0-.834,2.1016,3.37207,3.37207,0,0,0,.1289,1.3086c.0098.0703.0176.1406.0313.2109a1.21735,1.21735,0,0,0,1.8164.8809,2.62914,2.62914,0,0,0,1.5175-.9629A4.599,4.599,0,0,0,78.14117,37.01807Z"/><path class="18e190a2-6aca-4fa0-8de7-ea2a69bef9e4" d="M76.313,32.29547a.30556.30556,0,0,0-.3457-.0879.51.51,0,0,0-.4179.4746,1.3372,1.3372,0,0,0-.0479.2246c-.0166.1172.1074.168.2012.1523a.49268.49268,0,0,0,.3183-.2382c.0108-.0157.0186-.0332.0274-.0489.0263-.0136.0517-.0254.0791-.041C76.25827,32.649,76.42047,32.45367,76.313,32.29547Z"/><path class="b3b5540b-6fe2-4c09-85e9-be73652840a9" d="M60.66457,14.942a.98105.98105,0,0,0-1.3848-.0899c-.0605-.0078-.1582.084-.1426.1484a.08947.08947,0,0,0,.0059.0215.34413.34413,0,0,0,.1016.5118.994.994,0,0,0,.2324.1054.993.993,0,0,0,.7148.3242A.61758.61758,0,0,0,60.66457,14.942Z"/><path class="cbe7d5ec-d9e4-4ffb-9e6e-996eec44a8dc" d="M44.73687,2.274c-5.2627-1.2481-10.6797,1.1836-15.26083,3.6582-.0957.0527-.12787.2324.0235.1836,2.3964-.793,4.67963-1.918,7.0947-2.7051a19.47832,19.47832,0,0,1,8.05083-.9668C44.72217,2.44977,44.84817,2.30127,44.73687,2.274Z"/></g></g></g></g></svg>