<svg xmlns="http://www.w3.org/2000/svg" xmlns:xlink="http://www.w3.org/1999/xlink" viewBox="0 0 18.19251 15.24472"><defs><style>.c943aa16-1ff8-4688-af1e-e420698850d2{isolation:isolate;}.\31 2f59387-3eb6-4d02-8450-f9c7c85f63e0{fill:#ff0026;}.ea54b17e-c64d-4a6d-9e58-f3f55c24955c{fill:#97999c;}.\30 bf57b32-1cb9-45a7-aee0-b81b00b20027,.\33 bde5069-4dff-41c5-9161-c7a08614a414,.ea54b17e-c64d-4a6d-9e58-f3f55c24955c,.ff14e02d-b474-4da5-9b94-31fa8e911cbe{mix-blend-mode:multiply;}.caab282d-e822-4d9b-bf0a-30e4277f0a54{fill:#3a3c3f;}.\35 b920486-3ee4-449e-95bc-e2c9636d9d18,.c0ea9d0b-9155-44ad-8649-996283eac05d{fill:#fff;}.be0caa76-ef9c-4e32-b34b-5315336c658e,.c0ea9d0b-9155-44ad-8649-996283eac05d,.f39015da-b636-4d11-a5ae-a66ba369c7b4{mix-blend-mode:screen;}.\30 bf57b32-1cb9-45a7-aee0-b81b00b20027{fill:#c6c8c9;}.\38 a2a57ae-8505-454d-b623-d29b5fbf3bc5{fill:#626467;}.ff14e02d-b474-4da5-9b94-31fa8e911cbe{fill:#b3b5b8;opacity:0.9;}.\32 8cf40a9-d68e-4809-95c6-86d96070ef17{fill:#e0e1e2;}.\34 67716c9-5d5f-45e2-b736-42364843495a{fill:url(#3575f359-5fed-43b7-9366-42738e0af80e);}.b75157d8-6fab-4676-a128-9aa8ee6e5413{fill:#696b6d;}.f39015da-b636-4d11-a5ae-a66ba369c7b4{fill:#c9e9eb;opacity:0.7;}.\32 b19ce7f-68dc-4c16-b903-3682f2d0d463{fill:url(#547f0728-5217-405c-b9f8-fc4f6f9f7c02);}.\38 4e4e4e9-98a7-4dc5-9be8-7a88275373d9{fill:url(#b1fdab2f-24a8-4e2f-854d-ae4d7edb8ca5);}.a9b267ea-59db-4983-a62b-8907eed7715d{fill:url(#4a8b34b0-2979-467a-91f4-85ef92a11331);}.\33 bde5069-4dff-41c5-9161-c7a08614a414{fill:#c8cacb;}.\31 0e3947b-a41a-4f2b-8bc1-a5ab7f3586ca{fill:#fff2bb;opacity:0.5;}.d8b0d914-768b-4c74-b278-1039370ef170{fill:#c2dbdf;}.\36 9fc8841-8339-434a-869e-f0402292dee9{fill:#989b9d;}.\39 e24c706-6b8d-439d-ac9b-48f435a90d8b{fill:#61626b;}</style><linearGradient id="3575f359-5fed-43b7-9366-42738e0af80e" x1="102.31063" y1="850.48692" x2="113.92792" y2="850.48692" gradientTransform="translate(684.33201 -534.19563) rotate(58.53214)" gradientUnits="userSpaceOnUse"><stop offset="0.45745" stop-color="#e5e0df"/><stop offset="1" stop-color="#8ca99c"/></linearGradient><radialGradient id="547f0728-5217-405c-b9f8-fc4f6f9f7c02" cx="107.54675" cy="856.22729" r="2.0078" gradientTransform="translate(684.33201 -534.19563) rotate(58.53214)" gradientUnits="userSpaceOnUse"><stop offset="0.14858" stop-color="#21687e"/><stop offset="0.49097" stop-color="#023f5f"/><stop offset="0.98013"/></radialGradient><radialGradient id="b1fdab2f-24a8-4e2f-854d-ae4d7edb8ca5" cx="106.967" cy="856.2271" r="1.90508" gradientTransform="translate(684.33201 -534.19563) rotate(58.53214)" gradientUnits="userSpaceOnUse"><stop offset="0.28508" stop-color="#fff"/><stop offset="0.69122" stop-color="#6c6c6c"/><stop offset="1"/></radialGradient><radialGradient id="4a8b34b0-2979-467a-91f4-85ef92a11331" cx="106.96638" cy="856.22797" r="1.90442" xlink:href="#b1fdab2f-24a8-4e2f-854d-ae4d7edb8ca5"/></defs><title>rocket</title><g class="c943aa16-1ff8-4688-af1e-e420698850d2"><g id="6dc87039-076e-4f00-bb82-8ab7b9f8f629" data-name="Layer 2"><g id="275b510c-c399-4629-b0ee-6070c39bd456" data-name="Layer 1"><g id="c7b97c9e-cf70-455b-9857-fa7bb3fb6fbe" data-name="rocket"><path class="12f59387-3eb6-4d02-8450-f9c7c85f63e0" d="M13.09832,5.97168a1.99471,1.99471,0,0,1-.7334,1.4765,3.70386,3.70386,0,0,0-1.4043,2.6075,6.39476,6.39476,0,0,1-3.4199,5.1542s-.1299.1163-.2744-.0761-2.4844-3.5235-2.4844-3.5235l-.3516-.5742Z"/><path class="ea54b17e-c64d-4a6d-9e58-f3f55c24955c" d="M10.51332,11.95208c-.0976.1817-.209.3565-.3183.5332a6.37963,6.37963,0,0,1-.55958.7969,7.131,7.131,0,0,1-1.55862,1.3936.93728.93728,0,0,1-.61038.2363,1.28131,1.28131,0,0,1-.61812-.3799c-.0088-.0078-.0176-.0146-.0254-.0224.2334.332.4014.5712.43752.6181.14448.1934.27438.0781.27438.0781A6.40416,6.40416,0,0,0,10.51332,11.95208Z"/><path class="caab282d-e822-4d9b-bf0a-30e4277f0a54" d="M11.82292,6.71088a1.65035,1.65035,0,0,1-.6084,1.2237,3.069,3.069,0,0,0-1.16308,2.1611,5.29972,5.29972,0,0,1-2.834,4.2705s-.10842.0957-.22752-.0625c-.1192-.1602-2.0586-2.9199-2.0586-2.9199l-.292-.4766Z"/><path class="c0ea9d0b-9155-44ad-8649-996283eac05d" d="M10.97332,9.40328c.0127-.0596.0293-.1191.0469-.1777a2.111,2.111,0,0,0-.2715.958c-.0069.1113-.0137.2236-.0176.3408a3.54331,3.54331,0,0,1-.7109,2.0625C10.86882,11.60548,10.74282,10.47258,10.97332,9.40328Z"/><path class="0bf57b32-1cb9-45a7-aee0-b81b00b20027" d="M5.66472,12.81538a1.06461,1.06461,0,0,1-.0127-.875,1.4369,1.4369,0,0,1,.8467-.5117c.4189-.1143.8359-.21,1.247-.3535.4581-.1582.9141-.3233,1.3604-.5108a10.53834,10.53834,0,0,0,1.9258-1.0166,3.87159,3.87159,0,0,1,1.333-2.0996,1.99471,1.99471,0,0,0,.7334-1.4765l-8.668,5.0644.3516.5742s.417.5938.9101,1.295C5.68322,12.876,5.67352,12.84568,5.66472,12.81538Z"/><path class="12f59387-3eb6-4d02-8450-f9c7c85f63e0" d="M10.84732,2.29488a1.993,1.993,0,0,0-1.6484-.0195,3.69846,3.69846,0,0,1-2.961.0644A6.39739,6.39739,0,0,0,.09144,3.04s-.16112.0635-.05562.2793c.1055.2168,2.0068,3.8164,2.0068,3.8164l.3516.5742Z"/><path class="caab282d-e822-4d9b-bf0a-30e4277f0a54" d="M9.609,3.09368a1.6538,1.6538,0,0,0-1.3672-.0156,3.065,3.065,0,0,1-2.4531.0537,5.29882,5.29882,0,0,0-5.0918.5801s-.1357.0518-.0478.2314c.0888.1797,1.664,3.1622,1.664,3.1622l.2901.4755Z"/><path class="c0ea9d0b-9155-44ad-8649-996283eac05d" d="M6.82392,2.625c.06052.0156.1211.0293.1806.04a2.1119,2.1119,0,0,1-.9775-.1953c-.10158-.0439-.2051-.0908-.31058-.1387a3.54026,3.54026,0,0,0-2.16012-.3046C4.81612,1.71678,5.76822,2.34278,6.82392,2.625Z"/><path class="0bf57b32-1cb9-45a7-aee0-b81b00b20027" d="M1.37072,5.79978c.2022.1924.4668.4473.7735.4101a1.43594,1.43594,0,0,0,.8408-.5214c.2939-.3203.56742-.6485.8818-.9493.34962-.3359.7051-.6669,1.0743-.9794a10.52591,10.52591,0,0,1,1.7822-1.253,3.85911,3.85911,0,0,0,2.4756-.2314,1.993,1.993,0,0,1,1.6484.0195l-8.4531,5.415-.3516-.5742s-.3398-.6425-.73918-1.4013C1.32582,5.75678,1.34832,5.77928,1.37072,5.79978Z"/><path class="8a2a57ae-8505-454d-b623-d29b5fbf3bc5" d="M4.68132,10.65138l-.4111-.6709a4.98865,4.98865,0,0,0-2.6836.8271,3.02714,3.02714,0,0,0,.4189,1.0205,3.00149,3.00149,0,0,0,.7168.8359A4.98236,4.98236,0,0,0,4.68132,10.65138Z"/><path class="8a2a57ae-8505-454d-b623-d29b5fbf3bc5" d="M4.23012,11.35548a3.92638,3.92638,0,0,0,.4512-.7041l-.4111-.6709a3.8649,3.8649,0,0,0-.8506.0849A4.2589,4.2589,0,0,0,4.23012,11.35548Z"/><path class="caab282d-e822-4d9b-bf0a-30e4277f0a54" d="M1.85712,10.64448c-.0391.0225-.0782.0449-.1172.0684a3.49162,3.49162,0,0,0,.4101.9267,5.0053,5.0053,0,0,0,.7383.9248c.03812-.0244.0752-.0478.1114-.0722A4.07138,4.07138,0,0,1,1.85712,10.64448Z"/><path class="caab282d-e822-4d9b-bf0a-30e4277f0a54" d="M2.23012,10.45308c-.039.0186-.0781.0381-.1191.0576a3.5653,3.5653,0,0,0,.4043.9063,4.92907,4.92907,0,0,0,.7236.9072c.0342-.0254.0684-.0518.10252-.0781A4.12286,4.12286,0,0,1,2.23012,10.45308Z"/><path class="caab282d-e822-4d9b-bf0a-30e4277f0a54" d="M3.86682,11.77238c.0293-.0322.06062-.0625.0879-.0937a4.20309,4.20309,0,0,1-.94528-1.5147q-.0615.0177-.126.0381a3.74427,3.74427,0,0,0,.36228.7676A4.89746,4.89746,0,0,0,3.86682,11.77238Z"/><path class="caab282d-e822-4d9b-bf0a-30e4277f0a54" d="M2.61492,10.293c-.041.0156-.082.0302-.1231.0468a3.57163,3.57163,0,0,0,.3887.8535,4.90647,4.90647,0,0,0,.6826.8672c.0332-.0283.0655-.0576.0957-.0869A4.12755,4.12755,0,0,1,2.61492,10.293Z"/><path class="caab282d-e822-4d9b-bf0a-30e4277f0a54" d="M4.14812,11.458c.02832-.0342.0547-.0693.082-.1025a4.2589,4.2589,0,0,1-.8105-1.2901c-.042.0088-.085.0176-.1289.0283a3.6693,3.6693,0,0,0,.3203.6524A4.8877,4.8877,0,0,0,4.14812,11.458Z"/><path class="ff14e02d-b474-4da5-9b94-31fa8e911cbe" d="M4.68132,10.65138l-.4111-.6709a4.98865,4.98865,0,0,0-2.6836.8271s.00582.0352.0195.0947a5.18709,5.18709,0,0,1,1.042-.4785c.2305-.0918.8984-.3486,1.0664-.0244.1855.3564-1.3916,1.2041-1.7158,1.418l.0068.0107a3.00149,3.00149,0,0,0,.7168.8359A4.98236,4.98236,0,0,0,4.68132,10.65138Z"/><path class="ff14e02d-b474-4da5-9b94-31fa8e911cbe" d="M4.68132,10.65138l-.21088-.3438a7.45052,7.45052,0,0,1-2.10452,2.0156,2.45447,2.45447,0,0,0,.3564.3408A4.98236,4.98236,0,0,0,4.68132,10.65138Z"/><path class="8a2a57ae-8505-454d-b623-d29b5fbf3bc5" d="M3.26722,8.34078l-.4121-.6719a4.98342,4.98342,0,0,0-2.6826.8282,2.98467,2.98467,0,0,0,.418,1.0195,3.008,3.008,0,0,0,.7177.8369A4.99738,4.99738,0,0,0,3.26722,8.34078Z"/><path class="ff14e02d-b474-4da5-9b94-31fa8e911cbe" d="M2.81512,9.04488a3.90156,3.90156,0,0,0,.4521-.7041l-.4121-.6719a3.93329,3.93329,0,0,0-.8496.085A4.24679,4.24679,0,0,0,2.81512,9.04488Z"/><path class="caab282d-e822-4d9b-bf0a-30e4277f0a54" d="M.442,8.333c-.0381.0215-.0771.0449-.1172.0693a3.5479,3.5479,0,0,0,.4112.9268,4.98808,4.98808,0,0,0,.7383.9238c.038-.0244.0752-.0478.1113-.0713A4.08831,4.08831,0,0,1,.442,8.333Z"/><path class="caab282d-e822-4d9b-bf0a-30e4277f0a54" d="M.81612,8.14158c-.0391.0185-.0791.0371-.1192.0566a3.46837,3.46837,0,0,0,.4043.9073,4.92648,4.92648,0,0,0,.7227.9082c.0341-.0264.0693-.0528.10252-.0791A4.11008,4.11008,0,0,1,.81612,8.14158Z"/><path class="caab282d-e822-4d9b-bf0a-30e4277f0a54" d="M2.45182,9.45988c.0303-.0312.05962-.0615.0889-.0927a4.19024,4.19024,0,0,1-.94628-1.5137c-.04012.0107-.08212.0244-.125.0371a3.68,3.68,0,0,0,.36128.7676A4.87264,4.87264,0,0,0,2.45182,9.45988Z"/><path class="caab282d-e822-4d9b-bf0a-30e4277f0a54" d="M1.19982,7.98238c-.041.0147-.082.0303-.122.0469a3.56321,3.56321,0,0,0,.3877.8535,4.98248,4.98248,0,0,0,.6836.8662c.0332-.0283.0654-.0576.0957-.0859A4.1587,4.1587,0,0,1,1.19982,7.98238Z"/><path class="caab282d-e822-4d9b-bf0a-30e4277f0a54" d="M2.733,9.14648c.0293-.0352.0557-.0684.0821-.1016a4.24679,4.24679,0,0,1-.8096-1.291c-.043.0088-.0859.0176-.1308.0283a3.909,3.909,0,0,0,.3222.6524A4.74885,4.74885,0,0,0,2.733,9.14648Z"/><path class="ff14e02d-b474-4da5-9b94-31fa8e911cbe" d="M3.26722,8.34078l-.4121-.6719a4.98342,4.98342,0,0,0-2.6826.8282s.00492.0341.0195.0937a5.21041,5.21041,0,0,1,1.042-.4775c.2295-.0918.8936-.3555,1.0615-.0313.1866.3574-1.3867,1.211-1.7109,1.4248l.0059.0098a3.008,3.008,0,0,0,.7177.8369A4.99738,4.99738,0,0,0,3.26722,8.34078Z"/><path class="ff14e02d-b474-4da5-9b94-31fa8e911cbe" d="M3.26722,8.34078l-.2119-.3447a7.43576,7.43576,0,0,1-2.1045,2.0156,2.48314,2.48314,0,0,0,.3574.3418A4.99738,4.99738,0,0,0,3.26722,8.34078Z"/><path class="28cf40a9-d68e-4809-95c6-86d96070ef17" d="M12.75362,8.00878a13.78588,13.78588,0,0,0,2.08-1.5635c1.2002-.9785,3.2442-5.2861,3.333-5.6035a.5829.5829,0,0,0-.0683-.4951.58491.58491,0,0,0-.4092-.2862c-.3232-.0644-5.0898-.2041-6.5059.419a13.626,13.626,0,0,0-2.33878,1.1416c-1.73342.9795-5.81252,4.0273-6.71392,5.7988a8.64875,8.64875,0,0,0,1.0313,2.0684,8.68138,8.68138,0,0,0,1.373,1.8603C6.52312,11.35148,11.09244,9.10638,12.75362,8.00878Z"/><path class="28cf40a9-d68e-4809-95c6-86d96070ef17" d="M12.75362,8.00878a13.78588,13.78588,0,0,0,2.08-1.5635c1.2002-.9785,3.2442-5.2861,3.333-5.6035a.5829.5829,0,0,0-.0683-.4951.58491.58491,0,0,0-.4092-.2862c-.3232-.0644-5.0898-.2041-6.5059.419a13.626,13.626,0,0,0-2.33878,1.1416c-1.73342.9795-5.81252,4.0273-6.71392,5.7988a8.64875,8.64875,0,0,0,1.0313,2.0684,8.68138,8.68138,0,0,0,1.373,1.8603C6.52312,11.35148,11.09244,9.10638,12.75362,8.00878Z"/><path class="467716c9-5d5f-45e2-b736-42364843495a" d="M18.09832.34668a.58491.58491,0,0,0-.4092-.2862c-.3154-.0634-4.8418-.1972-6.38768.3711a12.41711,12.41711,0,0,0,1.40718,3.2139,12.44462,12.44462,0,0,0,2.2217,2.7158c1.21-1.1201,3.1494-5.2099,3.2363-5.5195A.5829.5829,0,0,0,18.09832.34668Z"/><path class="12f59387-3eb6-4d02-8450-f9c7c85f63e0" d="M18.09832.34668a.58491.58491,0,0,0-.4092-.2862c-.3154-.0634-4.8418-.1972-6.38768.3711a12.41711,12.41711,0,0,0,1.40718,3.2139,12.44462,12.44462,0,0,0,2.2217,2.7158c1.21-1.1201,3.1494-5.2099,3.2363-5.5195A.5829.5829,0,0,0,18.09832.34668Z"/><path class="5b920486-3ee4-449e-95bc-e2c9636d9d18" d="M11.21452,1.01168A.15343.15343,0,1,1,11.05432.75a.15343.15343,0,0,1,.1602.2617Z"/><path class="5b920486-3ee4-449e-95bc-e2c9636d9d18" d="M12.48792,3.96678a.1534.1534,0,1,1-.1601-.2617.15339.15339,0,1,1,.1601.2617Z"/><path class="5b920486-3ee4-449e-95bc-e2c9636d9d18" d="M14.58072,6.42088a.15385.15385,0,1,1,.0518-.2119A.15385.15385,0,0,1,14.58072,6.42088Z"/><path class="5b920486-3ee4-449e-95bc-e2c9636d9d18" d="M13.40392,5.27338a.15339.15339,0,1,1,.0508-.2119A.1547.1547,0,0,1,13.40392,5.27338Z"/><path class="5b920486-3ee4-449e-95bc-e2c9636d9d18" d="M11.74092,2.55658a.15342.15342,0,1,1,.0507-.2119A.15412.15412,0,0,1,11.74092,2.55658Z"/><path class="b75157d8-6fab-4676-a128-9aa8ee6e5413" d="M10.88052,6.77048a1.57277,1.57277,0,1,1,.5205-2.1621A1.57171,1.57171,0,0,1,10.88052,6.77048Z"/><path class="f39015da-b636-4d11-a5ae-a66ba369c7b4" d="M10.71352,6.58888a1.33061,1.33061,0,1,1,.4414-1.8291A1.32853,1.32853,0,0,1,10.71352,6.58888Z"/><path class="2b19ce7f-68dc-4c16-b903-3682f2d0d463" d="M10.67844,6.45308a1.196,1.196,0,1,1,.39638-1.6445A1.1948,1.1948,0,0,1,10.67844,6.45308Z"/><g class="be0caa76-ef9c-4e32-b34b-5315336c658e"><path class="84e4e4e9-98a7-4dc5-9be8-7a88275373d9" d="M9.46452,4.81248c-.0234-.0625-.0469-.125-.0693-.1885a1.06994,1.06994,0,0,0-.3965.7774,1.06926,1.06926,0,0,1,.4599-.587Z"/><path class="a9b267ea-59db-4983-a62b-8907eed7715d" d="M10.983,4.89548a1.071,1.071,0,0,0-1.4033-.3936c.0303.0704.0596.1426.0879.2139a1.07337,1.07337,0,0,1,1.2647.4541,1.05935,1.05935,0,0,1,.1562.6113A1.06432,1.06432,0,0,0,10.983,4.89548Z"/></g><path class="f39015da-b636-4d11-a5ae-a66ba369c7b4" d="M11.70472,2.17478c-.02928-.0635-.0576-.1279-.084-.1924-.0859-.2119-.1494-.4316-.2285-.6455a12.86854,12.86854,0,0,0-2.2597,1.1396,53.01409,53.01409,0,0,0-6.4102,5.1924c.0664.1573.1524.3467.2627.5635,2.0225-1.5146,3.9717-3.1309,6.0801-4.5264A23.603,23.603,0,0,1,11.70472,2.17478Z"/><path class="3bde5069-4dff-41c5-9161-c7a08614a414" d="M12.75362,8.00878a13.78588,13.78588,0,0,0,2.08-1.5635c1.2002-.9785,3.2442-5.2861,3.333-5.6035a.5829.5829,0,0,0-.0683-.4951l-.0098-.0166a21.27777,21.27777,0,0,1-1.4062,1.7265c-3.4678,3.835-8.0244,6.5254-12.6963,8.6631a6.06024,6.06024,0,0,0,.5488.6289C6.52312,11.35148,11.09244,9.10638,12.75362,8.00878Z"/><path class="10e3947b-a41a-4f2b-8bc1-a5ab7f3586ca" d="M11.92932,1.73918c.03812.0909.07912.1807.12312.2676q.48627-.22695.98918-.4267c1.1084-.4385,2.2442-.8018,3.377-1.1739a21.70144,21.70144,0,0,0-3.45118.4483,12.03989,12.03989,0,0,0-1.209.3476A5.45159,5.45159,0,0,0,11.92932,1.73918Z"/><path class="d8b0d914-768b-4c74-b278-1039370ef170" d="M8.193,6.72168l-.2383-.3887a1.31484,1.31484,0,0,0-1.6787-.6885l-3.5527,2.1758a11.02213,11.02213,0,0,0,.8135,1.4844,10.96591,10.96591,0,0,0,.9511,1.3994l3.5537-2.1738A1.31379,1.31379,0,0,0,8.193,6.72168Z"/><path class="69fc8841-8339-434a-869e-f0402292dee9" d="M3.67352,9.59178h0c-.0547-.0889-.1094-.1807-.16208-.2725-.05672-.0879-.11332-.1767-.169-.2676A10.71469,10.71469,0,0,1,2.69692,7.832a.02948.02948,0,0,1,.0108-.0381l3.55272-2.1738a1.34531,1.34531,0,0,1,1.72068.6973l.23832.3886a1.34427,1.34427,0,0,1-.16212,1.8487l-3.5537,2.1748a.029.029,0,0,1-.0381-.0059A10.69943,10.69943,0,0,1,3.67352,9.59178Zm-.1113-.3037a10.89214,10.89214,0,0,0,.9335,1.3769L8.026,8.50388a1.28541,1.28541,0,0,0,.1426-1.7666l-.2393-.3897a1.28489,1.28489,0,0,0-1.6367-.6767L2.76144,7.832A10.992,10.992,0,0,0,3.56222,9.28808Z"/><path class="28cf40a9-d68e-4809-95c6-86d96070ef17" d="M7.88152,6.87688,7.67544,6.54A1.14532,1.14532,0,0,0,6.192,5.96678l-3.1963,1.957A9.15915,9.15915,0,0,0,3.695,9.207a9.11078,9.11078,0,0,0,.8252,1.208L7.71744,8.458A1.14324,1.14324,0,0,0,7.88152,6.87688Z"/><path class="5b920486-3ee4-449e-95bc-e2c9636d9d18" d="M3.80922,9.458h0c-.0459-.0752-.09278-.1543-.1396-.2354-.0498-.0771-.0987-.1552-.1455-.2304a8.92387,8.92387,0,0,1-.55668-1.0567l-.00882-.0234,3.21882-1.9707a1.17421,1.17421,0,0,1,1.52338.584l.2061.3359a1.1739,1.1739,0,0,1-.1739,1.6211l-3.2197,1.9707-.0166-.0185A8.925,8.925,0,0,1,3.80922,9.458Zm-.08878-.2676c.04778.083.09468.1611.13958.2363h0a8.6575,8.6575,0,0,0,.667.9493l3.1748-1.9424a1.1185,1.1185,0,0,0,.1553-1.541l-.2061-.3369a1.11533,1.11533,0,0,0-1.4424-.5625l-3.1748,1.9423a8.78588,8.78588,0,0,0,.541,1.0264C3.62172,9.03608,3.66962,9.11228,3.72044,9.19038Z"/><path class="5b920486-3ee4-449e-95bc-e2c9636d9d18" d="M7.944,6.44138s-.6113-1.127-1.541-.79l-1.9434,1.1894,1.957-1.1279S7.07972,5.32518,7.944,6.44138Z"/><path class="9e24c706-6b8d-439d-ac9b-48f435a90d8b" d="M5.04552,6.831a.0364.0364,0,0,1-.0498-.0117.03714.03714,0,0,1,.0118-.0498.03609.03609,0,0,1,.0498.0117A.03563.03563,0,0,1,5.04552,6.831Z"/><path class="9e24c706-6b8d-439d-ac9b-48f435a90d8b" d="M5.278,7.21088a.03639.03639,0,0,1-.0498-.0117.03788.03788,0,0,1,.0117-.0498.03618.03618,0,1,1,.0381.0615Z"/><path class="9e24c706-6b8d-439d-ac9b-48f435a90d8b" d="M5.51144,7.59178a.03744.03744,0,0,1-.04982-.0117.0362.0362,0,1,1,.0615-.0381A.03736.03736,0,0,1,5.51144,7.59178Z"/><path class="9e24c706-6b8d-439d-ac9b-48f435a90d8b" d="M5.74382,7.97168a.03631.03631,0,0,1-.0498-.0118.0369.0369,0,0,1,.0117-.0498.03622.03622,0,0,1,.0381.0616Z"/><path class="9e24c706-6b8d-439d-ac9b-48f435a90d8b" d="M5.97622,8.35248a.03689.03689,0,0,1-.04978-.0127A.0355.0355,0,0,1,5.93912,8.29a.03509.03509,0,0,1,.0488.0117A.03648.03648,0,0,1,5.97622,8.35248Z"/><path class="9e24c706-6b8d-439d-ac9b-48f435a90d8b" d="M6.442,9.11328a.0368.0368,0,0,1-.0498-.0127.03622.03622,0,0,1,.0616-.0381A.03661.03661,0,0,1,6.442,9.11328Z"/><path class="9e24c706-6b8d-439d-ac9b-48f435a90d8b" d="M5.17744,9.32128a.0355.0355,0,0,1,.01168-.0498.0366.0366,0,0,1,.0381.0625A.03547.03547,0,0,1,5.17744,9.32128Z"/><path class="9e24c706-6b8d-439d-ac9b-48f435a90d8b" d="M4.79652,9.55368a.03742.03742,0,0,1,.0117-.0498.03856.03856,0,0,1,.0508.0117.03958.03958,0,0,1-.0117.0518A.03808.03808,0,0,1,4.79652,9.55368Z"/><path class="9e24c706-6b8d-439d-ac9b-48f435a90d8b" d="M3.25752,7.92578a.03812.03812,0,0,1-.0498-.0118.036.036,0,0,1,.01172-.0498.03742.03742,0,0,1,.05078.0108A.03786.03786,0,0,1,3.25752,7.92578Z"/><path class="9e24c706-6b8d-439d-ac9b-48f435a90d8b" d="M3.48992,8.30568a.0365.0365,0,0,1-.0498-.0118.03822.03822,0,0,1,.0117-.0507.03773.03773,0,0,1,.0508.0126A.03691.03691,0,0,1,3.48992,8.30568Z"/><path class="9e24c706-6b8d-439d-ac9b-48f435a90d8b" d="M3.72232,8.68648a.03661.03661,0,0,1-.0381-.0625.03661.03661,0,1,1,.0381.0625Z"/><path class="9e24c706-6b8d-439d-ac9b-48f435a90d8b" d="M3.95472,9.06638a.03532.03532,0,0,1-.0488-.0117.03661.03661,0,1,1,.06252-.0381A.03615.03615,0,0,1,3.95472,9.06638Z"/><path class="9e24c706-6b8d-439d-ac9b-48f435a90d8b" d="M4.18812,9.44628a.03617.03617,0,0,1-.0381-.0615.03572.03572,0,0,1,.0498.0107A.03611.03611,0,0,1,4.18812,9.44628Z"/><path class="9e24c706-6b8d-439d-ac9b-48f435a90d8b" d="M4.42052,9.82708a.0364.0364,0,0,1-.0498-.0117.0376.0376,0,0,1,.01272-.0508.03719.03719,0,0,1,.04978.0118A.03584.03584,0,0,1,4.42052,9.82708Z"/><path class="9e24c706-6b8d-439d-ac9b-48f435a90d8b" d="M4.65392,10.207a.03767.03767,0,0,1-.0507-.0117.03814.03814,0,0,1,.0117-.0498.03682.03682,0,0,1,.0508.0107A.03637.03637,0,0,1,4.65392,10.207Z"/><path class="9e24c706-6b8d-439d-ac9b-48f435a90d8b" d="M7.87762,7.668a.03668.03668,0,0,1,.0127-.0498.0376.0376,0,0,1,.0508.0117.03878.03878,0,0,1-.01268.0508A.03832.03832,0,0,1,7.87762,7.668Z"/><path class="9e24c706-6b8d-439d-ac9b-48f435a90d8b" d="M7.49772,7.90138a.03686.03686,0,1,1,.0508.0117A.03763.03763,0,0,1,7.49772,7.90138Z"/><path class="9e24c706-6b8d-439d-ac9b-48f435a90d8b" d="M7.11682,8.13378a.03748.03748,0,0,1,.0127-.0498.03648.03648,0,0,1,.0508.0117.03767.03767,0,0,1-.0127.0508A.03925.03925,0,0,1,7.11682,8.13378Z"/><path class="9e24c706-6b8d-439d-ac9b-48f435a90d8b" d="M6.737,8.36618a.0366.0366,0,1,1,.0517.0117A.03648.03648,0,0,1,6.737,8.36618Z"/><path class="9e24c706-6b8d-439d-ac9b-48f435a90d8b" d="M6.35612,8.59858a.03765.03765,0,0,1,.0127-.0498.03687.03687,0,0,1,.0391.0625A.03814.03814,0,0,1,6.35612,8.59858Z"/><path class="9e24c706-6b8d-439d-ac9b-48f435a90d8b" d="M5.97622,8.832a.03718.03718,0,0,1,.0127-.0498.03647.03647,0,0,1,.0498.0117.03592.03592,0,0,1-.0107.0498A.03765.03765,0,0,1,5.97622,8.832Z"/><path class="9e24c706-6b8d-439d-ac9b-48f435a90d8b" d="M5.59632,9.06438a.03593.03593,0,0,1,.0127-.0498.0365.0365,0,0,1,.0498.0118.03822.03822,0,0,1-.0117.0507A.03767.03767,0,0,1,5.59632,9.06438Z"/></g></g></g></g></svg>