<svg xmlns="http://www.w3.org/2000/svg" viewBox="0 0 27.95702 44.2617"><defs><style>.\35 6f8d1a8-fe8e-4d37-8d8f-463aac2e4a41{isolation:isolate;}.e5be26e3-fb06-4b59-b53e-da47335760eb{fill:#aaacae;}.\38 0f64416-40bd-4d11-bf4c-7f4278945fe3{fill:#535557;}.\32 ce00e1a-a957-4f2a-986c-3e59faecb99b,.\35 095414a-0368-443d-867f-1b7b517f015d{fill:#717375;}.\35 095414a-0368-443d-867f-1b7b517f015d{mix-blend-mode:multiply;}.\32 ce00e1a-a957-4f2a-986c-3e59faecb99b{mix-blend-mode:screen;}</style></defs><title>wire</title><g class="56f8d1a8-fe8e-4d37-8d8f-463aac2e4a41"><g id="7abd1140-976f-4799-8722-cf5c45fd7f4e" data-name="Layer 2"><g id="1e0c6380-ec1c-44c7-a6ac-134654172fe8" data-name="Layer 1"><g id="0d65c527-097b-4cb0-8447-794c2858155e" data-name="wire"><path class="e5be26e3-fb06-4b59-b53e-da47335760eb" d="M27.87792,43.2607s-.4131.0449-1.1914.127q-.2916.03075-.6495.0693c-.2392.0166-.5019.0342-.7841.0527-.2823.0196-.586.0391-.9102.0616-.3242.0185-.6689.0195-1.0332.0312-.1816.0049-.3701.0098-.5605.0147-.0967.0009-.1934.0048-.2911.0068-.0986-.002-.1972-.0029-.2978-.0059q-.60495-.0102-1.2627-.0205c-.877-.0449-1.82618-.0957-2.8311-.2207a31.13351,31.13351,0,0,1-3.1787-.5351l-.2099-.043-.208-.0537c-.1387-.0361-.2774-.0732-.418-.1104-.2813-.0752-.5694-.1416-.85348-.2285-.56552-.1855-1.15342-.3476-1.72852-.583q-.2184-.082-.4366-.166l-.2216-.084c-.07428-.0283-.1446-.0635-.2168-.0937-.2891-.1299-.5821-.2588-.876-.3907-.293-.1377-.5781-.2959-.8711-.4443-.2959-.1435-.5772-.3184-.8633-.4883a17.483,17.483,0,0,1-3.2715-2.5019,14.21784,14.21784,0,0,1-2.60058-3.4571A12.76425,12.76425,0,0,1,.73042,29.9179a12.98985,12.98985,0,0,1,.2852-4.6425,14.227,14.227,0,0,1,.7597-2.2627,13.80742,13.80742,0,0,1,1.1524-2.1133,12.57657,12.57657,0,0,1,3.4199-3.4229,12.87861,12.87861,0,0,1,4.4931-1.9013,11.64592,11.64592,0,0,1,4.8594-.0391,7.96058,7.96058,0,0,1,2.24712.8399,5.27921,5.27921,0,0,1,1.74118,1.5459,4.06609,4.06609,0,0,1,.7461,2.1318,3.42862,3.42862,0,0,1-.6582,2.1006,5.41811,5.41811,0,0,1-1.6924,1.5009,7.70164,7.70164,0,0,1-2.1201.8331,7.91584,7.91584,0,0,1-4.3945-.1944,6.498,6.498,0,0,1-1.87408-1.0224,5.92617,5.92617,0,0,1-.76752-.7159,6.34642,6.34642,0,0,1-.6397-.8193,8.93319,8.93319,0,0,1-1.3203-3.8037,12.43113,12.43113,0,0,1,.1221-3.8096,16.05377,16.05377,0,0,1,1.0351-3.3818,21.896,21.896,0,0,1,1.4776-2.8486,29.739,29.739,0,0,1,3.1318-4.1963c.9658-1.0899,1.7871-1.8868,2.3574-2.4161.2842-.2646.5098-.4599.6621-.5917.14942-.128.2285-.1924.2285-.1924L15.57812,0s-.0811.0703-.2413.2051c-.1562.1347-.3867.3359-.6777.6064-.583.541-1.41888,1.3525-2.4023,2.4619a30.42625,30.42625,0,0,0-3.1983,4.2861A22.4416,22.4416,0,0,0,7.538,10.4922a16.623,16.623,0,0,0-1.0752,3.5146,13.0096,13.0096,0,0,0-.1279,4.0098c.0127.1738.0547.3447.084.5185.0302.1719.0625.3457.0957.5215.0361.1729.084.3447.1269.5195.0528.1709.09772.3458.1592.5176a8.332,8.332,0,0,0,.958,1.9932,6.87407,6.87407,0,0,0,.6953.8994,6.606,6.606,0,0,0,.8487.7861,7.08975,7.08975,0,0,0,2.0546,1.1241,8.56992,8.56992,0,0,0,4.752.2119,8.23792,8.23792,0,0,0,2.29592-.9024,6.02984,6.02984,0,0,0,1.89258-1.6836,4.05972,4.05972,0,0,0,.77342-2.4902,4.69508,4.69508,0,0,0-.85842-2.4756,5.92245,5.92245,0,0,0-1.9492-1.7344,8.58348,8.58348,0,0,0-2.4258-.9091,11.25217,11.25217,0,0,0-2.5693-.251,13.15175,13.15175,0,0,0-2.5606.289,13.56364,13.56364,0,0,0-4.7168,1.9942,13.25849,13.25849,0,0,0-3.5918,3.5986,14.37126,14.37126,0,0,0-1.2089,2.2139,14.79909,14.79909,0,0,0-.794,2.3652,13.58535,13.58535,0,0,0-.2978,4.876,13.38652,13.38652,0,0,0,1.4511,4.499,14.79024,14.79024,0,0,0,2.7159,3.6114,18.10485,18.10485,0,0,0,3.39062,2.5937c.29588.1768.58588.3574.89158.5049.3017.1523.5957.3164.89742.457.30278.1338.60258.2686.90038.4014.0742.0322.1475.0683.2237.0976l.2265.086c.15142.0566.2998.1152.4492.1709.5918.2402,1.1944.4082,1.7745.5967.291.0898.5849.1572.872.2353.1436.0371.2871.0742.42872.1123l.21288.0547.2129.0449a32.54393,32.54393,0,0,0,3.2451.5469c1.0264.126,1.9903.1777,2.8819.2227q.66945.0117,1.28422.0234c.10048,0,.20208.0029.30268.0039.1006-.002.1982-.0039.2959-.0078.1943-.0039.3848-.0088.5693-.0127.3692-.0137.7207-.0137,1.0498-.0322q.4923-.03375.9229-.0625c.2861-.0176.5508-.0371.7939-.0538.2422-.0263.4629-.0488.6582-.0703.7891-.0849,1.2071-.1289,1.2071-.1289Z"/><path class="80f64416-40bd-4d11-bf4c-7f4278945fe3" d="M27.87692,43.2461s-.4151.0429-1.1914.1259c-.1944.0215-.4112.044-.6494.0694-.2403.0166-.501.0342-.7842.0527-.2822.0195-.586.0401-.9092.0615-.3252.0196-.6689.0196-1.0332.0313-.1826.0049-.3701.0098-.5605.0146-.0967.003-.1934.0039-.292.0069-.0977-.001-.1963-.003-.2969-.0059-.4033-.0058-.8242-.0137-1.2627-.0205-.877-.0439-1.82418-.0957-2.8291-.2207a30.88512,30.88512,0,0,1-3.1777-.5352l-.209-.0429-.2071-.0528c-.1386-.038-.27828-.0732-.4199-.1103-.2803-.0762-.56638-.1416-.8525-.2275-.5645-.1875-1.1514-.3487-1.7266-.584-.1445-.0557-.291-.1104-.4375-.1651l-.2207-.0849c-.0732-.0274-.1445-.0625-.2158-.0938-.29-.1279-.582-.2597-.8779-.3896-.292-.1367-.5752-.295-.8692-.4424-.2949-.1445-.57618-.3203-.8623-.4893a17.41087,17.41087,0,0,1-3.2676-2.5009,14.13384,14.13384,0,0,1-2.5986-3.4522A12.7023,12.7023,0,0,1,.746,29.915a12.97548,12.97548,0,0,1,.28422-4.6357A14.25735,14.25735,0,0,1,1.79,23.0195a13.58731,13.58731,0,0,1,1.1523-2.1113,12.556,12.556,0,0,1,3.4131-3.4199,12.91814,12.91814,0,0,1,4.4893-1.8995,11.63,11.63,0,0,1,4.85252-.0371,7.93478,7.93478,0,0,1,2.24218.836,5.2619,5.2619,0,0,1,1.7373,1.5439,4.03832,4.03832,0,0,1,.7402,2.1221,3.40856,3.40856,0,0,1-.6523,2.0928,5.39507,5.39507,0,0,1-1.6895,1.4951,7.62354,7.62354,0,0,1-2.1152.831,7.91161,7.91161,0,0,1-4.3858-.1924A6.4877,6.4877,0,0,1,9.705,23.2597a6.03433,6.03433,0,0,1-.7666-.7138,6.25757,6.25757,0,0,1-.6357-.8194,8.90951,8.90951,0,0,1-1.3204-3.7949,12.42089,12.42089,0,0,1,.1231-3.8076,16.017,16.017,0,0,1,1.0332-3.3779A21.97375,21.97375,0,0,1,9.61524,7.9004,29.68153,29.68153,0,0,1,12.745,3.707c.9649-1.0889,1.78722-1.8867,2.3575-2.415.2861-.2657.50972-.461.6601-.5918.1514-.128.22762-.1934.22762-.1934L15.88082.372l-.2324.1954c-.1514.1328-.378.33-.6641.5966a33.89028,33.89028,0,0,0-2.36908,2.4268A29.85141,29.85141,0,0,0,9.46672,7.8095a22.07841,22.07841,0,0,0-1.4892,2.8682,16.341,16.341,0,0,0-1.044,3.416,12.57261,12.57261,0,0,0-.124,3.8604,9.05153,9.05153,0,0,0,1.34672,3.8681,6.57451,6.57451,0,0,0,.65328.8418,5.91206,5.91206,0,0,0,.7891.7325,6.60287,6.60287,0,0,0,1.9179,1.0478,8.07425,8.07425,0,0,0,4.4844.1983,7.79993,7.79993,0,0,0,2.1621-.8506,5.5608,5.5608,0,0,0,1.74322-1.5459,3.57418,3.57418,0,0,0,.68648-2.1973,4.21007,4.21007,0,0,0-.77248-2.2168,5.42274,5.42274,0,0,0-1.79392-1.5957,8.15549,8.15549,0,0,0-2.292-.8555,10.80322,10.80322,0,0,0-2.459-.2412,12.73511,12.73511,0,0,0-2.4678.2793,13.05825,13.05825,0,0,0-4.5488,1.9238,12.75911,12.75911,0,0,0-3.4619,3.4678,13.94012,13.94012,0,0,0-1.167,2.1387,14.22893,14.22893,0,0,0-.76758,2.2891,13.10058,13.10058,0,0,0-.289,4.6992,12.89227,12.89227,0,0,0,1.39838,4.3359,14.3319,14.3319,0,0,0,2.6299,3.4932,17.57417,17.57417,0,0,0,3.3008,2.5254c.2881.1718.5722.3486.8711.4951.2939.1494.582.3076.8769.4463.29692.1318.58992.2627.88192.3916.07318.0322.14448.0674.21968.0957l.2217.0849c.1474.0557.2949.1114.4404.167.5791.2364,1.1709.4004,1.7383.5869.2871.087.5771.1534.8593.2295.1407.0371.2813.0733.4219.1104l.208.0547.211.0439a31.73879,31.73879,0,0,0,3.1953.5381c1.0117.125,1.9638.1758,2.8437.2197q.6621.0117,1.26572.0225c.10148.001.20208.0039.30068.0059.0987-.003.19532-.0059.292-.0079.1934-.0048.3799-.0097.5645-.0146.3642-.0117.7109-.0127,1.0361-.0313.3252-.0205.6309-.041.9131-.0605.2832-.0195.5469-.0381.7871-.0537q.359-.0396.6524-.0703c.7802-.083,1.1953-.127,1.1953-.127Z"/><polygon class="5095414a-0368-443d-867f-1b7b517f015d" points="15.276 1.06 15.347 0.996 14.971 0.579 14.898 0.644 15.276 1.06"/><polygon class="5095414a-0368-443d-867f-1b7b517f015d" points="14.364 1.923 14.434 1.857 14.039 1.455 13.97 1.522 14.364 1.923"/><polygon class="5095414a-0368-443d-867f-1b7b517f015d" points="13.482 2.821 13.549 2.752 13.142 2.365 13.075 2.434 13.482 2.821"/><polygon class="5095414a-0368-443d-867f-1b7b517f015d" points="12.636 3.75 12.699 3.679 12.278 3.306 12.213 3.378 12.636 3.75"/><rect class="5095414a-0368-443d-867f-1b7b517f015d" x="11.58846" y="4.21372" width="0.09686" height="0.56176" transform="matrix(0.62747, -0.77864, 0.77864, 0.62747, 0.83542, 10.73535)"/><rect class="5095414a-0368-443d-867f-1b7b517f015d" x="10.80568" y="5.20974" width="0.09649" height="0.56237" transform="translate(-0.0714 10.83837) rotate(-52.91417)"/><polygon class="5095414a-0368-443d-867f-1b7b517f015d" points="10.316 6.718 10.371 6.641 9.908 6.319 9.853 6.4 10.316 6.718"/><polygon class="5095414a-0368-443d-867f-1b7b517f015d" points="9.634 7.769 9.683 7.689 9.206 7.391 9.155 7.474 9.634 7.769"/><polygon class="5095414a-0368-443d-867f-1b7b517f015d" points="8.999 8.851 9.047 8.769 8.555 8.496 8.507 8.581 8.999 8.851"/><polygon class="5095414a-0368-443d-867f-1b7b517f015d" points="8.432 9.965 8.472 9.88 7.966 9.637 7.924 9.725 8.432 9.965"/><polygon class="5095414a-0368-443d-867f-1b7b517f015d" points="7.931 11.109 7.966 11.023 7.445 10.813 7.408 10.902 7.931 11.109"/><polygon class="5095414a-0368-443d-867f-1b7b517f015d" points="7.511 12.283 7.538 12.193 7.003 12.02 6.975 12.113 7.511 12.283"/><polygon class="5095414a-0368-443d-867f-1b7b517f015d" points="7.183 13.484 7.205 13.394 6.657 13.264 6.634 13.359 7.183 13.484"/><polygon class="5095414a-0368-443d-867f-1b7b517f015d" points="6.954 14.706 6.964 14.612 6.407 14.532 6.397 14.629 6.954 14.706"/><polygon class="5095414a-0368-443d-867f-1b7b517f015d" points="6.846 15.94 6.851 15.848 6.29 15.821 6.285 15.92 6.846 15.94"/><polygon class="5095414a-0368-443d-867f-1b7b517f015d" points="6.853 17.181 6.85 17.087 6.289 17.116 6.292 17.217 6.853 17.181"/><polygon class="5095414a-0368-443d-867f-1b7b517f015d" points="7.006 18.408 6.987 18.316 6.434 18.405 6.452 18.503 7.006 18.408"/><polygon class="5095414a-0368-443d-867f-1b7b517f015d" points="7.277 19.611 7.251 19.521 6.71 19.677 6.739 19.771 7.277 19.611"/><polygon class="5095414a-0368-443d-867f-1b7b517f015d" points="7.707 20.762 7.669 20.677 7.154 20.905 7.196 20.995 7.707 20.762"/><polygon class="5095414a-0368-443d-867f-1b7b517f015d" points="8.304 21.826 8.253 21.748 7.782 22.059 7.838 22.142 8.304 21.826"/><path class="5095414a-0368-443d-867f-1b7b517f015d" d="M9.07324,22.7676,9.04,22.7344l-.0323-.0333-.4043.3897.0332.0361c.01862.0166.0372.0352.0372.0352Z"/><polygon class="5095414a-0368-443d-867f-1b7b517f015d" points="10.003 23.545 9.929 23.492 9.603 23.951 9.686 24.01 10.003 23.545"/><polygon class="5095414a-0368-443d-867f-1b7b517f015d" points="11.064 24.135 10.981 24.098 10.747 24.609 10.838 24.649 11.064 24.135"/><polygon class="5095414a-0368-443d-867f-1b7b517f015d" points="12.219 24.526 12.129 24.505 11.988 25.048 12.085 25.072 12.219 24.526"/><polygon class="5095414a-0368-443d-867f-1b7b517f015d" points="13.425 24.721 13.333 24.713 13.28 25.272 13.381 25.28 13.425 24.721"/><polygon class="5095414a-0368-443d-867f-1b7b517f015d" points="14.649 24.726 14.558 24.732 14.59 25.292 14.689 25.286 14.649 24.726"/><path class="5095414a-0368-443d-867f-1b7b517f015d" d="M15.86424,24.5498l-.04592.0107c-.0225.0039-.0449.0088-.0449.0088l.1132.5508s.0254-.0039.0499-.0088c.0234-.0068.0468-.0127.0468-.0127Z"/><rect class="5095414a-0368-443d-867f-1b7b517f015d" x="17.04563" y="24.19724" width="0.09613" height="0.56246" transform="translate(-7.44017 7.46438) rotate(-20.33173)"/><polygon class="5095414a-0368-443d-867f-1b7b517f015d" points="18.136 23.668 18.058 23.716 18.336 24.203 18.422 24.152 18.136 23.668"/><polygon class="5095414a-0368-443d-867f-1b7b517f015d" points="19.113 22.954 19.044 23.016 19.416 23.436 19.491 23.371 19.113 22.954"/><polygon class="5095414a-0368-443d-867f-1b7b517f015d" points="19.892 22.051 19.843 22.126 20.308 22.442 20.362 22.356 19.892 22.051"/><polygon class="5095414a-0368-443d-867f-1b7b517f015d" points="20.37 20.979 20.349 21.065 20.889 21.22 20.915 21.118 20.37 20.979"/><path class="5095414a-0368-443d-867f-1b7b517f015d" d="M20.456,19.8193l.0058.043.002.0439.5605-.042-.0039-.0517c-.0029-.0264-.0048-.0518-.0048-.0518Z"/><polygon class="5095414a-0368-443d-867f-1b7b517f015d" points="20.152 18.679 20.188 18.761 20.709 18.552 20.669 18.457 20.152 18.679"/><polygon class="5095414a-0368-443d-867f-1b7b517f015d" points="19.54 17.658 19.595 17.73 20.04 17.389 19.978 17.308 19.54 17.658"/><path class="5095414a-0368-443d-867f-1b7b517f015d" d="M18.68162,16.8203s.0185.0127.0361.0273l.0361.0284.3506-.4375s-.0185-.0166-.0381-.0323l-.04-.0302Z"/><path class="5095414a-0368-443d-867f-1b7b517f015d" d="M17.65424,16.1758s.02048.0097.041.0214a.28039.28039,0,0,1,.04108.0196l.2587-.4981s-.0205-.0117-.0439-.0234c-.0205-.0108-.04388-.0215-.04388-.0215Z"/><polygon class="5095414a-0368-443d-867f-1b7b517f015d" points="16.52 15.716 16.608 15.745 16.785 15.212 16.691 15.181 16.52 15.716"/><polygon class="5095414a-0368-443d-867f-1b7b517f015d" points="15.326 15.424 15.418 15.44 15.521 14.887 15.424 14.871 15.326 15.424"/><rect class="5095414a-0368-443d-867f-1b7b517f015d" x="13.88313" y="14.95399" width="0.56178" height="0.09588" transform="translate(-1.68432 28.21205) rotate(-86.45793)"/><polygon class="5095414a-0368-443d-867f-1b7b517f015d" points="12.862 15.274 12.956 15.269 12.934 14.708 12.837 14.713 12.862 15.274"/><polygon class="5095414a-0368-443d-867f-1b7b517f015d" points="11.629 15.394 11.722 15.381 11.644 14.825 11.546 14.839 11.629 15.394"/><polygon class="5095414a-0368-443d-867f-1b7b517f015d" points="10.412 15.636 10.503 15.614 10.371 15.067 10.275 15.089 10.412 15.636"/><path class="5095414a-0368-443d-867f-1b7b517f015d" d="M9.22262,15.9922l.0449-.0166c.0225-.0069.044-.0147.044-.0147l-.1827-.5312s-.0224.0088-.0459.0156l-.0478.0166Z"/><rect class="5095414a-0368-443d-867f-1b7b517f015d" x="7.95141" y="15.9044" width="0.09656" height="0.56125" transform="translate(-6.07952 4.88344) rotate(-24.94391)"/><polygon class="5095414a-0368-443d-867f-1b7b517f015d" points="6.976 17.036 7.058 16.988 6.774 16.501 6.69 16.552 6.976 17.036"/><polygon class="5095414a-0368-443d-867f-1b7b517f015d" points="5.939 17.716 6.015 17.661 5.687 17.204 5.607 17.262 5.939 17.716"/><polygon class="5095414a-0368-443d-867f-1b7b517f015d" points="4.974 18.493 5.044 18.433 4.674 18.01 4.599 18.073 4.974 18.493"/><rect class="5095414a-0368-443d-867f-1b7b517f015d" x="3.86832" y="18.85817" width="0.09677" height="0.56246" transform="translate(-12.76012 8.9639) rotate(-47.04482)"/><rect class="5095414a-0368-443d-867f-1b7b517f015d" x="3.05268" y="19.82929" width="0.09719" height="0.56207" transform="translate(-14.72455 10.29794) rotate(-52.40231)"/><path class="5095414a-0368-443d-867f-1b7b517f015d" d="M2.59952,21.3427l.0245-.04.0253-.04-.4785-.2959s-.0117.0205-.0254.04c-.0117.0225-.0254.044-.0254.044Z"/><polygon class="5095414a-0368-443d-867f-1b7b517f015d" points="2.004 22.432 2.046 22.348 1.544 22.098 1.499 22.186 2.004 22.432"/><polygon class="5095414a-0368-443d-867f-1b7b517f015d" points="1.507 23.571 1.54 23.483 1.018 23.277 0.981 23.368 1.507 23.571"/><polygon class="5095414a-0368-443d-867f-1b7b517f015d" points="1.116 24.752 1.145 24.661 0.605 24.502 0.577 24.596 1.116 24.752"/><polygon class="5095414a-0368-443d-867f-1b7b517f015d" points="0.822 25.958 0.844 25.866 0.291 25.757 0.27 25.852 0.822 25.958"/><polygon class="5095414a-0368-443d-867f-1b7b517f015d" points="0.654 27.186 0.66 27.094 0.101 27.037 0.095 27.135 0.654 27.186"/><polygon class="5095414a-0368-443d-867f-1b7b517f015d" points="0.603 28.425 0.601 28.33 0.039 28.33 0.041 28.428 0.603 28.425"/><polygon class="5095414a-0368-443d-867f-1b7b517f015d" points="0.671 29.663 0.662 29.568 0.103 29.624 0.111 29.723 0.671 29.663"/><path class="5095414a-0368-443d-867f-1b7b517f015d" d="M.85542,30.8877l-.0078-.0469-.0078-.0459-.5508.1113.0078.0489.0098.0478Z"/><polygon class="5095414a-0368-443d-867f-1b7b517f015d" points="1.179 32.084 1.148 31.995 0.612 32.16 0.644 32.255 1.179 32.084"/><rect class="5095414a-0368-443d-867f-1b7b517f015d" x="1.05529" y="33.26326" width="0.56167" height="0.09602" transform="translate(-12.97852 3.20285) rotate(-23.13121)"/><polygon class="5095414a-0368-443d-867f-1b7b517f015d" points="2.155 34.361 2.111 34.277 1.617 34.544 1.662 34.631 2.155 34.361"/><polygon class="5095414a-0368-443d-867f-1b7b517f015d" points="2.796 35.423 2.745 35.345 2.276 35.656 2.331 35.738 2.796 35.423"/><polygon class="5095414a-0368-443d-867f-1b7b517f015d" points="3.541 36.419 3.479 36.346 3.042 36.698 3.103 36.771 3.541 36.419"/><polygon class="5095414a-0368-443d-867f-1b7b517f015d" points="4.454 37.442 4.389 37.375 3.984 37.765 4.052 37.834 4.454 37.442"/><polygon class="5095414a-0368-443d-867f-1b7b517f015d" points="5.357 38.3 5.288 38.236 4.914 38.657 4.985 38.723 5.357 38.3"/><polygon class="5095414a-0368-443d-867f-1b7b517f015d" points="6.324 39.088 6.249 39.029 5.908 39.476 5.984 39.536 6.324 39.088"/><polygon class="5095414a-0368-443d-867f-1b7b517f015d" points="7.344 39.807 7.266 39.753 6.957 40.223 7.037 40.276 7.344 39.807"/><polygon class="5095414a-0368-443d-867f-1b7b517f015d" points="8.411 40.455 8.331 40.406 8.052 40.894 8.135 40.944 8.411 40.455"/><polygon class="5095414a-0368-443d-867f-1b7b517f015d" points="9.52 41.035 9.435 40.992 9.187 41.496 9.274 41.541 9.52 41.035"/><polygon class="5095414a-0368-443d-867f-1b7b517f015d" points="10.659 41.55 10.574 41.512 10.354 42.029 10.443 42.067 10.659 41.55"/><polygon class="5095414a-0368-443d-867f-1b7b517f015d" points="11.829 42 11.74 41.968 11.551 42.496 11.64 42.529 11.829 42"/><polygon class="5095414a-0368-443d-867f-1b7b517f015d" points="13.02 42.39 12.931 42.361 12.766 42.897 12.858 42.929 13.02 42.39"/><polygon class="5095414a-0368-443d-867f-1b7b517f015d" points="14.231 42.722 14.139 42.697 14 43.242 14.094 43.266 14.231 42.722"/><rect class="5095414a-0368-443d-867f-1b7b517f015d" x="15.06931" y="43.21525" width="0.56292" height="0.0963" transform="translate(-30.20667 48.91032) rotate(-77.5301)"/><rect class="5095414a-0368-443d-867f-1b7b517f015d" x="16.31701" y="43.44567" width="0.56168" height="0.09545" transform="translate(-28.9308 53.20455) rotate(-81.15288)"/><polygon class="5095414a-0368-443d-867f-1b7b517f015d" points="17.934 43.401 17.839 43.391 17.77 43.947 17.866 43.959 17.934 43.401"/><path class="5095414a-0368-443d-867f-1b7b517f015d" d="M19.18452,43.5342a.31893.31893,0,0,1-.0479-.004c-.02438-.0029-.0478-.0048-.0478-.0048l-.0488.5605.0478.0049c.02442.0029.0488.0039.0488.0039Z"/><polygon class="5095414a-0368-443d-867f-1b7b517f015d" points="20.439 43.613 20.345 43.605 20.315 44.168 20.412 44.173 20.439 43.613"/><polygon class="5095414a-0368-443d-867f-1b7b517f015d" points="21.697 43.649 21.601 43.646 21.591 44.21 21.687 44.211 21.697 43.649"/><polygon class="5095414a-0368-443d-867f-1b7b517f015d" points="22.956 43.649 22.86 43.652 22.868 44.213 22.964 44.211 22.956 43.649"/><polygon class="5095414a-0368-443d-867f-1b7b517f015d" points="24.215 43.618 24.118 43.621 24.143 44.182 24.24 44.179 24.215 43.618"/><polygon class="5095414a-0368-443d-867f-1b7b517f015d" points="25.47 43.534 25.375 43.539 25.416 44.1 25.512 44.094 25.47 43.534"/><polygon class="5095414a-0368-443d-867f-1b7b517f015d" points="26.725 43.422 26.631 43.433 26.686 43.991 26.783 43.981 26.725 43.422"/><path class="2ce00e1a-a957-4f2a-986c-3e59faecb99b" d="M27.92472,43.622s-.4179.044-1.2011.127c-.1963.0225-.4161.0449-.6563.0703q-.3618.0249-.78908.0537c-.28412.0196-.59172.0391-.91692.0606-.3272.0205-.6748.0215-1.043.0322-.1836.0039-.37208.0098-.5645.0146-.09858.002-.1963.0059-.2959.0069-.0986-.001-.2002-.0029-.30068-.0049q-.60948-.0102-1.27352-.0225c-.8847-.0439-1.8437-.0947-2.8603-.2216a31.5838,31.5838,0,0,1-3.2168-.542l-.211-.044-.2099-.0537c-.1407-.0371-.2842-.0732-.4258-.1113-.2842-.0762-.5752-.1426-.8633-.2324-.5742-.1875-1.1709-.3526-1.7539-.5899-.1484-.0566-.2959-.1123-.4453-.168l-.2246-.0869c-.0733-.0283-.1465-.0644-.2197-.0957-.294-.1318-.59088-.2627-.8916-.3974-.2959-.1387-.587-.3008-.8848-.4502-.3008-.1465-.5869-.3262-.8799-.4981a17.834,17.834,0,0,1-3.3379-2.5556,14.52,14.52,0,0,1-2.668-3.544A13.12988,13.12988,0,0,1,.37,29.9638a13.33967,13.33967,0,0,1,.293-4.7744,14.51542,14.51542,0,0,1,.7793-2.3222,14.059,14.059,0,0,1,1.1846-2.1709,12.98651,12.98651,0,0,1,3.5176-3.5235,13.269,13.269,0,0,1,4.6211-1.9531,12.82487,12.82487,0,0,1,2.5068-.2842,11.0195,11.0195,0,0,1,2.50582.2451,8.41073,8.41073,0,0,1,2.34968.878,5.6309,5.6309,0,0,1,1.86032,1.6562,4.42761,4.42761,0,0,1,.80958,2.3272,3.77232,3.77232,0,0,1-.72458,2.3222,5.774,5.774,0,0,1-1.80672,1.6055,8.01547,8.01547,0,0,1-2.2197.8721,8.28317,8.28317,0,0,1-4.59858-.2041,6.84037,6.84037,0,0,1-1.97662-1.0801,6.22475,6.22475,0,0,1-.8125-.7568,6.63778,6.63778,0,0,1-.6738-.8643,9.27512,9.27512,0,0,1-1.3789-3.9561,12.76164,12.76164,0,0,1,.1259-3.9238,16.547,16.547,0,0,1,1.0567-3.458,22.242,22.242,0,0,1,1.5029-2.8955,30.17616,30.17616,0,0,1,3.169-4.2471c.9756-1.1006,1.8066-1.9072,2.3838-2.4433.5781-.5352.9062-.8008.9062-.8008l-.1094-.1358s-.082.0694-.2402.2041c-.1553.1348-.3838.335-.6748.6055A34.02834,34.02834,0,0,0,12.331,3.3388a30.39593,30.39593,0,0,0-3.1875,4.2725,22.381,22.381,0,0,0-1.5147,2.9199,16.58874,16.58874,0,0,0-1.0683,3.4942,12.86955,12.86955,0,0,0-.126,3.9785,9.4125,9.4125,0,0,0,1.4062,4.0283,6.70194,6.70194,0,0,0,.68852.8867,6.29536,6.29536,0,0,0,.834.7764,7.00685,7.00685,0,0,0,2.02828,1.1074,8.4579,8.4579,0,0,0,4.6953.21,8.23809,8.23809,0,0,0,2.2686-.8926,5.94154,5.94154,0,0,0,1.8613-1.6563,3.9617,3.9617,0,0,0,.7559-2.4277,4.60356,4.60356,0,0,0-.8408-2.4219,5.83657,5.83657,0,0,0-1.917-1.706,8.53561,8.53561,0,0,0-2.3985-.8985,11.21093,11.21093,0,0,0-2.5459-.249,12.93823,12.93823,0,0,0-2.542.2871,13.4401,13.4401,0,0,0-4.6816,1.9805,13.1667,13.1667,0,0,0-3.5654,3.5703,14.2274,14.2274,0,0,0-1.19918,2.2002,14.484,14.484,0,0,0-.78812,2.3486,13.49547,13.49547,0,0,0-.29788,4.8389,13.24088,13.24088,0,0,0,1.44138,4.4629,14.6741,14.6741,0,0,0,2.6983,3.5889A17.96178,17.96178,0,0,0,7.706,40.6172c.2959.1757.5849.3554.8887.5039.2998.1523.5918.3125.89252.4531q.45267.20355.89748.4004c.0742.0332.14752.0683.2226.0976l.2256.085c.1485.0576.2989.1143.44732.1699.59078.2412,1.18848.4073,1.76658.5957.29.0889.583.1553.8701.2334.1436.0371.2852.0742.4268.1123l.2119.0537.2139.045a31.37529,31.37529,0,0,0,3.2334.5439c1.0234.1279,1.98532.1797,2.874.2236q.668.01185,1.28032.0225c.10048.002.20208.0039.30168.0049.0996-.001.1992-.0039.2949-.0069.1953-.0048.3838-.0087.56842-.0136.36908-.0117.71968-.0127,1.04778-.0322.32722-.0225.6338-.042.9209-.0616.2862-.0195.5508-.0381.792-.0547.2412-.0263.461-.0478.6582-.0712.7862-.0821,1.20412-.128,1.20412-.128Z"/></g></g></g></g></svg>