<svg xmlns="http://www.w3.org/2000/svg" xmlns:xlink="http://www.w3.org/1999/xlink" viewBox="0 0 33.70619 32.46517"><defs><style>.\34 3f2df2d-c01d-4b20-aaa1-f9cefb6ee4cb{isolation:isolate;}.\31 6767fc1-f9ce-425e-8dc9-6f6261ff1656,.\31 e11f059-304f-4bb6-ab35-3ee51e1f47dc,.\35 504dec4-0ac2-4ca2-a4e4-7ee092fad7cc,.a6e708ed-7590-4cd7-a388-41fd69d8d9a6,.ae4d465d-876e-4c8c-a88b-1a0592f99caa,.b1408fd4-1666-483e-b53f-f15b1366a33d{fill:#ebebec;}.\37 0d57a11-2673-4384-9267-e80884d9a28b{fill:#818386;}.\35 665557f-d220-44d6-b624-02ade45cf136,.\35 f1261ab-dfe9-4769-8760-3e423149de6e,.a8ac20a4-9996-45a0-90e9-c169f423408c,.d612e0dc-469f-4e55-a0af-31a3d206bf18,.f4f128c1-d6ff-4e27-8643-0698671fb6c4{fill:#d9d9db;}.\35 f1261ab-dfe9-4769-8760-3e423149de6e{opacity:0.8;}.\33 3b0664d-facb-4d5b-8431-795298c8491a,.\35 665557f-d220-44d6-b624-02ade45cf136,.\35 f1261ab-dfe9-4769-8760-3e423149de6e,.b1408fd4-1666-483e-b53f-f15b1366a33d,.bf1c257a-4827-4173-84bf-0840007edd7d,.d612e0dc-469f-4e55-a0af-31a3d206bf18,.ee7e671b-0b91-44e0-9fe5-4b34189b375e,.ef5d1d53-0132-461d-9221-9fb7600b216d,.f4f128c1-d6ff-4e27-8643-0698671fb6c4,.ff467f82-46bc-4a7e-90ac-6da51dfda9ec{mix-blend-mode:multiply;}.\31 6767fc1-f9ce-425e-8dc9-6f6261ff1656{opacity:0.7;}.\31 6767fc1-f9ce-425e-8dc9-6f6261ff1656,.\31 e11f059-304f-4bb6-ab35-3ee51e1f47dc,.ae4d465d-876e-4c8c-a88b-1a0592f99caa,.b5fc0629-95da-438e-9ac6-be7d1993635c,.d81f7c82-1606-44e2-9a82-f8ceb61b664c,.da60c4ee-97ad-4171-9438-3bd93ad078c8{mix-blend-mode:screen;}.\30 4b90b7b-a1c0-4a74-a09a-8adb884ea395{fill:#b1b2b4;}.a6e708ed-7590-4cd7-a388-41fd69d8d9a6,.f4f128c1-d6ff-4e27-8643-0698671fb6c4{opacity:0.6;}.bf1c257a-4827-4173-84bf-0840007edd7d,.ee7e671b-0b91-44e0-9fe5-4b34189b375e{fill:#c9cacc;}.\35 665557f-d220-44d6-b624-02ade45cf136,.ae4d465d-876e-4c8c-a88b-1a0592f99caa,.bf1c257a-4827-4173-84bf-0840007edd7d{opacity:0.5;}.cea455c5-ff08-40c7-a481-d8441976c4ce{fill:#d3d4d5;}.ff467f82-46bc-4a7e-90ac-6da51dfda9ec{fill:#c7c8ca;}.cfd76549-af7d-4a05-8c72-6c39ab1660b4{fill:#2a416f;}.\39 859e7e8-e936-4a78-a73c-12ce5b91376a{fill:#fff;}.\36 29e6958-e43e-4fd0-b87d-b2b5638e2c26{fill:url(#0df44d59-44bd-417b-8d7e-5278a1c19437);}.ef5d1d53-0132-461d-9221-9fb7600b216d{fill:url(#e7647b61-2cd6-4ef0-b21a-53d1d6c28de5);}.b5fc0629-95da-438e-9ac6-be7d1993635c{fill:url(#587e466c-dc15-4f11-9990-9e9873fe17ca);}.d81f7c82-1606-44e2-9a82-f8ceb61b664c{fill:url(#35ab2fea-85be-49fe-88dd-3d8af56b7c37);}.\33 3b0664d-facb-4d5b-8431-795298c8491a{fill:#c6c8d0;}.\34 bf137d6-9797-4670-a075-ce9330b930bd{fill:url(#17360d08-6e6c-4c0a-8358-334f25e64b51);}.da60c4ee-97ad-4171-9438-3bd93ad078c8{fill:#6b6c6f;}.\37 e682c17-f9ab-4524-804c-e90ee78c5fe5{fill:#bebfc1;}</style><radialGradient id="0df44d59-44bd-417b-8d7e-5278a1c19437" cx="940.50661" cy="-480.20595" r="5.11375" gradientTransform="matrix(-0.5404, 0.8415, 0.8415, 0.5404, 918.38745, -521.29534)" gradientUnits="userSpaceOnUse"><stop offset="0.14858" stop-color="#21687e"/><stop offset="0.49097" stop-color="#023f5f"/><stop offset="0.98013"/></radialGradient><radialGradient id="e7647b61-2cd6-4ef0-b21a-53d1d6c28de5" cx="941.70812" cy="-486.15265" r="10.21583" gradientTransform="matrix(-0.5404, 0.8415, 0.8415, 0.5404, 918.38745, -521.29534)" gradientUnits="userSpaceOnUse"><stop offset="0.2849" stop-color="#21687e"/><stop offset="0.42246" stop-color="#0d3b59"/><stop offset="0.58855" stop-color="#05294a"/><stop offset="0.70759" stop-color="#031b31"/><stop offset="0.89781" stop-color="#01070d"/><stop offset="1"/></radialGradient><radialGradient id="587e466c-dc15-4f11-9990-9e9873fe17ca" cx="937.22544" cy="-483.28526" r="6.4213" gradientTransform="matrix(-0.5404, 0.8415, 0.8415, 0.5404, 918.38745, -521.29534)" gradientUnits="userSpaceOnUse"><stop offset="0.28508" stop-color="#fff"/><stop offset="0.69122" stop-color="#6c6c6c"/><stop offset="1"/></radialGradient><radialGradient id="35ab2fea-85be-49fe-88dd-3d8af56b7c37" cx="937.22549" cy="-483.28622" r="6.42299" xlink:href="#587e466c-dc15-4f11-9990-9e9873fe17ca"/><linearGradient id="17360d08-6e6c-4c0a-8358-334f25e64b51" x1="942.58322" y1="-474.12352" x2="942.58322" y2="-471.49493" gradientTransform="matrix(-0.5404, 0.8415, 0.8415, 0.5404, 918.38745, -521.29534)" xlink:href="#0df44d59-44bd-417b-8d7e-5278a1c19437"/></defs><title>astronaut</title><g class="43f2df2d-c01d-4b20-aaa1-f9cefb6ee4cb"><g id="019decf4-b002-4219-9dfc-e1151c886e09" data-name="Layer 2"><g id="364d190a-ac4d-4b35-bc1e-1f9591240a9a" data-name="Layer 1"><g id="0cbb0418-5ee2-4c99-b656-d03e9c0985c7" data-name="astronaut"><path class="5504dec4-0ac2-4ca2-a4e4-7ee092fad7cc" d="M5.97333,20.30021a16.16025,16.16025,0,0,0,3.9864,5.6162s1.0478.8164,1.4892.3145a1.90455,1.90455,0,0,0,.03032-2.5957A16.1367,16.1367,0,0,1,9.028,19.00041Z"/><path class="70d57a11-2673-4384-9267-e80884d9a28b" d="M10.01533,24.017a1.68213,1.68213,0,0,0-.331,1.1152,2.45079,2.45079,0,0,0,.125.6602c.0507.041.1015.084.1504.124,0,0,1.0478.8164,1.4892.3145a1.90455,1.90455,0,0,0,.03032-2.5957c-.082-.0967-.166-.2022-.249-.3145A1.8867,1.8867,0,0,0,10.01533,24.017Z"/><path class="a8ac20a4-9996-45a0-90e9-c169f423408c" d="M8.68333,22.84221a7.55785,7.55785,0,0,1-.5947-1.044,8.86991,8.86991,0,0,1-1.5479-.3183,15.32285,15.32285,0,0,0,2.9688,4.0517,5.86641,5.86641,0,0,1,.292-1.456A7.17129,7.17129,0,0,1,8.68333,22.84221Z"/><path class="70d57a11-2673-4384-9267-e80884d9a28b" d="M10.25753,21.77771c-.0332-.0595-.0654-.1201-.0986-.1797a6.44794,6.44794,0,0,0-2.8496,1.2159c.0654.1054.1357.2129.206.3203A5.78155,5.78155,0,0,1,10.25753,21.77771Z"/><path class="5f1261ab-dfe9-4769-8760-3e423149de6e" d="M5.97333,20.30021s.1328.3213.3867.8271a3.70212,3.70212,0,0,0,1.5625.4444,2.506,2.506,0,0,1,1.0332.1465c.2774.1513,1.5567,2.3017,2.3008,2.8652.2295.1738.4698.3379.7129.4951a1.87512,1.87512,0,0,0-.49018-1.4433A16.1367,16.1367,0,0,1,9.028,19.00041Z"/><path class="a8ac20a4-9996-45a0-90e9-c169f423408c" d="M13.15593,27.58341a1.85881,1.85881,0,0,1-.0009-.9785,1.67471,1.67471,0,0,1,.539-.9151,1.40537,1.40537,0,0,1,.4688-.1865c-.875-.6836-2.5528-1.7597-2.5528-1.7597a1.24541,1.24541,0,0,0-1.5195.8437,1.45449,1.45449,0,0,0,.3399,1.6221,10.44358,10.44358,0,0,0,2.7695,1.5195C13.18133,27.67911,13.16863,27.62931,13.15593,27.58341Z"/><path class="a8ac20a4-9996-45a0-90e9-c169f423408c" d="M13.15593,27.58341a1.85881,1.85881,0,0,1-.0009-.9785,1.67471,1.67471,0,0,1,.539-.9151,1.40537,1.40537,0,0,1,.4688-.1865c-.875-.6836-2.5528-1.7597-2.5528-1.7597a1.24541,1.24541,0,0,0-1.5195.8437,1.45449,1.45449,0,0,0,.3399,1.6221,10.44358,10.44358,0,0,0,2.7695,1.5195C13.18133,27.67911,13.16863,27.62931,13.15593,27.58341Z"/><path class="d612e0dc-469f-4e55-a0af-31a3d206bf18" d="M11.61,23.74361a1.35514,1.35514,0,0,0-1.206.2968c.0264-.0068.0537-.0156.081-.0215a1.28779,1.28779,0,0,1,1.0596.211c.51862.3496,1.961,1.3232,2.1758,1.4424a1.53994,1.53994,0,0,1,.4424-.169C13.28783,24.81971,11.61,23.74361,11.61,23.74361Z"/><path class="5504dec4-0ac2-4ca2-a4e4-7ee092fad7cc" d="M13.155,26.60491c.0263-.0928.0586-.1885.0966-.2862l-2.663-1.8535s-.2579.0293-.40038.6016a1.2595,1.2595,0,0,0,.57028,1.2998,10.29757,10.29757,0,0,0,2.3935,1.1982A1.85965,1.85965,0,0,1,13.155,26.60491Z"/><path class="5504dec4-0ac2-4ca2-a4e4-7ee092fad7cc" d="M14.09443,25.45061c-.4824.2129-.8769.331-1.0097,1.0137a3.21936,3.21936,0,0,0-.0352.9961,1.97476,1.97476,0,0,0,.5186.9775,3.0813,3.0813,0,0,0,.9306.8506,2.32123,2.32123,0,0,0,.7149.2246c.1611.0254.4765.1084.6015-.0449a.15511.15511,0,0,0-.0156-.208c.0674.0009.1338,0,.1963-.0049.1992-.0176.3379-.1367.3096-.3399a.20727.20727,0,0,0-.0577-.122.62834.62834,0,0,0,.1924-.0596c.2539-.1328.2256-.3369-.0176-.4522a2.64773,2.64773,0,0,0-.8027-.1894.89511.89511,0,0,1-.3623-.1436c.0254.0059.0498.0127.0752.0186a1.56693,1.56693,0,0,0,1.2861-.1084c.292-.2647-.1572-.5205-.372-.5703-.2911-.0635-.5977-.0479-.89258-.1006a1.53432,1.53432,0,0,1-.68072-.2539c-.1367-.1074-.3994-.4551-.0625-.499a.614.614,0,0,1,.3155.0644c.2148.0928.7089.6016.957.3613.126-.124.04-.3408-.0322-.4687a2.10126,2.10126,0,0,0-1.0245-.7949A3.25747,3.25747,0,0,0,14.09443,25.45061Z"/><path class="16767fc1-f9ce-425e-8dc9-6f6261ff1656" d="M13.74973,27.78551a2.64879,2.64879,0,0,1,.1533-.7539c-.13278-.0986-.25678-.2265-.3594-.3134a1.82,1.82,0,0,1-.3515-.419,1.76756,1.76756,0,0,0-.044.1719,3.16545,3.16545,0,0,0-.0341.9971,1.97147,1.97147,0,0,0,.5195.9785c.0566.0713.1142.1406.1738.2099A3.06094,3.06094,0,0,1,13.74973,27.78551Z"/><path class="5504dec4-0ac2-4ca2-a4e4-7ee092fad7cc" d="M6.00363,17.27481a6.90723,6.90723,0,0,0-.542,3.0508c.1797,1.3848,4.7754,1.1357,4.3164-.3096C9.321,18.57271,6.14813,16.90081,6.00363,17.27481Z"/><path class="a8ac20a4-9996-45a0-90e9-c169f423408c" d="M9.42253,20.808c-.1826-.0576-.3554-.1211-.4892-.167a7.33432,7.33432,0,0,1-1.3945-.6201,5.07522,5.07522,0,0,1-1.9024-1.6328,8.17026,8.17026,0,0,1,.3672-1.1133c.1445-.374,3.3174,1.2979,3.7744,2.7412A.6703.6703,0,0,1,9.42253,20.808Z"/><path class="1e11f059-304f-4bb6-ab35-3ee51e1f47dc" d="M5.60613,19.31291s-.33488,1.0019.3526,1.4785a4.00408,4.00408,0,0,0,2.6982.1963,4.89919,4.89919,0,0,1-2.3584-.2315A1.82621,1.82621,0,0,1,5.60613,19.31291Z"/><path class="04b90b7b-a1c0-4a74-a09a-8adb884ea395" d="M14.23113,27.42031c-.0088-.0068-.0097.0137-.00288.0195a2.43774,2.43774,0,0,0,1.34668.5743v-.0069A3.62558,3.62558,0,0,1,14.23113,27.42031Z"/><path class="04b90b7b-a1c0-4a74-a09a-8adb884ea395" d="M16.29463,28.75721a2.97282,2.97282,0,0,1-2.2207-.7451c-.0039-.0049-.0049.0068-.0029.0088a2.46287,2.46287,0,0,0,2.2265.7646C16.30833,28.78161,16.30633,28.75431,16.29463,28.75721Z"/><path class="b1408fd4-1666-483e-b53f-f15b1366a33d" d="M14.82683,25.59711a3.25747,3.25747,0,0,0-.7324-.1465c-.4824.2129-.8769.331-1.0097,1.0137l-.001.0068c.14652-.3574.3701-.8389.7861-.6699.15042.0625.4522.3027.35942.5029-.19632.4229.331.8809.72258.9727a5.972,5.972,0,0,1,.8545.2519.19061.19061,0,0,1,.0108.3682,1.19486,1.19486,0,0,1-.7334-.0371,3.54364,3.54364,0,0,1-.7803-.3633,2.31485,2.31485,0,0,0,.9697.5908c.166.0518.5742.1357.6182.3496.0518.2686-.3926.2598-.543.2324a2.83488,2.83488,0,0,1-1.0156-.4502,1.89489,1.89489,0,0,0,1.002.5694c.0664.0136.5751.0947.4277.2851-.1621.208-.6299.0957-.8399.0381a3.03313,3.03313,0,0,1-.7968-.3623,2.14322,2.14322,0,0,0,.8203.4893,1.64057,1.64057,0,0,1,.5664.1767.105.105,0,0,1,.0254.1426.3306.3306,0,0,0,.2773-.0898.15511.15511,0,0,0-.0156-.208c.0674.0009.1338,0,.1963-.0049.1992-.0176.3379-.1367.3096-.3399a.20727.20727,0,0,0-.0577-.122.62834.62834,0,0,0,.1924-.0596c.2539-.1328.2256-.3369-.0176-.4522a2.64773,2.64773,0,0,0-.8027-.1894.89511.89511,0,0,1-.3623-.1436c.0254.0059.0498.0127.0752.0186a1.56693,1.56693,0,0,0,1.2861-.1084c.292-.2647-.1572-.5205-.372-.5703-.2911-.0635-.5977-.0479-.89258-.1006a1.53432,1.53432,0,0,1-.68072-.2539c-.1367-.1074-.3994-.4551-.0625-.499a.614.614,0,0,1,.3155.0644c.2148.0928.7089.6016.957.3613.126-.124.04-.3408-.0322-.4687A2.10126,2.10126,0,0,0,14.82683,25.59711Z"/><path class="04b90b7b-a1c0-4a74-a09a-8adb884ea395" d="M14.95183,29.11861a3.03173,3.03173,0,0,1-.7197-.3086,4.91176,4.91176,0,0,0,.4619.2558c.0401.0205.0801.0401.1201.0596a2.91226,2.91226,0,0,0,.99912.1308c.00578-.0009.00488-.0136,0-.0146A7.95806,7.95806,0,0,1,14.95183,29.11861Z"/><path class="5504dec4-0ac2-4ca2-a4e4-7ee092fad7cc" d="M10.78393,5.66931a2.14,2.14,0,0,1-.1328-.8242,3.9538,3.9538,0,0,1,1.0136-.3711,2.24415,2.24415,0,0,1,1.6573.167,17.02648,17.02648,0,0,1,1.4423,6.0869l-3.3173.1416A16.12314,16.12314,0,0,0,10.78393,5.66931Z"/><path class="a8ac20a4-9996-45a0-90e9-c169f423408c" d="M10.78393,5.66931a2.14,2.14,0,0,1-.1328-.8242,3.9538,3.9538,0,0,1,1.0136-.3711,2.42977,2.42977,0,0,1,1.4942.0791,1.29513,1.29513,0,0,1,.2949.6436,1.92646,1.92646,0,0,1-.3281,1.1816,3.92619,3.92619,0,0,0,.7207,2.7295,5.52387,5.52387,0,0,1,.84082.6504c.06348.5957.07708.9697.07708.9697l-3.3173.1416A16.12314,16.12314,0,0,0,10.78393,5.66931Z"/><path class="d612e0dc-469f-4e55-a0af-31a3d206bf18" d="M12.87083,6.54041a1.89739,1.89739,0,0,1-1.7315.4932,9.63087,9.63087,0,0,0-.3554-1.3643,2.14,2.14,0,0,1-.1328-.8242,3.9538,3.9538,0,0,1,1.0136-.3711,2.42977,2.42977,0,0,1,1.4942.0791,1.31872,1.31872,0,0,1,.2802.5762A1.74043,1.74043,0,0,1,12.87083,6.54041Z"/><path class="70d57a11-2673-4384-9267-e80884d9a28b" d="M11.27413,7.83541c.0098.0693.0195.1357.0293.205a6.47189,6.47189,0,0,0,3.0947-.1357c-.0244-.1221-.0517-.2461-.08-.3731A5.74466,5.74466,0,0,1,11.27413,7.83541Z"/><path class="5504dec4-0ac2-4ca2-a4e4-7ee092fad7cc" d="M13.67063,13.54731a6.89791,6.89791,0,0,0,1.581-2.6621c.3194-1.3614-4.0703-2.7442-4.1503-1.2305S13.405,13.848,13.67063,13.54731Z"/><path class="1e11f059-304f-4bb6-ab35-3ee51e1f47dc" d="M14.75953,11.78071s.667-.8203.1914-1.5069a4.00377,4.00377,0,0,0-2.458-1.1338,4.86856,4.86856,0,0,1,2.1259,1.0459A1.82263,1.82263,0,0,1,14.75953,11.78071Z"/><path class="a8ac20a4-9996-45a0-90e9-c169f423408c" d="M9.85133,2.727a2.06808,2.06808,0,0,1,.0517,1.0712,1.84233,1.84233,0,0,1-.543,1.0303,1.56392,1.56392,0,0,1-.50478.2285c.99308.7032,2.18548,1.5078,2.18548,1.5078A1.83611,1.83611,0,0,0,13.364,5.85a1.597,1.597,0,0,0-.4571-1.7588,11.51845,11.51845,0,0,0-3.1103-1.5215C9.81613,2.62441,9.83473,2.67711,9.85133,2.727Z"/><path class="5504dec4-0ac2-4ca2-a4e4-7ee092fad7cc" d="M9.97825,4.22111l-.167-.1045c.03708-.1064.06538-.2148.09178-.3184a2.04833,2.04833,0,0,0-.0469-1.0498c.084.0235.1758.0518.2725.084A1.59737,1.59737,0,0,1,9.97825,4.22111Z"/><path class="5504dec4-0ac2-4ca2-a4e4-7ee092fad7cc" d="M10.38253,2.91931a10.39626,10.39626,0,0,1,2.1572,1.0176,1.38635,1.38635,0,0,1,.6934,1.3936c-.12888.6347-.4102.6797-.4102.6797L10.154,4.33241A1.85573,1.85573,0,0,0,10.38253,2.91931Z"/><path class="a8ac20a4-9996-45a0-90e9-c169f423408c" d="M6.13843,4.27681a.73923.73923,0,0,1,.5761-.4258,3.33862,3.33862,0,0,1,.7998-.0303,5.99017,5.99017,0,0,0-1.1748-1.1182c-.1601-.1064-.3379-.1914-.4912-.3066a.778.778,0,0,1-.2734-.2949c-.0254-.3164.0947-.4502.36332-.4073l.00488.001a2.15857,2.15857,0,0,1,.3554.124,2.0977,2.0977,0,0,1,.3389.1612c.0449.0234.0859.0459.1211.0635.0156.0087.0322.0185.0478.0263-.2968-.2929-.6543-.5156-.9287-.8369a.28818.28818,0,0,1,.2129-.4512,1.47731,1.47731,0,0,1,.9424.3164,4.14167,4.14167,0,0,0-.30268-.3691c-.15532-.1621-.21782-.4473.05168-.5498a.74813.74813,0,0,1,.8164.2119c.0176.0176.0371.0371.0567.0576a.30468.30468,0,0,1,.0293-.2773c.25092-.3486.6015-.0879.8554.1025a4.21405,4.21405,0,0,1,1.376,1.753,3.79772,3.79772,0,0,1,.3506,1.1787,2.01954,2.01954,0,0,1-1.0947,1.9267,2.28917,2.28917,0,0,1-1.5928-.2793,4.03282,4.03282,0,0,0-.5918-.1572,2.27174,2.27174,0,0,1-.7559-.1641A.19724.19724,0,0,1,6.13843,4.27681Z"/><path class="f4f128c1-d6ff-4e27-8643-0698671fb6c4" d="M6.12763,4.392c.2383-.4902,1.0664-.3545,1.4912-.3779a1.324,1.324,0,0,1,1.3887.6445c.0762.1123.2666.0166.1895-.0967-.1934-.289-.4502-.6689-.8213-.7412a3.51592,3.51592,0,0,0-.877-.0225,6.18107,6.18107,0,0,0-1.1592-1.0957c-.1601-.1064-.3379-.1914-.4912-.3066a.78561.78561,0,0,1-.1484-.123l-.0068-.0147c-.1836-.2373.16012-.2832.3105-.2422.1367.0381.3057.0156.4404.0615a5.431,5.431,0,0,0,.628.252c-.09278-.0928-.1856-.1826-.2842-.2695l.0185.0097c-.2802-.2754-.6132-.4902-.8798-.7832-.0577-.3379.3505-.4013.5703-.3027.1933.0849.706.3398.6347.2432a1.46586,1.46586,0,0,0-.123-.1446l.0244.0156a4.14167,4.14167,0,0,0-.30268-.3691.46262.46262,0,0,1-.13292-.3037c.334-.3936,1.1338.2832,1.1055.1982-.0205-.0576-.0361-.1191-.0517-.1787l.0039.0039a.30468.30468,0,0,1,.0293-.2773.45394.45394,0,0,1,.0713-.0781c.5703-.212,1.5732,1.3701,1.7675,1.7158a3.59117,3.59117,0,0,1,.5625,1.7881,2.22289,2.22289,0,0,1-.3437,1.122,1.43657,1.43657,0,0,1-.5703.4131,2.28917,2.28917,0,0,1-1.5928-.2793,4.03282,4.03282,0,0,0-.5918-.1572,2.27174,2.27174,0,0,1-.7559-.1641A.22113.22113,0,0,1,6.12763,4.392Z"/><path class="f4f128c1-d6ff-4e27-8643-0698671fb6c4" d="M6.55633,2.72011a4.63685,4.63685,0,0,1,1.1983,1.0654c-.086.003-.1709.0069-.2559.0127a6.18107,6.18107,0,0,0-1.1592-1.0957c-.1601-.1064-.3379-.1914-.4912-.3066a.70867.70867,0,0,1-.1386-.1133C5.96943,2.45641,6.30243,2.56,6.55633,2.72011Z"/><path class="a6e708ed-7590-4cd7-a388-41fd69d8d9a6" d="M7.79463,2.99361c-.0371-.2647.1924-.4444.3457-.6036.082-.0859.2832-.1855.375-.2617a.77379.77379,0,0,1,.6524-.2129.22154.22154,0,0,1,.125.3008,1.28164,1.28164,0,0,1-.1866.3379,1.26787,1.26787,0,0,1-.5283.3906,1.308,1.308,0,0,1-.6308.1582C7.84643,3.09221,7.80343,3.04821,7.79463,2.99361Z"/><path class="f4f128c1-d6ff-4e27-8643-0698671fb6c4" d="M6.864,4.54531a6.01534,6.01534,0,0,1,1.4589.5117,2.22806,2.22806,0,0,0,.6485.128,2.8075,2.8075,0,0,1-1.3926-.3321,4.03282,4.03282,0,0,0-.5918-.1572,2.27174,2.27174,0,0,1-.7559-.1641.19523.19523,0,0,1-.0332-.0263A2.58142,2.58142,0,0,0,6.864,4.54531Z"/><path class="ee7e671b-0b91-44e0-9fe5-4b34189b375e" d="M7.55053,2.98871l.0049-.0127a4.8882,4.8882,0,0,0-.7491-.9014,1.10172,1.10172,0,0,1,.1055.0449,3.02092,3.02092,0,0,1,.6631.8155,1.91659,1.91659,0,0,1,.4844-.5684,13.0237,13.0237,0,0,0-1.0967-1.3398c.0185.0127.0371.0273.05562.04a1.96521,1.96521,0,0,1,.26958.2402c.0693.0733.1367.1475.207.2207a5.82461,5.82461,0,0,1,.5928.8135l.0293-.0244a4.57119,4.57119,0,0,1,.5869-.4287,5.88779,5.88779,0,0,0-.6533-.8067,1.54193,1.54193,0,0,1-.3926-.5791c0-.0332,0-.0673.0029-.1015a1.85791,1.85791,0,0,0,.5899.8213,2.87232,2.87232,0,0,1,.4922.6435.95266.95266,0,0,1,.2168-.082A3.72573,3.72573,0,0,0,7.55053,2.98871Z"/><path class="ee7e671b-0b91-44e0-9fe5-4b34189b375e" d="M7.42353,3.80411a2.80067,2.80067,0,0,1,1.1328.04c.2364.0723.6084.3907.63192.6563.00088.0088-.01762.0156-.02252.0058l-.0019-.0048c-.003-.0078.0146-.0118.0195-.0078-.1992-.169-.3213-.418-.5762-.5645-.3496-.2041-.8125-.084-1.1924-.1035C7.39425,3.82561,7.40893,3.80511,7.42353,3.80411Z"/><path class="ae4d465d-876e-4c8c-a88b-1a0592f99caa" d="M13.57293,5.52681a18.14464,18.14464,0,0,1,.9356,3.8476.73277.73277,0,0,1-.3906-.4267c-.1456-.3487-.6875-2.5079-.6875-2.5079Z"/><path class="5504dec4-0ac2-4ca2-a4e4-7ee092fad7cc" d="M9.82393,4.47211a1.88938,1.88938,0,0,0,.2119-1.1992A4.15822,4.15822,0,0,0,9.68433,2.14,3.88884,3.88884,0,0,0,7.90893.101c-.01168-.0059.0039-.0176.0107-.0147a3.65623,3.65623,0,0,1,1.8428,1.9219A2.47444,2.47444,0,0,1,9.85225,4.477C9.84543,4.48571,9.81613,4.48771,9.82393,4.47211Z"/><path class="5504dec4-0ac2-4ca2-a4e4-7ee092fad7cc" d="M18.81713,14.557a2.3228,2.3228,0,0,1,1.372.417c.712.4756-.33688,5.0996-.7646,6.1914-.4277,1.0899-4.5039,3.2325-5.2344,2.7246-.7285-.5078-.9697-.8222-.6953-1.2851C13.77025,22.142,18.81713,14.557,18.81713,14.557Z"/><path class="b1408fd4-1666-483e-b53f-f15b1366a33d" d="M20.12473,15.94471a13.73352,13.73352,0,0,0-1.5352-1.0468c.1446-.2188.2276-.3409.2276-.3409a2.3228,2.3228,0,0,1,1.372.417c.2012.1348.2627.6045.2364,1.2315C20.32593,16.11461,20.22533,16.02871,20.12473,15.94471Z"/><path class="b1408fd4-1666-483e-b53f-f15b1366a33d" d="M13.49483,22.60491c.02742-.0479.10942-.1738.2295-.3584.0098.0068.0176.0156.0273.0234a8.584,8.584,0,0,0,.8741.6446c.4043.2509.831.4658,1.2441.7001-.76758.3086-1.4248.4522-1.6797.2754C13.46163,23.38221,13.22043,23.06781,13.49483,22.60491Z"/><path class="cea455c5-ff08-40c7-a481-d8441976c4ce" d="M5.94313,18.34711c-.668-.8897,1.2275-3.8887,1.2275-3.8887l.6572-.9727.6113-1.0009s1.9366-2.9717,3.0254-2.7354c1.087.2383,7.38872,4.3233,7.669,5.0459.1914.4961-.2695,2.166-1.0449,3.8184-.1729.3711-.377.6875-.5791,1.0429-.24028.3321-.4844.7149-.75,1.0274-1.1807,1.3926-2.5069,2.5068-3.0381,2.539C12.94793,23.26891,6.61,19.23671,5.94313,18.34711Z"/><path class="5504dec4-0ac2-4ca2-a4e4-7ee092fad7cc" d="M6.04563,18.07851c-.6309-.8408,1.1611-3.6748,1.1611-3.6748l.6201-.918.5762-.9472s1.8311-2.8067,2.8574-2.583c1.0264.2246,6.9825,4.083,7.2452,4.7666.18262.4687-.252,2.0459-.98538,3.6084-.16412.3496-.35642.6474-.54792.9853-.2246.3135-.457.6729-.707.9697-1.1162,1.3155-2.37008,2.3672-2.87008,2.3975C12.66383,22.727,6.67653,18.91841,6.04563,18.07851Z"/><path class="5665557f-d220-44d6-b624-02ade45cf136" d="M16.83273,19.52771a6.32813,6.32813,0,0,0,1.207-3.9814,4.87051,4.87051,0,0,0-.81248-2.3516,8.17563,8.17563,0,0,1,1.90628,1.6006c.1914.4961-.2695,2.166-1.0449,3.8184-.1729.3711-.377.6875-.5791,1.0429-.24028.3321-.4844.7149-.75,1.0274-1.1807,1.3926-2.5069,2.5068-3.0381,2.539a5.17861,5.17861,0,0,1-1.5625-.6806A6.62405,6.62405,0,0,0,16.83273,19.52771Z"/><path class="ee7e671b-0b91-44e0-9fe5-4b34189b375e" d="M9.45093,14.602a9.08452,9.08452,0,0,1-2.0752,2.1562,3.92491,3.92491,0,0,1-1.5616.8506,10.36942,10.36942,0,0,1,1.3565-3.1504l.6572-.9727.6113-1.0009a10.94808,10.94808,0,0,1,2.1856-2.4737A6.40441,6.40441,0,0,1,9.45093,14.602Z"/><path class="5504dec4-0ac2-4ca2-a4e4-7ee092fad7cc" d="M8.01433,9.64691a1.37039,1.37039,0,0,0,1.8926-.4131h0a1.37023,1.37023,0,0,0-.4131-1.8936l-.80858-.5185a1.37078,1.37078,0,0,0-1.89352.4131h0a1.37033,1.37033,0,0,0,.414,1.8925Z"/><path class="ff467f82-46bc-4a7e-90ac-6da51dfda9ec" d="M8.04753,9.50531a1.23386,1.23386,0,0,0,1.7041-.3701h0a1.23245,1.23245,0,0,0-.372-1.7041l-.7285-.4688a1.23245,1.23245,0,0,0-1.7041.3711h0a1.233,1.233,0,0,0,.372,1.7041Z"/><path class="cfd76549-af7d-4a05-8c72-6c39ab1660b4" d="M7.75463,7.40661a.28384.28384,0,0,0,.38862-.0839.28023.28023,0,1,0-.38862.0839Z"/><path class="9859e7e8-e936-4a78-a73c-12ce5b91376a" d="M7.80833,7.13711a.07582.07582,0,1,0-.0225-.1045A.0769.0769,0,0,0,7.80833,7.13711Z"/><path class="9859e7e8-e936-4a78-a73c-12ce5b91376a" d="M8.02613,7.09511a.03226.03226,0,0,0,.0468-.0097.03552.03552,0,0,0-.00968-.0489.03678.03678,0,0,0-.04892.0117A.034.034,0,0,0,8.02613,7.09511Z"/><path class="cfd76549-af7d-4a05-8c72-6c39ab1660b4" d="M8.77225,7.99841a.27954.27954,0,1,0,.30168-.4707.27954.27954,0,0,0-.30168.4707Z"/><path class="9859e7e8-e936-4a78-a73c-12ce5b91376a" d="M8.82593,7.72991a.0764.0764,0,0,0,.1054-.0244.07563.07563,0,0,0-.0244-.1045.07452.07452,0,0,0-.1035.0234A.076.076,0,0,0,8.82593,7.72991Z"/><path class="9859e7e8-e936-4a78-a73c-12ce5b91376a" d="M9.04363,7.68691a.03462.03462,0,0,0,.0479-.0088.03591.03591,0,0,0-.0117-.0488.03487.03487,0,0,0-.0479.0098A.03346.03346,0,0,0,9.04363,7.68691Z"/><path class="ee7e671b-0b91-44e0-9fe5-4b34189b375e" d="M6.79173,7.23481a1.37157,1.37157,0,0,1,.2871-.3203,5.04725,5.04725,0,0,1,1.6768.8603c.2998.2227.6025.4453.88962.6846.14258.1191.29588.2392.43548.3711a1.41928,1.41928,0,0,1-.1738.4033,1.37039,1.37039,0,0,1-1.8926.4131l-.8086-.5196A1.37033,1.37033,0,0,1,6.79173,7.23481Z"/><path class="5504dec4-0ac2-4ca2-a4e4-7ee092fad7cc" d="M4.41283,15.25331a1.37043,1.37043,0,0,1,.4121,1.8936h0a1.37,1.37,0,0,1-1.8926.4131l-.8076-.5205a1.36916,1.36916,0,0,1-.4131-1.8926h0a1.36906,1.36906,0,0,1,1.89162-.4131Z"/><path class="ff467f82-46bc-4a7e-90ac-6da51dfda9ec" d="M4.29853,15.34321a1.23306,1.23306,0,0,1,.3711,1.7041h0a1.23294,1.23294,0,0,1-1.7031.3711l-.7285-.4678a1.2329,1.2329,0,0,1-.3711-1.7041h0a1.232,1.232,0,0,1,1.7031-.3721Z"/><path class="cfd76549-af7d-4a05-8c72-6c39ab1660b4" d="M2.26825,15.95061a.27982.27982,0,1,1-.38572.0849A.27989.27989,0,0,1,2.26825,15.95061Z"/><path class="9859e7e8-e936-4a78-a73c-12ce5b91376a" d="M2.04663,16.11171a.07687.07687,0,0,1,.0234.1055.07854.07854,0,0,1-.1064.0224.07614.07614,0,0,1-.0205-.1054A.07359.07359,0,0,1,2.04663,16.11171Z"/><path class="9859e7e8-e936-4a78-a73c-12ce5b91376a" d="M2.10033,16.32661a.03483.03483,0,0,1-.03908.0576.03482.03482,0,1,1,.03908-.0576Z"/><path class="cfd76549-af7d-4a05-8c72-6c39ab1660b4" d="M3.23025,16.62931a.27958.27958,0,1,1-.38682.084A.28046.28046,0,0,1,3.23025,16.62931Z"/><path class="9859e7e8-e936-4a78-a73c-12ce5b91376a" d="M3.00853,16.79141a.07616.07616,0,0,1,.0234.1045.0781.0781,0,0,1-.1064.0225.075.075,0,0,1-.0225-.1045A.07338.07338,0,0,1,3.00853,16.79141Z"/><path class="9859e7e8-e936-4a78-a73c-12ce5b91376a" d="M3.06025,17.00331a.03484.03484,0,0,1,.00978.0488.03265.03265,0,0,1-.0459.0108.03388.03388,0,0,1-.0117-.0488A.0364.0364,0,0,1,3.06025,17.00331Z"/><path class="ee7e671b-0b91-44e0-9fe5-4b34189b375e" d="M1.71163,15.14691a1.35506,1.35506,0,0,0-.1719.3926,5.05483,5.05483,0,0,0,1.47952,1.1669c.32718.1807.65728.3633.99418.5254.1679.0791.33982.169.5175.2403a1.326,1.326,0,0,0,.294-.3252,1.37043,1.37043,0,0,0-.4121-1.8936l-.80958-.5195A1.36906,1.36906,0,0,0,1.71163,15.14691Z"/><path class="5504dec4-0ac2-4ca2-a4e4-7ee092fad7cc" d="M.50463,9.52291a5.81791,5.81791,0,0,1,.3193-.5713,5.32488,5.32488,0,0,1,.3867-.5274,4.93681,4.93681,0,0,1,6.5703-.9414c2.251,1.4443,3.0049,2.2949,2.3389,4.752a7.20772,7.20772,0,0,1-.999,2.0966,6.57281,6.57281,0,0,1-1.4453,1.7071c-1.9541,1.6279-3.042,1.2959-5.292-.1494A4.93676,4.93676,0,0,1,.50463,9.52291Z"/><path class="a8ac20a4-9996-45a0-90e9-c169f423408c" d="M9.81225,9.12831c.59958.7793.69728,1.667.30758,3.1065a7.20772,7.20772,0,0,1-.999,2.0966,6.57281,6.57281,0,0,1-1.4453,1.7071c-1.2198,1.0156-2.1026,1.2685-3.1407.9638A14.34961,14.34961,0,0,1,9.81225,9.12831Z"/><path class="bf1c257a-4827-4173-84bf-0840007edd7d" d="M6.28483,7.35981c-.0517.1884-.289.081-.4453.0673a6.38267,6.38267,0,0,0-1.1005-.0205,4.77368,4.77368,0,0,0-1.9112.5274,3.1122,3.1122,0,0,1-.26658-.6592,4.89072,4.89072,0,0,1,3.791-.4355A2.558,2.558,0,0,1,6.28483,7.35981Z"/><path class="bf1c257a-4827-4173-84bf-0840007edd7d" d="M1.05933,13.27381c.124.2276.25192.4541.3877.6748l-.0196.0059c-.2353.0762-.4658.1641-.69818.2441a4.86655,4.86655,0,0,1-.69632-1.998c.1934-.0313.3887-.0664.582-.0977A6.48765,6.48765,0,0,0,1.05933,13.27381Z"/><path class="ee7e671b-0b91-44e0-9fe5-4b34189b375e" d="M3.04853,15.35881a4.08983,4.08983,0,0,0,5.6143-1.374A4.08974,4.08974,0,0,0,7.57493,8.308a4.08809,4.08809,0,0,0-5.6143,1.3731A4.09021,4.09021,0,0,0,3.04853,15.35881Z"/><path class="629e6958-e43e-4fd0-b87d-b2b5638e2c26" d="M2.98025,15.016a3.84448,3.84448,0,0,0,5.27728-1.291A3.84219,3.84219,0,0,0,7.235,8.391a3.84056,3.84056,0,0,0-5.2744,1.2901A3.84355,3.84355,0,0,0,2.98025,15.016Z"/><path class="ef5d1d53-0132-461d-9221-9fb7600b216d" d="M1.78683,13.74061a3.19021,3.19021,0,0,0,1.2246,1.0635,3.35162,3.35162,0,0,0,3.6455-.5781,4.808,4.808,0,0,0,1.7022-3.2373,3.19526,3.19526,0,0,0-3.17088-3.1641A3.56875,3.56875,0,0,1,7.235,8.391a3.84219,3.84219,0,0,1,1.0225,5.334,3.84448,3.84448,0,0,1-5.27728,1.291A3.58691,3.58691,0,0,1,1.78683,13.74061Z"/><path class="b5fc0629-95da-438e-9ac6-be7d1993635c" d="M7.571,9.24751a4.0203,4.0203,0,0,1,.4678.4629,3.90058,3.90058,0,0,1,.3242.4355,6.34992,6.34992,0,0,1,.0644.6875,6.84361,6.84361,0,0,1-.0283,1.124,4.8434,4.8434,0,0,0-1.0762-1.4609A10.7578,10.7578,0,0,0,7.571,9.24751Z"/><path class="d81f7c82-1606-44e2-9a82-f8ceb61b664c" d="M2.37573,9.63121a3.56106,3.56106,0,0,1,2.9609-1.3593,3.98457,3.98457,0,0,1,1.8242.664c-.0703.376-.18158.752-.2802,1.1133-.0059.0225-.0118.0459-.0186.0684a4.6187,4.6187,0,0,0-.8701-.4971,3.661,3.661,0,0,0-2.6924-.1582,4.36148,4.36148,0,0,0-1.3516.7783A4.47368,4.47368,0,0,1,2.37573,9.63121Z"/><path class="33b0664d-facb-4d5b-8431-795298c8491a" d="M8.80733,17.37731l.4121-.6416,2.1817-3.3994.41212-.6406c.40818-.6348.96578-.4238,1.40428-.251l2.25972,1.4522,1.77048,1.1377.06452.042-.00682.0127c.3281.3183.6855.7246.29982,1.3261l-.41312.6407-2.1817,3.3994-.4121.6406c-.3847.6016-.9043.4463-1.331.2803l-.0069.0127-.0664-.043-1.7705-1.1377-2.2597-1.4502C8.822,18.432,8.39813,18.01411,8.80733,17.37731Z"/><path class="5504dec4-0ac2-4ca2-a4e4-7ee092fad7cc" d="M8.96753,17.32851l.38672-.6025,2.05468-3.1983.3867-.6035c.3848-.5986.9092-.4004,1.3213-.2353l2.1269,1.3652,1.666,1.0693.0616.0411-.0069.0126c.3086.2979.6446.6817.2823,1.2461l-.3877.6036-2.0547,3.1992-.3867.6035c-.3633.5644-.8516.4189-1.253.2617l-.0078.0127-.0596-.0391-1.6669-1.0712-2.127-1.3653C8.98313,18.32071,8.58373,17.92811,8.96753,17.32851Z"/><path class="ff467f82-46bc-4a7e-90ac-6da51dfda9ec" d="M12.44793,19.81681l.0899-.1397.4746-.7402.08982-.1406c.08888-.1367.21-.0918.30468-.0537l.4932.3164.3857.248.0137.0088-.001.0029c.0713.0694.1494.1583.0655.2901l-.0899.1377-.4756.7392-.0898.1407c-.084.1308-.1973.0966-.2901.0615l-.0009.0019-.0147-.0087-.38478-.2481-.49212-.3164C12.45183,20.04631,12.35713,19.95451,12.44793,19.81681Z"/><path class="5504dec4-0ac2-4ca2-a4e4-7ee092fad7cc" d="M12.55343,19.78751l.0781-.1211.4102-.6406.0781-.1192c.0781-.1201.1817-.081.2637-.0488l.42672.2744.33208.2139.0127.0078-.002.0029c.0625.0596.1289.1368.0576.2491l-.0791.1201-.4101.6406-.07718.1211c-.07322.1123-.16992.084-.251.0527l-.00192.002-.0127-.0088-.332-.2139-.4258-.2724C12.55633,19.98481,12.47725,19.90761,12.55343,19.78751Z"/><path class="1e11f059-304f-4bb6-ab35-3ee51e1f47dc" d="M12.69113,19.74941l.0625-.0967.3271-.5088.0616-.0966c.0605-.0948.0986-.0938.12692-.0918l.12208.0791.0986.0625.002.0029-.002.001c.0137.0244.0244.0586-.0332.1484l-.06148.0967-.32712.5088-.0625.0967c-.0567.0898-.0938.0937-.1202.0927l-.0009.001-.003-.0029-.0976-.0606-.1231-.081C12.64625,19.87731,12.62963,19.84511,12.69113,19.74941Z"/><path class="1e11f059-304f-4bb6-ab35-3ee51e1f47dc" d="M9.38643,17.6l.1729-.2705.9257-1.4414.1758-.2725c.0381-.0605.15242-.2383.19142-.3008l.17478-.2705.9258-1.4414.1729-.2715c.1748-.2695.3359-.2275.4638-.1904l.6182.3965.4844.3115.0176.0117-.003.0049c.083.0977.167.2285.0039.4834l-.1748.2715-.9248,1.4414-.17378.2725c-.04.0595-.15532.2383-.19242.2988l-.1758.2715-.92478,1.4414-.17382.2705c-.166.2559-.3184.2324-.4424.1982l-.0039.0059-.0166-.0117-.48528-.3115L9.404,18.101A.35135.35135,0,0,1,9.38643,17.6Z"/><path class="ff467f82-46bc-4a7e-90ac-6da51dfda9ec" d="M13.40983,18.31681l.0909-.1397.4746-.7412.0908-.1386c.0879-.1377.2109-.0918.3047-.0537l.4922.3164.3847.2461.0147.0097-.001.0029c.0723.0694.1494.1573.0654.2891l-.0898.1397-.4746.7392-.0899.1397c-.0849.1308-.1982.0976-.29.0615l-.0019.0029-.0147-.0097-.3848-.2481-.4912-.3164C13.41383,18.54731,13.322,18.45641,13.40983,18.31681Z"/><path class="5504dec4-0ac2-4ca2-a4e4-7ee092fad7cc" d="M13.51633,18.28751l.0781-.1201.4121-.6416.0762-.1201c.0762-.1182.1807-.0791.2637-.0459l.42582.2724.33388.2129.0127.0088-.0029.0029c.0615.0596.1299.1358.0576.2491l-.0791.1211-.4101.6406-.0782.1211c-.0713.1123-.16988.083-.249.0517l-.00288.003-.01172-.0088-.333-.2149-.4258-.2715C13.51925,18.48571,13.43913,18.40761,13.51633,18.28751Z"/><path class="1e11f059-304f-4bb6-ab35-3ee51e1f47dc" d="M13.654,18.24841l.0625-.0957.3262-.5097.06252-.0957c.06148-.0957.09858-.0938.12588-.0918l.12312.0791.09758.0615.002.0029-.001.001c.0127.0244.02542.0596-.0312.1504l-.0635.0937-.3262.5118-.0635.0957c-.0556.0898-.0918.0947-.1201.0918l-.0019.0019-.0039-.0019-.0957-.0625-.1221-.0782C13.61,18.37831,13.59343,18.34411,13.654,18.24841Z"/><path class="a8ac20a4-9996-45a0-90e9-c169f423408c" d="M12.76925,17.55511a.3729.3729,0,0,0,.51268-.1114h0a.37154.37154,0,0,0-.1133-.5126h0a.36924.36924,0,0,0-.5117.1123h0a.3703.3703,0,0,0,.11232.5117Z"/><path class="a8ac20a4-9996-45a0-90e9-c169f423408c" d="M12.21453,18.41641a.37138.37138,0,0,0,.51272-.1103h0a.3728.3728,0,0,0-.11322-.5137h0a.37109.37109,0,0,0-.51178.1123h0a.37077.37077,0,0,0,.11228.5117Z"/><path class="a8ac20a4-9996-45a0-90e9-c169f423408c" d="M11.66083,19.27971a.3709.3709,0,0,0,.5117-.1113h0a.36986.36986,0,0,0-.11128-.5127h0a.37012.37012,0,0,0-.51172.1123h0a.37005.37005,0,0,0,.1113.5117Z"/><rect class="a8ac20a4-9996-45a0-90e9-c169f423408c" x="13.90482" y="14.42137" width="2.13269" height="3.07308" transform="translate(-6.544 19.94393) rotate(-57.32324)"/><rect class="5504dec4-0ac2-4ca2-a4e4-7ee092fad7cc" x="14.19349" y="14.62169" width="0.55776" height="0.55914" transform="translate(-5.88513 19.03274) rotate(-57.30866)"/><rect class="5504dec4-0ac2-4ca2-a4e4-7ee092fad7cc" x="13.85805" y="15.14397" width="0.5587" height="0.55807" transform="translate(-6.47622 19.00267) rotate(-57.34174)"/><rect class="5504dec4-0ac2-4ca2-a4e4-7ee092fad7cc" x="13.52321" y="15.66528" width="0.55894" height="0.55845" transform="translate(-7.07388 18.92955) rotate(-57.25555)"/><polygon class="5504dec4-0ac2-4ca2-a4e4-7ee092fad7cc" points="15.108 15.643 15.411 15.171 14.94 14.871 14.638 15.339 15.108 15.643"/><rect class="5504dec4-0ac2-4ca2-a4e4-7ee092fad7cc" x="14.41057" y="15.49857" width="0.55916" height="0.55832" transform="translate(-6.52431 19.60969) rotate(-57.28327)"/><rect class="5504dec4-0ac2-4ca2-a4e4-7ee092fad7cc" x="14.07588" y="16.01961" width="0.55861" height="0.55829" transform="translate(-7.11375 19.58596) rotate(-57.33312)"/><rect class="5504dec4-0ac2-4ca2-a4e4-7ee092fad7cc" x="15.3076" y="15.33802" width="0.55905" height="0.55912" transform="matrix(0.54044, -0.84138, 0.84138, 0.54044, -5.97715, 20.29194)"/><rect class="5504dec4-0ac2-4ca2-a4e4-7ee092fad7cc" x="14.97231" y="15.85868" width="0.55872" height="0.56026" transform="matrix(0.54057, -0.8413, 0.8413, 0.54057, -6.57047, 20.24594)"/><rect class="5504dec4-0ac2-4ca2-a4e4-7ee092fad7cc" x="14.6387" y="16.38108" width="0.55845" height="0.55845" transform="translate(-7.15371 20.25936) rotate(-57.41946)"/><rect class="5504dec4-0ac2-4ca2-a4e4-7ee092fad7cc" x="15.86034" y="15.692" width="0.55857" height="0.55921" transform="translate(-6.02927 20.88279) rotate(-57.19147)"/><rect class="5504dec4-0ac2-4ca2-a4e4-7ee092fad7cc" x="15.52513" y="16.21344" width="0.55805" height="0.55928" transform="translate(-6.61404 20.87688) rotate(-57.28636)"/><rect class="5504dec4-0ac2-4ca2-a4e4-7ee092fad7cc" x="15.19021" y="16.73531" width="0.55894" height="0.55899" transform="translate(-7.21245 20.80107) rotate(-57.20009)"/><path class="4bf137d6-9797-4670-a075-ce9330b930bd" d="M9.60425,17.68011,9.736,17.474l.70122-1.0947.13378-.2051c.0293-.0469.11622-.1816.1455-.2285l.1338-.2061.7021-1.0937.1319-.208c.1318-.2041.2568-.1719.3515-.1436l.4698.3018.3671.2344.0137.0088-.0019.0058c.0625.0733.1269.1738.0029.3662l-.1328.2071-.7012,1.0927-.1328.2071c-.0303.0468-.1172.1816-.1475.2285l-.1318.206-.7022,1.0938-.1337.207c-.1231.1924-.2413.1748-.335.1494l-.002.0039-.0136-.0088-.3672-.2353-.4697-.3027A.26687.26687,0,0,1,9.60425,17.68011Z"/><path class="da60c4ee-97ad-4171-9438-3bd93ad078c8" d="M11.32493,16.32271a6.99532,6.99532,0,0,1-1.0645,1.2919,3.61721,3.61721,0,0,1-.4746.3858l-.0644-.042a.24991.24991,0,0,1-.0137-.3555l1.9492-3.0351a.25191.25191,0,0,1,.3291-.1377l.084.0547A3.179,3.179,0,0,1,11.32493,16.32271Z"/><path class="7e682c17-f9ab-4524-804c-e90ee78c5fe5" d="M28.65593,26.14981c.3897.1572.7891.2832,1.1846.4229a6.20852,6.20852,0,0,0,.9893.29,2.826,2.826,0,0,0,1.69242-.1465,1.86555,1.86555,0,0,0,.79188-2.8271,4.55012,4.55012,0,0,0-1.7236-1.0567,9.92757,9.92757,0,0,0-1.1719-.4219c-.1582-.04-.31438-.0761-.4726-.1152-.2051-.0732-.4102-.1465-.6201-.2021a3.06021,3.06021,0,0,0-1.3692-.0479c-.7734.1426-1.7627.709-1.8203,1.5899a1.96427,1.96427,0,0,0,.7617,1.5566A6.75313,6.75313,0,0,0,28.65593,26.14981Z"/><path class="b1408fd4-1666-483e-b53f-f15b1366a33d" d="M28.58073,24.70741a2.60535,2.60535,0,0,1-1.999.085c-.0293-.0108-.05948-.0254-.0898-.0391a1.77648,1.77648,0,0,1-.3555-1.1181c.0576-.8809,1.0469-1.4473,1.8203-1.5899a3.06021,3.06021,0,0,1,1.3692.0479c.1045.0273.207.0586.3086.0937A1.92657,1.92657,0,0,1,28.58073,24.70741Z"/><path class="5504dec4-0ac2-4ca2-a4e4-7ee092fad7cc" d="M30.50263,24.18791a4.00405,4.00405,0,0,1,1.0967-1.3525,4.55934,4.55934,0,0,1,1.7148,1.0537,1.86555,1.86555,0,0,1-.79188,2.8271,2.826,2.826,0,0,1-1.69242.1465,5.11991,5.11991,0,0,1-.7383-.2022A4.01374,4.01374,0,0,1,30.50263,24.18791Z"/><path class="a8ac20a4-9996-45a0-90e9-c169f423408c" d="M26.89813,25.19181a1.96427,1.96427,0,0,1-.7617-1.5566,1.21129,1.21129,0,0,1,.09082-.3887,1.866,1.866,0,0,0,.43848,1.3476,5.14923,5.14923,0,0,0,2.7227,1.4278,3.53365,3.53365,0,0,0,3.2197-.378,1.59326,1.59326,0,0,0,.7344-1.3525,1.46916,1.46916,0,0,0-.3496-.7012,2.65942,2.65942,0,0,1,.3212.2989,1.86555,1.86555,0,0,1-.79188,2.8271,2.826,2.826,0,0,1-1.69242.1465,6.20852,6.20852,0,0,1-.9893-.29c-.3955-.1397-.7949-.2657-1.1846-.4229A6.75313,6.75313,0,0,1,26.89813,25.19181Z"/><path class="a8ac20a4-9996-45a0-90e9-c169f423408c" d="M28.67843,24.21131a1.89136,1.89136,0,0,1-1.36518.3897,1.92919,1.92919,0,0,1-.53712-.1719c-.0245-.0225-.0498-.0449-.0733-.0674-2.55958-2.6377-2.3945-2.9892-3.7588-3.1924-1.3642-.2041-3.4707-.3955-3.67578-.8994-.65332-1.6152.02058-4.2226.02058-4.2226s.3877-.918.7919-.9424c.4043-.0264,4.6524.6377,6.2237,2.1582a22.5735,22.5735,0,0,1,3.2256,5.0156A1.86153,1.86153,0,0,1,28.67843,24.21131Z"/><path class="5504dec4-0ac2-4ca2-a4e4-7ee092fad7cc" d="M25.67353,18.86661a1.26563,1.26563,0,0,1-1.917.2783,2.22987,2.22987,0,0,1,.4463-3.0781,6.33547,6.33547,0,0,1,2.1016,1.1963l.0097.0107A3.64787,3.64787,0,0,1,25.67353,18.86661Z"/><path class="d612e0dc-469f-4e55-a0af-31a3d206bf18" d="M25.59443,18.17321a.87626.87626,0,0,1-1.3301.1924,1.54532,1.54532,0,0,1,.3086-2.1318,4.35115,4.35115,0,0,1,1.458.8301l.0059.0058A2.49366,2.49366,0,0,1,25.59443,18.17321Z"/><path class="5504dec4-0ac2-4ca2-a4e4-7ee092fad7cc" d="M22.111,17.892a5.2777,5.2777,0,0,0-.124,3.1445c-1.2256-.1689-2.5586-.372-2.71878-.7666-.65332-1.6152.02058-4.2226.02058-4.2226s.3877-.918.7919-.9424a15.77963,15.77963,0,0,1,3.3379.6904A4.14062,4.14062,0,0,0,22.111,17.892Z"/><path class="5504dec4-0ac2-4ca2-a4e4-7ee092fad7cc" d="M26.81325,20.73381a3.31183,3.31183,0,0,1-1.40532,1.0224,3.55459,3.55459,0,0,1-.8994.2305,2.34838,2.34838,0,0,0-.9082-.665,5.94611,5.94611,0,0,0,1.9668-1.8877,3.85562,3.85562,0,0,0,.832-2.0762,9.67379,9.67379,0,0,1,.95612,1.1826A2.50382,2.50382,0,0,1,26.81325,20.73381Z"/><path class="9859e7e8-e936-4a78-a73c-12ce5b91376a" d="M25.62963,19.99941a4.09822,4.09822,0,0,1-1.9815,1.3418c-.0156-.0068-.0312-.0137-.0478-.0195a5.94611,5.94611,0,0,0,1.9668-1.8877,3.85562,3.85562,0,0,0,.832-2.0762c.12012.1231.2402.2578.3613.4024A4.4095,4.4095,0,0,1,25.62963,19.99941Z"/><path class="5665557f-d220-44d6-b624-02ade45cf136" d="M22.944,21.16931c-1.3642-.2041-3.4707-.3955-3.67578-.8994-.65332-1.6152.02058-4.2226.02058-4.2226a3.29626,3.29626,0,0,1,.375-.6465,1.528,1.528,0,0,0-.1387.3662,4.09189,4.09189,0,0,0-.0596,1.4551,2.24759,2.24759,0,0,0,.3955,1.2177c.4776.5381,1.3994.5567,2.0635.6543a7.44935,7.44935,0,0,1,2.6738.792,5.92893,5.92893,0,0,1,1.8125,1.9512c.2393.3633.4658.7354.7002,1.1025a6.24525,6.24525,0,0,0,.584.8877.92492.92492,0,0,0,1.20022.2129,2.34258,2.34258,0,0,1-.21682.1709,1.89136,1.89136,0,0,1-1.36518.3897,1.92919,1.92919,0,0,1-.53712-.1719c-.0245-.0225-.0498-.0449-.0733-.0674C24.14325,21.724,24.30833,21.37251,22.944,21.16931Z"/><path class="ae4d465d-876e-4c8c-a88b-1a0592f99caa" d="M20.04953,15.47011s4.7139.6035,6.0088,1.8369a26.65283,26.65283,0,0,1,3.2217,5.0137s-2.38378-4.0127-3.6973-5.002c-1.3154-.9882-5.6738-.791-5.6738-.791Z"/><path class="9859e7e8-e936-4a78-a73c-12ce5b91376a" d="M29.53483,25.03261a.18124.18124,0,0,0,.0235-.0527,3.10928,3.10928,0,0,1,1.2178-2.0078.18175.18175,0,0,0-.17-.3213,3.40686,3.40686,0,0,0-1.4004,2.2373.182.182,0,0,0,.3291.1445Z"/><path class="9859e7e8-e936-4a78-a73c-12ce5b91376a" d="M30.27025,25.38911a.20982.20982,0,0,0,.02438-.0606,3.16259,3.16259,0,0,1,1.209-2.1523.1819.1819,0,0,0,.0693-.2491.18.18,0,0,0-.247-.0693,3.48183,3.48183,0,0,0-1.38868,2.3945.183.183,0,0,0,.333.1368Z"/><path class="7e682c17-f9ab-4524-804c-e90ee78c5fe5" d="M26.36883,26.017a1.96352,1.96352,0,0,0-1.7304-.0449,2.08182,2.08182,0,0,0-.6914,2.3144,3.07962,3.07962,0,0,0,.61322,1.2266c.13968.168.29108.3252.44338.4814q.14943.1905.3018.3789a9.72551,9.72551,0,0,0,.8701.8916,4.54917,4.54917,0,0,0,1.67772,1.127,1.86507,1.86507,0,0,0,2.24218-1.8975,2.82609,2.82609,0,0,0-.5723-1.5976,6.32458,6.32458,0,0,0-.6738-.7803c-.292-.3008-.5732-.6113-.8779-.9004A6.73266,6.73266,0,0,0,26.36883,26.017Z"/><path class="b1408fd4-1666-483e-b53f-f15b1366a33d" d="M26.62763,27.74751a2.60035,2.60035,0,0,0-.7519-1.8526c-.0244-.0224-.0498-.0439-.0733-.0654a1.768,1.768,0,0,0-1.164.1426,2.08182,2.08182,0,0,0-.6914,2.3144,3.07962,3.07962,0,0,0,.61322,1.2266c.06938.084.13968.1631.21388.2412A1.9268,1.9268,0,0,0,26.62763,27.74751Z"/><path class="5504dec4-0ac2-4ca2-a4e4-7ee092fad7cc" d="M26.95573,29.71331a3.96737,3.96737,0,0,0-.7734,1.5576,4.54106,4.54106,0,0,0,1.67092,1.1211,1.86507,1.86507,0,0,0,2.24218-1.8975,2.82609,2.82609,0,0,0-.5723-1.5976,5.11227,5.11227,0,0,0-.4892-.5879A4.012,4.012,0,0,0,26.95573,29.71331Z"/><path class="a8ac20a4-9996-45a0-90e9-c169f423408c" d="M26.36883,26.017a1.96352,1.96352,0,0,0-1.7304-.0449,1.23581,1.23581,0,0,0-.3184.2441,1.865,1.865,0,0,1,1.40822-.1621,5.14077,5.14077,0,0,1,2.43158,1.8799,3.53548,3.53548,0,0,1,.9961,3.0869,1.59542,1.59542,0,0,1-.9248,1.2305,1.45766,1.45766,0,0,1-.7822-.0254,2.81489,2.81489,0,0,0,.40432.166,1.86507,1.86507,0,0,0,2.24218-1.8975,2.82609,2.82609,0,0,0-.5723-1.5976,6.32458,6.32458,0,0,0-.6738-.7803c-.292-.3008-.5732-.6113-.8779-.9004A6.73266,6.73266,0,0,0,26.36883,26.017Z"/><path class="a8ac20a4-9996-45a0-90e9-c169f423408c" d="M26.21753,28.04341a1.89475,1.89475,0,0,0-.2129-1.4043,1.93822,1.93822,0,0,0-.3809-.4161c-.0303-.0136-.06148-.0263-.0928-.039-3.4619-1.2295-3.7128-.9326-4.4658-2.0889-.75188-1.1572-1.8047-2.9931-2.3476-2.9687-1.74028.0781-3.8311,1.7763-3.8311,1.7763s-.6728.7344-.5273,1.1133c.1455.377,2.5166,3.9649,4.5537,4.7608a22.57845,22.57845,0,0,0,5.9023.8447A1.85734,1.85734,0,0,0,26.21753,28.04341Z"/><path class="5504dec4-0ac2-4ca2-a4e4-7ee092fad7cc" d="M20.10613,27.53361a1.26239,1.26239,0,0,0-.54388-1.8565,2.22975,2.22975,0,0,0-2.61432,1.6846,6.37153,6.37153,0,0,0,1.9649,1.4151l.0117.0029A3.62788,3.62788,0,0,0,20.10613,27.53361Z"/><path class="d612e0dc-469f-4e55-a0af-31a3d206bf18" d="M19.445,27.74941a.87814.87814,0,0,0-.3779-1.2881,1.5475,1.5475,0,0,0-1.8125,1.168,4.35562,4.35562,0,0,0,1.3613.9805l.0088.0039A2.5332,2.5332,0,0,0,19.445,27.74941Z"/><path class="5504dec4-0ac2-4ca2-a4e4-7ee092fad7cc" d="M17.73993,24.70161a5.257,5.257,0,0,1,2.8067-1.4219c-.6621-1.0449-1.40138-2.1719-1.8291-2.1533-1.74028.0781-3.8311,1.7763-3.8311,1.7763s-.6728.7344-.5273,1.1133a15.77626,15.77626,0,0,0,2.0185,2.7451A4.10973,4.10973,0,0,1,17.73993,24.70161Z"/><path class="5504dec4-0ac2-4ca2-a4e4-7ee092fad7cc" d="M22.278,27.79341a3.26677,3.26677,0,0,0,.3457-1.7022,3.58476,3.58476,0,0,0-.1631-.915,2.324,2.324,0,0,1-.98238-.5489,5.9531,5.9531,0,0,1-.89942,2.5743,3.837,3.837,0,0,1-1.542,1.6201,9.75852,9.75852,0,0,0,1.4736.3789A2.49663,2.49663,0,0,0,22.278,27.79341Z"/><path class="9859e7e8-e936-4a78-a73c-12ce5b91376a" d="M21.11983,27.02381a4.09269,4.09269,0,0,0,.3945-2.3593c-.0127-.0127-.0244-.0245-.03608-.0372a5.9531,5.9531,0,0,1-.89942,2.5743,3.837,3.837,0,0,1-1.542,1.6201c.1611.0576.335.1123.5166.1631A4.425,4.425,0,0,0,21.11983,27.02381Z"/><path class="5665557f-d220-44d6-b624-02ade45cf136" d="M21.06513,24.09511c-.75188-1.1572-1.8047-2.9931-2.3476-2.9687-1.74028.0781-3.8311,1.7763-3.8311,1.7763a3.2863,3.2863,0,0,0-.4326.6084,1.57012,1.57012,0,0,1,.27642-.2763,4.19493,4.19493,0,0,1,1.29778-.6621,2.259,2.259,0,0,1,1.2744-.1465c.6856.2119,1.0889,1.041,1.4512,1.6035a7.48786,7.48786,0,0,0,1.833,2.1035,5.93529,5.93529,0,0,0,2.5283.835c.4307.0664.86432.1191,1.2949.1787a6.12613,6.12613,0,0,1,1.0499.1621.9276.9276,0,0,1,.6933,1.0019,1.87276,1.87276,0,0,0,.0645-.2675,1.89475,1.89475,0,0,0-.2129-1.4043,1.93822,1.93822,0,0,0-.3809-.4161c-.0303-.0136-.06148-.0263-.0928-.039C22.069,24.95451,21.81813,25.25141,21.06513,24.09511Z"/><path class="ae4d465d-876e-4c8c-a88b-1a0592f99caa" d="M14.67843,23.83341s2.50982,4.0352,4.1719,4.7002a26.57028,26.57028,0,0,0,5.8984.8428s-4.6426-.4981-6.0859-1.2813c-1.4473-.7822-3.0811-4.8301-3.0811-4.8301Z"/><path class="9859e7e8-e936-4a78-a73c-12ce5b91376a" d="M27.321,28.48091a.14784.14784,0,0,1-.0391.0429,3.10132,3.10132,0,0,0-1.3174,1.9424.18239.18239,0,1,1-.3642-.0205,3.419,3.419,0,0,1,1.4512-2.2051.18278.18278,0,0,1,.2695.2403Z"/><path class="9859e7e8-e936-4a78-a73c-12ce5b91376a" d="M27.94993,29.00041a.148.148,0,0,1-.0449.0469,3.18252,3.18252,0,0,0-1.4541,1.9951.18167.18167,0,1,1-.3623-.0274,3.4797,3.4797,0,0,1,1.6005-2.2607.18346.18346,0,0,1,.2549.0391A.18579.18579,0,0,1,27.94993,29.00041Z"/><path class="1e11f059-304f-4bb6-ab35-3ee51e1f47dc" d="M18.37083,15.26111a37.14864,37.14864,0,0,0-5.2959-3.5586s-.8203-.374-1.2354-.0302a16.04392,16.04392,0,0,0-1.5078,2.6836l1.4903-2.1387s.40722-.5527,1.3623-.0977C14.22043,12.61371,14.09733,12.64491,18.37083,15.26111Z"/><path class="1e11f059-304f-4bb6-ab35-3ee51e1f47dc" d="M13.88453,22.24941a37.15894,37.15894,0,0,1-5.4405-3.3349s-.6816-.5918-.541-1.1114a16.09762,16.09762,0,0,1,1.8125-2.4883l-1.3262,2.2461s-.331.5996.4795,1.2784C9.74973,19.57661,9.72825,19.45061,13.88453,22.24941Z"/></g></g></g></g></svg>