<svg xmlns="http://www.w3.org/2000/svg" xmlns:xlink="http://www.w3.org/1999/xlink" viewBox="0 0 19.6993 19.6992"><defs><style>.\31 8a653d6-31f2-4301-baa9-60087ac85251{isolation:isolate;}.\37 598620c-ad47-4aaa-a40c-562c0ab12902{fill:url(#333630f8-7541-4e33-b1a3-2c979371f83a);}.e167e1ce-db86-4ed2-aff4-da1f3fbacc7a{fill:url(#285b6589-fe30-4cf9-98fd-d12d9c939521);}.b89d1389-a692-42a4-ab5f-70a57d134d72{opacity:0.4;}.\36 ad04953-a2c4-422f-a83a-bde4f407fa01,.b89d1389-a692-42a4-ab5f-70a57d134d72{mix-blend-mode:multiply;}.\37 0bddb45-d634-4c27-b25f-c6f1754ceaf8{fill:#c18ea6;}.\36 ad04953-a2c4-422f-a83a-bde4f407fa01{fill:#c2989c;opacity:0.6;}.\38 6254c47-e30f-4c1e-b80d-e2f746ef5800{fill:#c3e8fa;opacity:0.7;mix-blend-mode:color-dodge;}</style><linearGradient id="333630f8-7541-4e33-b1a3-2c979371f83a" x1="5.29089" y1="-0.09661" x2="14.47703" y2="19.94585" gradientUnits="userSpaceOnUse"><stop offset="0.03199" stop-color="#89d2d9"/><stop offset="0.27332" stop-color="#e36233"/><stop offset="0.77479" stop-color="#e79338"/><stop offset="1" stop-color="#a7ada2"/></linearGradient><linearGradient id="285b6589-fe30-4cf9-98fd-d12d9c939521" x1="6.95636" y1="0.84839" x2="12.80214" y2="19.03525" gradientUnits="userSpaceOnUse"><stop offset="0" stop-color="#e36233"/><stop offset="0.27838" stop-color="#df1f2f"/><stop offset="0.28387" stop-color="#df212f"/><stop offset="0.45554" stop-color="#e25132"/><stop offset="0.58655" stop-color="#e46f34"/><stop offset="0.66058" stop-color="#e57a35"/><stop offset="0.71643" stop-color="#e57335"/><stop offset="0.80058" stop-color="#e35e33"/><stop offset="0.90213" stop-color="#e13c31"/><stop offset="0.91612" stop-color="#e13731"/></linearGradient></defs><title>Planet</title><g class="18a653d6-31f2-4301-baa9-60087ac85251"><g id="ad8ba36e-b4cd-4b0b-bb33-41a3a1162da1" data-name="Layer 2"><g id="4c513283-b5a1-486e-8998-fe31f8b0badf" data-name="Layer 1"><g id="8a5cd8be-9d8c-4315-bca2-56720a2f0953" data-name="planet"><circle class="7598620c-ad47-4aaa-a40c-562c0ab12902" cx="9.84962" cy="9.8496" r="9.84961"/><circle class="e167e1ce-db86-4ed2-aff4-da1f3fbacc7a" cx="9.84962" cy="9.8496" r="9.84961"/><g class="b89d1389-a692-42a4-ab5f-70a57d134d72"><path class="70bddb45-d634-4c27-b25f-c6f1754ceaf8" d="M3.64552,10.2109c1-.1992,2.09478-.0557,2.98048-.6582.8233-.5605,1.2276-1.5713,2.0567-2.1172a3.14481,3.14481,0,0,1,1.4287-.4424,2.72268,2.72268,0,0,0,1.5849-.5674c.1817-.1572.6641-.5488.4658-.8417-.1542-.2266-.5185-.2803-.7685-.3174A9.76512,9.76512,0,0,0,9.085,5.2265a5.23789,5.23789,0,0,0-1.5078.3965,7.26537,7.26537,0,0,1-1.7256.6006,11.0051,11.0051,0,0,1-3.1514-.2432A5.68167,5.68167,0,0,0,.9893,5.9463c-.0684.0107-.13478.0244-.2022.039A9.88816,9.88816,0,0,0,.3848,12.583a17.89665,17.89665,0,0,0,1.6113-1.3789A3.64346,3.64346,0,0,1,3.64552,10.2109Z"/><path class="70bddb45-d634-4c27-b25f-c6f1754ceaf8" d="M5.4258,18.6513a4.17253,4.17253,0,0,0,1.1455-.4716,6.74414,6.74414,0,0,0,1.5-1.3116,4.70893,4.70893,0,0,1,1.3565-1.039,13.52071,13.52071,0,0,1,2.97072-.8526,5.96685,5.96685,0,0,1,1.82128-.1845,11.6398,11.6398,0,0,1,1.6992.29,16.03875,16.03875,0,0,0,2.0264.3779,9.85033,9.85033,0,0,0,.3535-10.6728c-.1328.248-.291.4902-.44438.7334a3.26918,3.26918,0,0,0-.53712,1.2939,4.57435,4.57435,0,0,0,.1533,1.6533,4.26755,4.26755,0,0,1,.1641,1.4961,1.92973,1.92973,0,0,1-.65328,1.2315c-.40432.3125-.97272.4297-1.31942.8154a1.30145,1.30145,0,0,0-.2353.9375,1.23544,1.23544,0,0,1-.2295.71,1.29293,1.29293,0,0,1-1.001.6259,3.43489,3.43489,0,0,1-1.2734-.3476,13.74088,13.74088,0,0,0-1.8076-.8203,1.64423,1.64423,0,0,0-.8662-.042,1.67253,1.67253,0,0,0-.4131.2646,4.36922,4.36922,0,0,1-1.5156.6494,5.53882,5.53882,0,0,1-1.6543.1397,4.76086,4.76086,0,0,1-1.6963-.4482,15.42046,15.42046,0,0,0-1.708-.6885,2.84309,2.84309,0,0,0-1.0401-.0508c-.4424.0332-.8818.0928-1.3203.1621-.1103.0176-.2197.0361-.3301.0547A9.888,9.888,0,0,0,5.4258,18.6513Z"/><path class="70bddb45-d634-4c27-b25f-c6f1754ceaf8" d="M13.2461,2.9677a5.359,5.359,0,0,1,.7276-.248,4.02233,4.02233,0,0,1,.8759-.1084c.29892.0078.5938.0518.8917.0703a5.378,5.378,0,0,0,.8437-.0166,9.9014,9.9014,0,0,0-1.1602-.9346c-.7714.6075-2.2695.7325-3.0566,1.1075A.95536.95536,0,0,0,13.2461,2.9677Z"/></g><g class="b89d1389-a692-42a4-ab5f-70a57d134d72"><path class="70bddb45-d634-4c27-b25f-c6f1754ceaf8" d="M2.3184,7.3632a4.41377,4.41377,0,0,0-1.9795-.081c-.0596.2217-.1113.4453-.1562.6728a6.46637,6.46637,0,0,0,.9443-.2001A6.86471,6.86471,0,0,0,2.3184,7.3632Z"/><path class="70bddb45-d634-4c27-b25f-c6f1754ceaf8" d="M5.77252,8.791A2.0097,2.0097,0,0,0,7.1348,8.1338c-.0332.0048-.0664.0117-.0996.0195A11.24319,11.24319,0,0,1,5.77252,8.791Z"/><path class="70bddb45-d634-4c27-b25f-c6f1754ceaf8" d="M7.4952,6.6836a1.38987,1.38987,0,0,0-.1905.0166,2.63712,2.63712,0,0,0-.3115.1035.6296.6296,0,0,0-.1475.1181,1.67846,1.67846,0,0,0,1.2676-.3291,4.03327,4.03327,0,0,0-.5752.0557A.04345.04345,0,0,1,7.4952,6.6836Z"/><path class="70bddb45-d634-4c27-b25f-c6f1754ceaf8" d="M.1016,11.2617c.0088.0693.0215.1377.0322.206a2.67463,2.67463,0,0,0,.9219-.499A2.88747,2.88747,0,0,0,.1016,11.2617Z"/><path class="70bddb45-d634-4c27-b25f-c6f1754ceaf8" d="M10.3243,5.916c.207-.0986.3984-.2246.5996-.3272a6.31807,6.31807,0,0,0-1.7041.4737A2.78249,2.78249,0,0,0,10.3243,5.916Z"/><path class="70bddb45-d634-4c27-b25f-c6f1754ceaf8" d="M3.3868,8.2802c.247-.1396.458-.332.6914-.4931-.5284.1601-1.0264.4062-1.543.5986A1.55861,1.55861,0,0,0,3.3868,8.2802Z"/><path class="70bddb45-d634-4c27-b25f-c6f1754ceaf8" d="M5.9844,17.1777a1.512,1.512,0,0,0,.6494-.2568c.167-.1514.30372-.3184.4766-.4483a17.53833,17.53833,0,0,0-2.0166.4336,4.15009,4.15009,0,0,0-1.377.6485q.2622.2094.5391.3994A3.13637,3.13637,0,0,1,5.377,17.332C5.5782,17.2724,5.7823,17.2295,5.9844,17.1777Z"/><path class="70bddb45-d634-4c27-b25f-c6f1754ceaf8" d="M6.3438,15.3427A5.6469,5.6469,0,0,1,7,15.3232a2.14142,2.14142,0,0,0,1.043-.2129A3.21026,3.21026,0,0,0,6.3438,15.3427Z"/><path class="70bddb45-d634-4c27-b25f-c6f1754ceaf8" d="M19.4981,7.8662c-.01758-.086-.0371-.1719-.0567-.2569-.20988.1172-.42088.2325-.6308.3477C19.0401,7.9316,19.2696,7.9023,19.4981,7.8662Z"/><path class="70bddb45-d634-4c27-b25f-c6f1754ceaf8" d="M11.0752,13.9931c.0977-.082.1866-.1738.2852-.2422a6.43346,6.43346,0,0,0-1.2402.375A1.25056,1.25056,0,0,0,11.0752,13.9931Z"/><path class="70bddb45-d634-4c27-b25f-c6f1754ceaf8" d="M17.542,11.3349c.3086-.0752.6797-.122.8282-.4199.02932-.0566.0556-.1133.082-.1689A2.16473,2.16473,0,0,0,17.542,11.3349Z"/><path class="70bddb45-d634-4c27-b25f-c6f1754ceaf8" d="M18.1436,12.5849a5.55334,5.55334,0,0,0,1.2285-.2177c.02742-.1026.0527-.2051.0772-.3086a2.26283,2.26283,0,0,0-.59378.1191A6.1164,6.1164,0,0,0,18.1436,12.5849Z"/></g><path class="6ad04953-a2c4-422f-a83a-bde4f407fa01" d="M9.8496,0a9.8496,9.8496,0,1,0,9.8497,9.8496A9.84939,9.84939,0,0,0,9.8496,0ZM9.1133,17.0351a8.15135,8.15135,0,1,1,8.1514-8.1513A8.151,8.151,0,0,1,9.1133,17.0351Z"/><path class="86254c47-e30f-4c1e-b80d-e2f746ef5800" d="M2.3086,15.0566A11.33587,11.33587,0,0,1,.4297,9.7021L.4268,9.6884A9.1769,9.1769,0,0,1,.3643,8.3408a9.33765,9.33765,0,0,0,1.2129,6.3584,9.51452,9.51452,0,0,0,9.5264,4.6035S5.4014,19.9433,2.3086,15.0566Z"/></g></g></g></g></svg>